<?xml version="1.0" encoding="iso-8859-1"?>
<!DOCTYPE svg PUBLIC "-//W3C//DTD SVG 1.0//EN" "http://www.w3.org/TR/2001/REC-SVG-20010904/DTD/svg10.dtd">
<!-- Creator: CorelDRAW -->
<svg xmlns="http://www.w3.org/2000/svg"
  xmlns:odm="http://product.corel.com/CGS/11/cddns/"
  xml:space="preserve"
  style="shape-rendering:geometricPrecision; text-rendering:geometricPrecision; image-rendering:optimizeQuality; fill-rule:evenodd"
  viewBox="-50000 0 290000 194000"
  id="map-wrapper">
  <g id="map-location-wrapper">
    <g id="municipalities">
      <path microregion="16004" id="1600808" class="municipy" fill="transparent" d="M82657 178215l1895 -790 473 119 237 -277 277 -158 513 158 316 -118 552 -40 1501 198 473 118 474 316 237 0 710 632 750 78 277 277 0 276 395 434 39 237 237 237 0 276 829 790 237 79 316 -79 315 79 514 -79 513 -158 237 237 237 -118 394 0 356 -277 434 -79 395 -355 236 118 553 -236 237 -119 0 -158 276 0 119 -158 -79 -79 434 -158 158 40 79 -79 632 237 157 -40 356 316 158 0 39 -276 158 0 40 276 157 79 79 -316 237 40 0 355 158 0 40 -158 118 237 237 118 118 -39 0 -237 79 -39 198 197 355 118 118 395 435 0 197 395 197 158 0 -395 356 79 276 -750 -276 -237 39 -631 434 355 119 0 -79 -277 276 -39 237 158 316 -355 118 236 277 198 671 -237 355 118 0 -276 474 0 -119 -434 -237 0 0 -119 79 -118 474 -158 -632 -197 356 -198 513 -592 947 -197 -118 829 -79 2289 -158 948 158 2487 158 513 -40 750 -592 1066 -2447 2290 0 118 -987 553 -2566 276 -355 -118 -948 -987 -237 158 -434 947 -158 119 -197 0 -119 -79 -158 -237 119 -829 -119 -316 -276 -158 -355 40 -277 236 198 908 0 356 -119 157 -671 -157 -947 79 -474 236 -237 237 -39 237 513 750 0 158 -237 513 -513 40 -987 -316 -316 -316 -39 -395 158 -710 -356 -1066 -118 -158 -869 118 -513 -513 -355 -118 -1619 158 -513 -277 -1145 79 -908 -434 -1066 0 -631 -1500 -198 -237 -829 -316 -552 -315 -671 276 -198 -40 -79 -276 395 -553 79 -552 -118 -316 -79 -1105 -514 -593 -118 -434 79 -197 355 -316 395 0 316 -197 118 -829 -79 -356 -513 -750 -434 -197 -395 -474 -355 -118z"/>
      <path microregion="16003" id="1600238" class="municipy" fill="transparent" d="M98092 107275l19897 40 -237 868 -237 395 158 158 -40 158 -197 158 -198 -40 -513 158 -118 276 -237 40 0 158 -395 157 237 198 79 868 158 277 0 394 -355 198 0 789 -119 395 40 277 -237 394 118 158 -197 513 -158 -39 -355 197 -395 632 632 592 1144 197 593 237 78 158 -394 1342 39 553 316 237 197 355 474 316 237 474 276 197 158 -39 158 -356 355 -157 198 -553 395 39 789 -158 592 316 316 -118 237 118 513 40 276 -158 119 434 197 395 79 -40 237 -197 40 -395 394 -513 435 -276 552 -1066 158 -79 40 -158 197 -40 632 198 315 -40 711 671 158 0 710 -315 711 -158 434 197 356 0 236 276 514 158 -79 474 592 119 -237 355 316 355 -79 197 237 40 -40 158 -79 39 119 237 118 40 0 -79 198 158 0 236 79 40 118 -355 316 -277 -79 -552 237 -237 631 -79 592 -395 435 119 1342 -158 -434 710 -356 197 -118 237 -197 593 315 473 -79 671 -276 395 -118 -39 -356 158 -394 552 -158 474 0 947 1145 869 986 158 0 987 -473 -316 -356 513 0 237 356 711 -277 394 -2250 948 -158 237 -39 276 -237 237 -197 868 118 158 197 790 -39 434 -276 316 0 355 276 276 158 553 237 -39 197 315 158 0 -40 119 198 237 237 -79 39 276 829 434 0 277 -355 276 -869 -79 -513 79 -592 -39 -355 513 -119 710 -552 40 79 908 -277 -40 -276 158 118 -316 -552 -473 -553 -158 -197 -513 -474 0 -237 -198 -987 -1342 198 -553 -593 -315 -355 -830 -553 -78 -947 -553 -79 -198 -1816 -315 -316 -356 -473 -236 -1224 -277 -1303 -474 -395 -1026 -237 -158 277 -316 158 -671 710 -513 -631 -1461 -316 0 -158 237 -40 198 198 276 -119 395 -355 237 -276 0 -198 157 -1026 -434 -355 -513 -592 -79 -553 -789 -355 -158 -316 -671 0 -711 -316 -908 118 -434 -315 -277 -395 158 -395 0 -39 119 -119 0 -276 276 -1184 592 -593 40 -236 434 -158 -40 -316 -947 0 -316 158 -158 355 -79 197 -157 79 -711 277 -237 -40 -158 -592 -355 -197 -355 -592 -356 -237 0 -237 -197 -316 39 -316 -750 198 -197 -356 -829 -316 -40 -157 198 -79 829 -237 197 -158 -118 -40 -316 -315 -197 -1382 750 -79 -119 158 -237 -79 -236 -355 39 -395 -316 -237 79 -395 -79 -158 711 -355 79 -119 -119 80 -237 -119 -710 -395 -198 -237 -394 0 -356 -197 -197 -474 434 -79 -276 -276 -158 -197 158 -395 -158 118 -434 -197 -79 -276 395 -277 -119 -276 -355 79 -276 -355 -158 -237 276 79 158 158 79 -79 237 -198 -40 -316 277 -394 -395 -79 -198 -1027 198 -118 -198 316 -394 -237 -237 197 -513 0 -593 -158 -315 158 -395 -395 -198 -78 -355 513 -316 -435 -118 -78 -198 276 -236 -40 -119 -473 -79 -198 -276 158 -790 671 -513 -118 -158 -79 79 -316 -79 79 -829 -237 -552 119 -119 0 -197 473 -198 158 -789 -158 -237z"/>
      <path microregion="16004" id="1600279" class="municipy" fill="transparent" d="M3072 70719l2487 -197 1737 -1066 1974 829 -237 2803 947 1145 2014 -355 5447 4184 8133 1027 6197 -1658 356 -277 513 198 237 -356 473 -79 237 119 119 -40 -40 -316 237 -236 -197 -593 197 -276 -118 -158 118 -197 198 197 473 0 -39 434 316 119 276 -474 197 158 119 -79 -119 -158 158 -276 -39 -237 197 -316 395 0 197 158 198 -276 236 316 316 79 593 -316 315 0 -197 -395 -395 0 -118 -158 39 -197 671 -79 119 -474 197 -40 197 -236 277 0 237 -237 355 -40 0 -118 197 -79 316 158 513 0 79 79 -118 197 -355 79 315 158 198 -118 355 394 118 -118 -157 395 -356 237 79 355 -118 -40 -316 198 39 237 553 118 158 -197 671 197 395 -118 276 592 198 -79 -40 -158 592 -119 79 198 277 -119 -119 593 671 118 316 -118 237 197 158 0 79 -237 474 40 434 513 237 -119 315 40 593 434 592 40 394 -316 316 158 514 39 315 -118 395 237 474 -119 118 -118 -39 -277 -316 -118 -118 -395 276 -79 671 355 237 -276 395 -39 197 -237 355 -40 198 -355 434 0 276 -316 316 -79 237 -434 0 -513 395 -158 355 39 237 316 237 -118 197 237 79 434 276 355 395 237 395 -39 158 355 513 276 0 474 553 118 355 -79 158 435 -790 513 -197 -198 -118 790 -119 158 -434 0 79 79 -79 553 -237 276 79 118 197 198 316 513 750 632 829 473 632 119 355 276 474 158 355 316 908 316 119 315 -119 829 198 1579 552 395 79 711 119 158 631 158 553 1026 237 39 276 -118 -39 434 236 671 316 198 40 316 473 750 79 829 435 315 552 672 -118 394 -355 237 -119 434 158 593 197 315 435 198 276 789 316 632 0 316 -395 434 -316 1145 -79 868 158 632 277 513 197 711 355 395 434 118 514 0 513 -158 789 119 593 276 315 395 198 710 -277 1619 79 789 -276 435 -434 1263 -790 1026 -79 711 -355 631 -118 593 118 473 -39 474 -119 197 -671 -39 -158 158 -474 1816 356 2526 197 158 632 158 750 750 631 276 119 237 -40 987 435 356 236 947 -197 553 355 908 671 513 237 39 277 -276 197 79 0 868 -434 829 79 316 237 119 118 237 40 276 236 79 277 -158 355 -40 276 -197 198 237 355 79 355 513 434 158 -276 790 40 197 276 316 316 39 355 237 869 237 1026 474 197 986 237 395 -118 237 0 908 -158 316 -118 1066 78 1381 119 316 -119 513 237 237 -39 198 79 0 276 789 513 790 356 276 355 158 513 790 197 118 40 474 355 552 158 40 40 474 -435 394 40 119 237 -40 158 671 79 -39 79 316 -158 592 39 276 197 198 237 -40 -79 316 40 158 237 0 394 237 119 394 79 -39 671 908 118 39 435 632 39 553 276 118 79 237 -236 40 118 315 -79 119 -118 -79 -119 118 40 316 -119 276 434 316 0 277 -394 -40 394 829 -39 434 -158 40 -118 276 118 474 -79 395 -316 236 119 119 79 474 -158 157 0 356 -119 158 237 395 -118 236 -316 277 158 118 -158 197 355 316 -237 79 -158 277 316 157 40 119 -277 513 237 355 -79 119 79 355 -118 395 -513 0 -158 276 39 474 -118 79 -158 789 118 79 0 356 -473 513 -277 -119 -158 79 0 119 395 355 -118 0 -237 237 118 632 -79 236 277 -118 39 118 395 40 0 118 79 79 158 -276 237 -39 750 -869 1184 -276 868 39 751 277 157 197 671 158 395 237 553 276 908 158 355 237 316 474 434 1105 435 553 355 276 39 237 987 789 1500 -79 435 198 276 276 1579 553 632 829 631 434 237 395 -79 2092 79 237 -39 789 118 158 -79 356 237 473 276 79 119 592 -395 829 -237 198 198 197 -40 237 158 79 -118 395 79 276 -277 237 -79 237 750 158 40 987 118 237 -39 315 118 237 -39 632 355 118 197 395 198 118 513 829 355 -118 671 237 198 434 0 711 276 355 79 434 316 -39 316 237 79 -79 197 276 118 316 -158 118 -157 869 197 -40 39 356 -315 789 -198 118 -79 316 158 395 316 40 118 394 -157 40 -632 -237 -79 79 -158 -40 -434 158 79 79 -119 158 -276 0 0 158 -237 119 -553 236 -236 -118 -395 355 -434 79 -356 277 -394 0 -237 118 -237 -237 -513 158 -514 79 -315 -79 -316 79 -237 -79 -829 -790 0 -276 -237 -237 -39 -237 -395 -434 0 -276 -277 -277 -750 -78 -710 -632 -237 0 -474 -316 -473 -118 -1501 -198 -552 40 -316 118 -513 -158 -277 158 -237 277 -473 -119 -1895 790 -395 315 -987 316 -631 277 -395 39 -356 -158 119 -395 829 -947 -355 -395 -40 -316 119 -552 552 -948 119 -513 39 -632 -158 -631 -276 -434 -79 -474 -118 -40 157 -236 -39 -1224 -355 -987 -395 -513 -1145 79 -750 157 -671 435 -513 0 -356 -316 -907 -1342 -80 -198 80 -434 -474 -276 -435 -671 119 -632 -355 -592 750 -1145 -40 -316 -592 -908 79 -473 474 -1066 -79 -869 -198 -355 -355 -355 -513 0 -790 -514 -434 -473 -237 -829 -2487 -1698 -276 -868 -197 -316 -869 -237 -671 395 -197 0 -829 -277 -158 -197 -869 -2526 -355 -672 -198 -1144 0 -1066 -276 -395 -592 -237 -395 -553 119 -1144 -593 -316 -236 -513 -79 -514 -237 -236 -198 -474 -592 -395 -434 -632 -355 -236 -395 -1185 395 -908 -592 -908 -711 -434 -79 -868 -395 -711 -513 -395 -395 -710 514 -671 0 -198 39 -434 -276 -829 394 -1105 -118 -277 -355 -197 355 -671 -118 -277 355 -315 118 -316 0 -316 -197 -395 39 -434 198 -790 868 -1105 316 -1105 198 -395 -40 -118 -592 -474 -395 158 -237 -119 -237 -750 -236 -316 -869 -592 -197 -710 -395 -237 -158 79 -237 -395 -1342 -790 -671 -513 -395 -671 -474 -474 -1737 -947 -237 -237 -1618 -1105 -79 -592 79 -316 0 -829 -197 -237 -316 -118 -119 -908 277 -277 -40 -158 -158 -315 -237 -158 -39 -395 -553 -395 -79 -197 0 -1066 -158 -592 79 -356 435 -394 315 -79 435 197 315 0 237 -118 158 -237 119 -711 -198 -474 -473 -276 -277 -631 -39 -711 -119 0 -118 276 -158 79 -1145 -237 -1697 908 -356 0 -315 -315 -40 -237 513 -553 237 -513 -237 -395 -710 -237 -158 -158 -198 -710 79 -119 553 -158 355 -236 -158 -632 -355 -237 -513 -40 -40 316 -157 79 -829 -671 -1224 356 -316 394 -276 -39 -395 -435 434 -236 197 -237 -39 -513 158 -395 -158 -434 -197 -119 -237 158 -316 1026 -434 0 -79 -394 -158 -40 -434 277 -356 -198 -39 -434 552 -711 0 -158 -671 -276 -237 119 277 315 0 435 -513 315 -40 316 -750 -276 -237 -474 -197 434 -198 -39 -315 -198 -277 -473 -394 -237 -395 79 -198 276 474 355 79 158 -118 198 -474 79 -237 -158 -632 79 -118 -79 79 -158 316 -119 -79 -118 -355 158 -711 -197 -237 237 -158 -237 395 -908 -158 -158 -395 -119 -118 -394 -671 -40 -198 474 -434 197 -158 -39 0 -198 356 -237 0 -236 157 -277 -118 -118 -237 79 -237 -119 -355 79 -79 -394 -355 -119 -277 395 -355 -237 -355 118 -198 -434 119 -513 -316 -513 -355 158 -237 -40 197 316 -118 237 -513 -197 -514 394 -197 -39 -237 -198 -355 198 79 316 -276 -119 -79 -118 118 -434 -158 -277 158 -395 -474 -789 -513 -40 -79 -236 237 -553 276 -316 0 -197 -315 79 -237 236 -158 -315 -158 0 -119 -198 277 -158 0 -197 -356 -316 119 -237 -395 -158 -39 -394 -119 -79 -158 118 -158 -79 -394 -39 -237 -158 -79 -316 -119 0 -197 395 0 592 -118 79 -198 -198 -197 -592 -513 -237 -316 -276 -40 -355 -473 0 -158 -277 -474 119 40 -237 -237 -197 118 -79 -118 -277 79 -118 -237 -79 -198 79 -394 0 315 -276 40 -237 -276 118 -119 -197 -237 79 -158 -198 -158 0 -118 -118 276 -119 -118 -118 -276 118 -198 0 -197 -236 -237 118 -276 0 39 -197 -237 -40 -39 -197 -829 -316 -316 592 -553 -474 -473 119 -198 -158 -355 237 -987 -198 -197 119 0 158 -474 -119 0 119 -355 158 -198 -158 -197 118 -158 -197 -355 -79 -158 -277 -277 -197 -1145 -237 40 -237 -355 237 -671 -237 -316 198 -474 -40 -592 395 -276 -118 -632 197 -276 -118 -435 39 -236 -237 -79 119 -553 39 -829 -158 -79 -355 -197 -158 -40 -237 237 -237 -119 -276 553 -592 -237 0 40 -237 -316 -119 -118 -276 0 -829 -198 -474 -158 -78 40 -435 -119 -39 -197 -1106 237 -118 197 -434 -39 -79 118 0 79 -237 -79 -237 -237 -158 -276 40 79 -592 -395 -119 -316 -276 -118 -277 -316 -315 -118 -395 -119 -40 198 -473 -237 -316 0 -277 197 -157 -237 -829 316 -198 -158 -513 197 -316 -118 -197 197 -119 79 -276 277 -197 -40 -158 316 -198 -39 -237 473 -197 -39 -237 237 -158 -40 -316 -237 -197 -158 -395 -197 -118 -592 -711 -395 -710 79 -632 197 -118 -118 -277 158 -315 237 -158 -355 -553 -79 -434 -1935 -2014 -39 -197 -237 -197 -40 -356 119 -237z"/>
      <path microregion="16004" id="1600402" class="municipy" fill="transparent" d="M73380 124013l513 -355 750 39 632 -118 158 79 394 -277 79 158 -158 790 237 592 435 395 394 39 474 474 118 632 158 79 869 -119 197 119 277 434 750 158 434 750 316 158 158 316 434 157 158 198 79 434 -277 276 0 119 119 158 434 118 276 237 40 513 316 395 118 711 197 276 751 158 789 671 -118 790 39 473 158 198 553 197 -79 237 118 197 316 40 -79 552 355 553 356 79 552 513 356 -237 0 592 -316 316 0 198 276 158 79 592 237 79 158 -158 197 276 119 0 473 -355 119 -277 553 948 236 -79 987 237 237 -79 40 -553 -119 -276 474 -908 710 -790 79 -513 277 -197 908 -158 355 -237 316 -395 1105 -355 119 -237 276 -158 592 0 592 395 356 474 434 158 276 276 395 -316 711 119 868 394 395 40 39 316 119 79 158 0 79 -198 315 198 514 -79 236 79 119 -119 395 197 236 -276 79 158 356 40 118 197 513 118 40 -158 513 40 158 -119 -40 -157 237 79 592 -198 237 40 119 118 237 -39 79 355 197 158 118 355 158 -39 356 276 -40 118 118 158 553 0 237 237 197 -39 119 -198 316 -39 237 316 434 118 197 276 40 158 -158 79 237 750 355 237 -395 355 -158 0 40 119 158 79 -158 276 158 277 276 118 276 592 869 355 552 632 158 -158 553 671 -79 119 118 197 435 158 79 -40 394 356 119 0 -40 473 158 0 158 514 -158 0 -118 197 118 434 0 592 -237 237 198 553 158 -237 158 237 -119 276 316 474 -158 158 40 79 394 276 277 435 237 236 79 948 276 197 1145 276 -40 237 119 158 750 395 276 40 355 789 198 790 631 513 356 118 237 513 315 119 869 0 592 237 632 79 434 -119 987 277 394 355 751 -395 947 197 197 829 -1618 2527 -790 1066 -434 829 -829 513 -632 1026 -236 632 -277 1619 -1342 1539 -553 474 -394 1461 -830 1302 -947 1066 -947 671 -356 474 -1500 1421 -789 908 -2290 3672 -474 750 -158 434 -947 197 -513 592 -356 198 632 197 -474 158 -79 118 0 119 237 0 119 434 -474 0 0 276 -355 -118 -671 237 -277 -198 -118 -236 -316 355 -237 -158 -276 39 79 277 -119 0 -434 -355 -39 631 276 237 -276 750 -356 -79 0 395 -197 -158 -197 -395 -435 0 -118 -395 -355 -118 -198 -197 -79 39 0 237 -118 39 -237 -118 -118 -237 -40 158 -158 0 0 -355 -237 -40 -79 316 -157 -79 -40 -276 -158 0 -39 276 -158 0 -356 -316 -118 -394 -316 -40 -158 -395 79 -316 198 -118 315 -789 -39 -356 -197 40 157 -869 158 -118 -118 -316 -197 -276 -79 79 -316 -237 -316 39 -79 -434 -276 -355 0 -711 -198 -434 -671 -237 -355 118 -513 -829 -198 -118 -197 -395 -355 -118 39 -632 -118 -237 39 -315 -118 -237 -40 -987 -750 -158 79 -237 277 -237 -79 -276 118 -395 -158 -79 40 -237 -198 -197 237 -198 395 -829 -119 -592 -276 -79 -237 -473 79 -356 -118 -158 39 -789 -79 -237 79 -2092 -237 -395 -631 -434 -632 -829 -1579 -553 -276 -276 -435 -198 -1500 79 -987 -789 -39 -237 -355 -276 -435 -553 -434 -1105 -316 -474 -355 -237 -908 -158 -553 -276 -395 -237 -671 -158 -157 -197 -751 -277 -868 -39 -1184 276 -750 869 -237 39 -158 276 -79 -79 0 -118 -395 -40 -39 -118 -277 118 79 -236 -118 -632 237 -237 118 0 -395 -355 0 -119 158 -79 277 119 473 -513 0 -356 -118 -79 158 -789 118 -79 -39 -474 158 -276 513 0 118 -395 -79 -355 79 -119 -237 -355 277 -513 -40 -119 -316 -157 158 -277 237 -79 -355 -316 158 -197 -158 -118 316 -277 118 -236 -237 -395 119 -158 0 -356 158 -157 -79 -474 -119 -119 316 -236 79 -395 -118 -474 118 -276 158 -40 39 -434 -394 -829 394 40 0 -277 -434 -316 119 -276 -40 -316 119 -118 118 79 79 -119 -118 -315 236 -40 -79 -237 -276 -118 -39 -553 -435 -632 -118 -39 -671 -908 -79 39 -119 -394 -394 -237 -237 0 -40 -158 79 -316 -237 40 -197 -198 -39 -276 158 -592 -79 -316 -79 39 -158 -671 -237 40 -40 -119 435 -394 -40 -474 -158 -40 -355 -552 -40 -474 -197 -118 -513 -790 -355 -158 -356 -276 -513 -790 -276 -789 -79 0 39 -198 -237 -237 119 -513 -119 -316 -78 -1381 118 -1066 158 -316 0 -908 118 -237 -237 -395 -197 -986 -1026 -474 -869 -237 -355 -237z"/>
      <path microregion="16003" id="1600535" class="municipy" fill="transparent" d="M86170 136606l-39 -276 671 -355 276 -395 0 -198 237 -236 158 -751 592 -118 671 -592 0 -198 435 -631 79 -632 355 -394 276 -593 316 -197 513 197 395 -118 434 -592 40 -355 236 -237 -78 -158 276 79 158 -119 79 -118 552 158 198 158 197 -158 198 0 315 237 158 -40 0 -237 316 -237 -118 -394 237 -474 355 39 39 395 632 -39 711 -237 513 -434 434 -198 0 -118 1224 -119 631 119 356 -198 750 119 276 -158 790 79 394 -79 237 -237 829 1145 316 -276 553 -40 395 -316 394 -79 158 435 -79 592 395 473 158 0 553 -473 394 118 79 197 -237 948 119 237 592 -237 474 -908 -158 -276 -40 -237 198 -198 79 -394 473 -356 40 -276 -237 -711 -237 -276 -158 -513 -355 -474 -513 -158 118 -237 -118 -158 -79 -592 -632 -434 40 -592 -474 -513 39 -119 -236 -197 -79 -592 -277 0 -237 -355 -394 -40 -40 -276 -434 -158 -79 -158 237 -395 -276 -197 78 -316 316 39 592 -394 79 -119 -39 -197 316 -158 -79 -277 434 40 355 -158 -79 -434 -237 -158 40 -237 237 -79 395 316 355 -39 79 236 -158 237 79 119 1382 -750 315 197 40 316 158 118 237 -197 79 -829 157 -198 316 40 356 829 -198 197 316 750 316 -39 237 197 237 0 592 356 197 355 592 355 40 158 -277 237 -79 711 -197 157 -355 79 -158 158 0 316 316 947 158 40 236 -434 593 -40 1184 -592 276 -276 119 0 39 -119 395 0 395 -158 315 277 -118 434 316 908 0 711 316 671 355 158 553 789 592 79 355 513 1026 434 198 -157 276 0 355 -237 119 -395 -198 -276 40 -198 158 -237 316 0 631 1461 -710 513 -158 671 -277 316 237 158 395 1026 1303 474 1224 277 473 236 316 356 1816 315 79 198 947 553 553 78 355 830 593 315 -198 553 987 1342 237 198 474 0 197 513 553 158 552 473 -118 316 -237 158 0 -355 -237 -316 -710 158 -513 434 -632 948 79 355 -79 316 -316 434 0 395 -355 513 158 276 39 395 -276 237 -119 -119 -631 -197 -513 316 -316 -119 -79 -157 -632 -40 -79 -434 79 -198 -158 -276 237 -632 -118 -236 39 -395 -355 -474 -632 -158 0 -197 -158 -40 -158 -355 40 -197 -237 -40 0 -237 -276 -158 118 -79 -39 -197 -514 40 -434 -356 -434 -79 -316 -355 -355 0 -316 276 -829 -434 -197 -237 -277 -39 -434 -79 -908 197 -513 -671 -592 -237 -158 40 -158 316 -395 0 -118 118 39 316 -316 79 -118 158 -434 0 -198 276 -513 276 79 356 -158 789 -316 79 -197 316 -158 0 40 434 315 198 -79 276 -118 79 0 750 -158 316 119 237 -79 276 158 237 -316 434 158 197 158 40 39 513 -237 592 40 237 -435 395 119 395 -119 473 -671 553 -79 39 -158 0 40 -473 -119 0 -394 -356 -79 40 -435 -158 -118 -197 79 -119 -553 -671 -158 158 -552 -632 -869 -355 -276 -592 -276 -118 -158 -277 158 -276 -158 -79 -40 -119 158 0 395 -355 -355 -237 -237 -750 158 -79 -40 -158 -197 -276 -434 -118 -237 -316 -316 39 -119 198 -197 39 -237 -237 -553 0 -118 -158 40 -118 -356 -276 -158 39 -118 -355 -197 -158 -79 -355 -237 39 -119 -118 -237 -40 -592 198 -237 -79 40 157 -158 119 -513 -40 -40 158 -513 -118 -118 -197 -356 -40 -79 -158 -236 276 -395 -197 -119 119 -236 -79 -514 79 -315 -198 -79 198 -158 0 -119 -79 -39 -316 -395 -40 -868 -394 -711 -119 -395 316 -276 -276 -434 -158 -356 -474 -592 -395 -592 0 -276 158 -119 237 -1105 355 -316 395 -355 237 -908 158 -277 197 -79 513 -710 790 -474 908 119 276 -40 553 -237 79 -987 -237 -236 79 -553 -948 -119 277 -473 355 -119 0 -197 -276 -158 158 -237 -79 -79 -592 -276 -158 0 -198 316 -316 0 -592 -356 237z"/>
      <path microregion="16003" id="1600600" class="municipy" fill="transparent" d="M111672 143751l79 -39 671 -553 119 -473 -119 -395 435 -395 -40 -237 237 -592 -39 -513 -158 -40 -158 -197 316 -434 -158 -237 79 -276 -119 -237 158 -316 0 -750 118 -79 79 -276 -315 -198 -40 -434 158 0 197 -316 316 -79 158 -789 -79 -356 513 -276 356 355 118 513 -158 158 0 277 119 118 750 79 276 1263 355 632 316 158 750 -40 632 672 197 355 119 750 631 395 0 118 632 1066 158 750 118 0 513 434 79 237 277 237 631 276 -79 237 435 316 236 316 0 395 356 39 316 -276 829 -40 276 277 513 118 198 237 276 79 39 1184 -79 395 -236 -79 0 79 197 237 -237 355 -237 -39 79 315 -158 119 -197 -79 -79 118 79 395 -553 39 -395 316 -197 632 632 -39 -198 355 0 197 158 79 355 -39 395 158 158 118 -39 237 2881 0 316 316 -750 315 -395 316 -118 198 197 197 0 513 750 1382 -1855 237 -1382 473 -197 -829 -947 -197 -751 395 -394 -355 -987 -277 -434 119 -632 -79 -592 -237 -869 0 -315 -119 -237 -513 -356 -118 -631 -513 -198 -790 -355 -789 -276 -40 -750 -395 -119 -158 40 -237 -1145 -276 -276 -197 -79 -948 -237 -236 -277 -435 -394 -276 -40 -79 158 -158 -316 -474 119 -276 -158 -237 -158 237 -198 -553 237 -237 0 -592 -118 -434 118 -197 158 0 -158 -514z"/>
      <path microregion="16003" id="1600154" class="municipy" fill="transparent" d="M62800 86747l355 -829 198 -158 513 -158 592 119 316 750 118 118 1106 40 473 158 593 -158 236 276 79 -197 158 0 79 -237 395 -237 -237 -987 119 -237 -158 -316 118 0 40 -237 473 -513 711 237 434 395 553 276 868 790 513 118 79 316 395 513 -79 276 79 316 -197 237 513 1303 513 671 513 197 0 -237 158 -39 198 197 118 395 119 0 394 395 356 237 197 -237 276 118 0 198 237 39 0 119 356 158 157 394 -197 158 276 40 277 592 315 39 40 -158 197 237 237 79 158 237 237 79 632 829 197 395 395 -40 0 -158 118 -39 79 276 434 316 119 198 -198 394 277 119 -198 197 0 316 356 0 -79 276 394 553 316 118 79 198 198 -40 158 237 0 119 -237 157 39 356 119 79 473 -40 79 553 119 79 237 -79 -79 434 355 474 -395 118 -118 237 -277 119 79 315 316 277 -39 118 434 277 -355 157 -158 198 158 197 -40 316 197 237 79 592 237 79 -197 829 158 -158 237 79 118 355 -79 198 316 39 118 119 -434 592 158 473 -79 40 -79 -158 -237 513 79 79 198 -118 631 671 -39 316 -434 631 39 277 -474 237 40 394 -119 395 -197 119 -276 513 1105 197 237 -158 197 79 40 316 -198 276 237 -39 948 750 197 79 158 197 -197 40 197 237 316 39 237 237 78 -197 158 0 -39 315 -158 198 434 276 198 -79 316 158 -316 513 39 316 316 118 -158 277 197 552 198 119 237 -158 276 -39 237 276 158 -79 434 158 39 552 435 356 632 1303 236 118 356 -40 434 277 750 -40 434 -394 355 118 79 197 -236 316 118 316 -316 197 79 316 316 0 0 434 79 198 671 -198 395 0 -40 514 632 -316 592 237 513 394 395 -473 513 -158 356 0 513 237 829 -40 197 474 -158 316 -39 631 -237 119 -237 395 79 315 -158 395 40 395 315 395 -315 118 -316 434 276 395 790 395 394 -119 198 -394 395 434 631 158 316 316 395 -316 355 -79 355 -948 -79 -394 356 -356 -40 -355 355 -632 2330 -710 158 -434 434 -237 315 39 119 119 355 -79 158 -711 395 79 -40 237 237 158 79 434 -355 158 -434 -40 79 277 -316 158 39 197 -79 119 -592 394 -316 -39 -78 316 276 197 -237 395 79 158 434 158 40 276 394 40 237 355 277 0 79 592 236 197 -39 119 474 513 -40 592 632 434 79 592 118 158 -118 237 513 158 355 474 158 513 237 276 237 711 -40 276 -473 356 -79 394 -198 198 40 237 158 276 -474 908 -592 237 -119 -237 237 -948 -79 -197 -394 -118 -553 473 -158 0 -395 -473 79 -592 -158 -435 -394 79 -395 316 -553 40 -316 276 -829 -1145 -237 237 -394 79 -790 -79 -276 158 -750 -119 -356 198 -631 -119 -1224 119 0 118 -434 198 -513 434 -711 237 -632 39 -39 -395 -355 -39 -237 474 118 394 -316 237 0 237 -158 40 -315 -237 -198 0 -197 158 -198 -158 -552 -158 -79 118 -158 119 -276 -79 78 158 -236 237 -40 355 -434 592 -395 118 -513 -197 -316 197 -276 593 -355 394 -79 632 -435 631 0 198 -671 592 -592 118 -158 751 -237 236 0 198 -276 395 -671 355 39 276 -552 -513 -356 -79 -355 -553 79 -552 -316 -40 -118 -197 79 -237 -553 -197 -158 -198 -39 -473 118 -790 -789 -671 -751 -158 -197 -276 -118 -711 -316 -395 -40 -513 -276 -237 -434 -118 -119 -158 0 -119 277 -276 -79 -434 -158 -198 -434 -157 -158 -316 -316 -158 -434 -750 -750 -158 -277 -434 -197 -119 -869 119 -158 -79 -118 -632 -474 -474 -394 -39 -435 -395 -237 -592 158 -790 -79 -158 -394 277 -158 -79 -632 118 -750 -39 -513 355 -316 -39 -276 -316 -40 -197 276 -790 -434 -158 -355 -513 -355 -79 -198 -237 -276 197 -355 40 -277 158 -236 -79 -40 -276 -118 -237 -237 -119 -79 -316 434 -829 0 -868 -197 -79 -277 276 -237 -39 -671 -513 -355 -908 197 -553 -236 -947 -435 -356 40 -987 -119 -237 -631 -276 -750 -750 -632 -158 -197 -158 -356 -2526 474 -1816 158 -158 671 39 119 -197 39 -474 -118 -473 118 -593 355 -631 79 -711 790 -1026 434 -1263 276 -435 -79 -789 277 -1619 -198 -710 -315 -395 -593 -276 -789 -119 -513 158 -514 0 -434 -118 -355 -395 -197 -711 -277 -513 -158 -632 79 -868 316 -1145 395 -434 0 -316 -316 -632 -276 -789 -435 -198 -197 -315 -158 -593 119 -434 355 -237 118 -394 -552 -672 -435 -315 -79 -829 -473 -750 -40 -316 -316 -198 -236 -671 39 -434z"/>
      <path microregion="16003" id="1600055" class="municipy" fill="transparent" d="M69077 84181l276 -513 158 0 316 197 237 -79 276 -513 -79 -197 119 -277 -316 0 -40 -79 79 -315 237 -158 553 -40 513 434 355 -157 395 118 197 -158 277 0 79 316 947 -158 434 316 553 -119 237 119 355 -198 79 119 -158 395 474 -119 395 395 197 -237 198 40 315 592 592 276 237 474 356 39 197 198 158 -79 -119 -316 593 -119 276 79 237 -197 197 434 237 -158 355 -39 119 -237 276 -158 355 -39 395 -435 474 119 434 -40 237 119 237 -40 0 -197 592 -79 395 316 316 -79 197 276 158 -197 -197 -711 78 -631 -157 -119 39 -276 118 -158 356 -237 237 0 710 -632 237 -39 276 -711 277 79 237 -434 197 -79 513 -118 513 158 395 -158 513 39 751 -355 276 -750 237 0 473 237 79 -40 -79 -197 -276 -356 -434 40 -119 -237 158 -592 -197 -513 395 -277 197 -473 197 0 316 158 316 -198 316 198 197 -632 316 79 0 -79 -118 -395 276 -395 513 158 316 -158 -39 -552 631 -355 276 -672 158 -118 -158 -671 158 -276 237 -40 -237 -316 198 -237 592 79 118 -355 632 513 434 79 277 -355 197 -1184 789 118 158 -79 -79 316 -276 0 -474 197 -118 553 158 237 39 276 -118 119 118 276 40 1145 -198 276 0 316 -315 710 -198 158 -197 435 0 631 631 474 316 592 -118 671 -119 79 119 632 79 1184 118 0 0 237 119 158 39 750 671 987 -118 355 79 434 237 237 -79 356 276 315 -316 632 79 237 -197 197 0 277 -356 434 198 118 -276 474 118 1579 -355 316 -158 710 -316 158 -40 198 -315 158 -316 473 158 -39 158 276 39 908 -79 158 79 276 -197 474 118 79 79 -39 -39 355 158 276 -237 671 118 198 -79 197 198 553 -40 395 -158 355 79 631 237 198 -79 355 40 237 355 158 118 474 237 0 119 355 -79 592 -277 790 -276 197 39 276 -79 198 158 434 -79 276 40 948 276 118 0 237 316 237 -237 434 -355 119 -40 197 316 39 158 198 -39 118 -198 40 0 197 -276 40 39 158 -158 197 119 592 197 237 -276 316 237 118 0 237 158 276 908 632 -158 355 39 592 -158 356 79 158 395 39 316 158 118 0 158 237 -158 789 -473 198 0 197 -119 119 237 552 -79 829 316 79 79 -79 118 158 -671 513 -158 790 198 276 473 79 40 119 -276 236 78 198 435 118 -513 316 78 355 395 198 -158 395 158 315 0 593 -197 513 237 237 -316 394 118 198 1027 -198 79 198 394 395 316 -277 198 40 79 -237 -158 -79 -79 -158 237 -276 355 158 -79 276 276 355 277 119 276 -395 197 79 -118 434 395 158 197 -158 276 158 79 276 474 -434 197 197 0 356 237 394 395 198 119 710 -80 237 -315 -39 -434 237 -158 434 -2330 710 -355 632 40 355 -356 356 79 394 -355 948 -355 79 -395 316 -316 -316 -631 -158 -395 -434 -198 394 -394 119 -790 -395 -276 -395 316 -434 315 -118 -315 -395 -40 -395 158 -395 -79 -315 237 -395 237 -119 39 -631 158 -316 -197 -474 -829 40 -513 -237 -356 0 -513 158 -395 473 -513 -394 -592 -237 -632 316 40 -514 -395 0 -671 198 -79 -198 0 -434 -316 0 -79 -316 316 -197 -118 -316 236 -316 -79 -197 -355 -118 -434 394 -750 40 -434 -277 -356 40 -236 -118 -632 -1303 -435 -356 -39 -552 -434 -158 -158 79 -237 -276 -276 39 -237 158 -198 -119 -197 -552 158 -277 -316 -118 -39 -316 316 -513 -316 -158 -198 79 -434 -276 158 -198 39 -315 -158 0 -78 197 -237 -237 -316 -39 -197 -237 197 -40 -158 -197 -197 -79 -948 -750 -237 39 198 -276 -40 -316 -197 -79 -237 158 -1105 -197 276 -513 197 -119 119 -395 -40 -394 474 -237 -39 -277 434 -631 39 -316 -631 -671 -198 118 -79 -79 237 -513 79 158 79 -40 -158 -473 434 -592 -118 -119 -316 -39 79 -198 -118 -355 -237 -79 -158 158 197 -829 -237 -79 -79 -592 -197 -237 40 -316 -158 -197 158 -198 355 -157 -434 -277 39 -118 -316 -277 -79 -315 277 -119 118 -237 395 -118 -355 -474 79 -434 -237 79 -119 -79 -79 -553 -473 40 -119 -79 -39 -356 237 -157 0 -119 -158 -237 -198 40 -79 -198 -316 -118 -394 -553 79 -276 -356 0 0 -316 198 -197 -277 -119 198 -394 -119 -198 -434 -316 -79 -276 -118 39 0 158 -395 40 -197 -395 -632 -829 -237 -79 -158 -237 -237 -79 -197 -237 -40 158 -315 -39 -277 -592 -276 -40 197 -158 -157 -394 -356 -158 0 -119 -237 -39 0 -198 -276 -118 -197 237 -356 -237 -394 -395 -119 0 -118 -395 -198 -197 -158 39 0 237 -513 -197 -513 -671 -513 -1303 197 -237 -79 -316 79 -276 -395 -513 -79 -316 -513 -118 -868 -790 -553 -276 -434 -395z"/>
      <path microregion="16001" id="1600204" class="municipy" fill="transparent" d="M97105 70601l198 -79 197 197 316 119 39 158 -157 118 -40 -118 -118 158 237 473 394 -315 869 237 237 986 315 0 79 237 119 40 237 -198 79 277 315 394 632 -39 119 395 197 158 671 -277 118 -355 356 -237 -119 -513 -276 -158 39 -237 514 -39 868 750 474 -119 158 -355 158 -39 473 315 356 -39 355 -355 276 -435 -39 -237 197 -197 -39 -237 592 -276 316 -592 197 -40 395 -473 434 -711 158 -395 -197 -39 79 -474 197 -355 79 -119 237 40 118 -198 395 -39 316 -355 39 -474 119 -40 39 -236 -158 -356 -158 -79 474 -671 79 -513 316 -79 39 -355 316 -198 316 -434 237 -118 -40 -277 237 -394 316 -79 118 -316 277 -316 158 79 39 -197 237 -119 79 -552 197 -158 40 -356 237 -394 355 -356 39 -276 198 -197 -119 -158 395 -79 -158 -277 198 -237 0 -276 -237 -671 158 40 79 -119 1105 -395 118 -236 119 -40 -40 -237 553 -197 -395 -158 198 -276 315 118 316 -158 -39 -158 316 -197 -119 -356 79 -315 158 0 316 -277 -277 -315 79 -158 -276 -79 -79 -198 513 -276 79 -355 711 -869 -118 -276 513 -553 -79 -237 -158 79 -79 -118 0 -198 197 -39 158 -158 671 237 -39 -237 -356 -158 672 -671 671 -118 513 -316 -40 -198 158 -236 435 276 39 -198 316 -157 276 -474 -118 -908 671 158 395 -119 473 -473 158 -316 316 -198 79 -276 -513 276 -198 -276 119 -237 -237 -237 197 -197 -236 -355 473 -553 -118 -237 79 -39 276 276 0 355 316 -158 79 -236 -198 -237 553 -277 513 -118 198 -237 118 -1184 316 -711 39 -1500 -197 -434 0 -553 -237 -1026 -316 -158 0 -1027 237 -1105 119 -2290 -198 -2881 -276 -1303 237 -1895 434 -1579 355 -5408 1422 868 947 0 395 355 -40 40 79 197 198 40 0 1303 -158 631 0 1579 -158 395 79 355 -119 395 40 553 -158 316 -40 1421 277 1539 355 4659 -237 1065 -158 0 -197 198 -40 197 119 1816 2132 6079 -119 751 -276 315 79 632 -119 632 237 671 711 750 0 474 -198 434 -79 671 316 434 158 474 395 474 118 947 -79 474 198 789 316 356 315 671 593 710 78 987 -197 592 197 711 0 355 514 -158 592 237 197 237 79 276 -197 395 79 592 395 119 315 355 -39 1816 474 237 513 631 79 514 316 197 0 1224 -158 237 79 0 39 276 237 355 118 1382 -197 829 -513 118 -40 435 79 158 40 -277 197 -118 276 197 751 -553 355 40 395 237 236 434 0 355 514 632 118 316 40 631 -237 553 316 474 157 552 -118 474 355 276 158 435 40 1105 315 355 356 790 -79 632 79 671 158 -40 315 237 474 750 276 632 119 513 -79 632 -158 197 -434 118 0 198 -474 158 -395 -356 -315 -39 -119 710 -158 158 -158 0 -908 -908 -39 -315 -276 -79 0 -356 -237 40 -158 -237 -474 -40 -118 40 118 158 -553 158 119 395 -316 39 -197 474 -593 -79 277 -513 -513 276 -79 -316 236 -237 -315 0 -237 -118 -79 316 -237 -40 -316 237 -552 158 -277 -395 0 -237 -118 79 -40 198 -316 79 -315 -198 -40 -237 -513 237 118 -276 -79 -40 -276 198 -118 -79 -277 316 0 355 -118 158 -395 -158 0 -276 -158 79 -710 -356 -316 119 -316 -316 -316 39 -197 -197 -237 118 -316 -236 -434 197 -79 316 -868 39 -474 434 -948 -39 -394 434 -316 40 -513 355 -79 197 -514 40 -315 -237 -237 237 -119 395 -237 -40 -79 119 79 118 -39 79 -1342 711 -395 355 -434 79 -158 276 -711 474 -118 316 -316 39 -711 355 -631 -79 -553 -750 -355 -118 -198 -237 -197 -39 -434 -277 -592 356 -158 197 79 237 -277 316 -631 237 -316 -119 -711 -434 -1460 -2448 -237 198 -198 434 79 158 -79 355 -473 474 -119 553 395 947 -710 276 -632 553 -474 79 -39 868 -474 553 79 316 513 710 -197 948 39 434 -237 513 -237 1066 -631 790 -237 631 -158 1224 -395 553 -39 553 158 315 -237 592 79 395 -158 119 -79 829 -237 316 40 552 -474 671 39 119 -237 197 -355 40 -394 276 -80 237 -197 -79 -316 79 -434 868 -237 316 -671 395 -592 829 -434 237 -237 631 -237 198 -79 789 -197 40 -158 355 -237 40 0 197 -316 158 119 79 -474 276 -119 -79 -39 356 -474 315 -868 -315 -158 394 -277 79 79 158 -118 40 -118 355 78 197 -118 869 -592 434 -316 -158 -395 -39 -79 -158 158 -356 -39 -592 158 -355 -908 -632 -158 -276 0 -237 -237 -118 276 -316 -197 -237 -119 -592 158 -197 -39 -158 276 -40 0 -197 198 -40 39 -118 -158 -198 -316 -39 40 -197 355 -119 237 -434 -316 -237 0 -237 -276 -118 -40 -948 79 -276 -158 -434 79 -198 -39 -276 276 -197 277 -790 79 -592 -119 -355 -237 0 -118 -474 -355 -158 -40 -237 79 -355 -237 -198 -79 -631 158 -355 40 -395 -198 -553 79 -197 -118 -198 237 -671 -158 -276 39 -355 -79 39 -118 -79 197 -474 -79 -276 79 -158 -39 -908 -158 -276 -158 39 316 -473 315 -158 40 -198 316 -158 158 -710 355 -316 -118 -1579 276 -474 -198 -118 356 -434 0 -277 197 -197 -79 -237 316 -632 -276 -315 79 -356 -237 -237 -79 -434 118 -355 -671 -987 -39 -750 -119 -158 0 -237 -118 0 -79 -1184 -119 -632 119 -79 118 -671 -316 -592 -631 -474 0 -631 197 -435 198 -158 315 -710 0 -316 198 -276 -40 -1145 -118 -276 118 -119 -39 -276 -158 -237 118 -553 474 -197 276 0 79 -316z"/>
      <path microregion="16001" id="1600501" class="municipy" fill="transparent" d="M55536 78852l79 -40 -39 -158 395 119 276 -119 79 -158 276 -39 119 -316 315 79 158 276 277 119 79 -79 79 79 236 -198 751 0 315 -157 1224 -237 1303 -79 632 118 434 316 473 632 395 276 1066 118 790 395 1302 -355 237 -513 -79 -198 119 -79 197 119 158 -119 355 79 277 158 79 -237 394 -552 0 -158 237 -158 -118 -513 395 -119 157 -631 553 -79 79 -237 -158 -356 513 0 119 -39 -79 -276 158 39 1184 -395 434 -355 158 40 119 -237 118 118 237 -237 79 79 671 -316 197 -197 158 79 553 -197 0 -277 1816 -1263 -40 -79 158 -355 -79 -316 592 -553 0 -473 277 -277 197 -118 40 79 434 -40 276 -197 -316 -355 119 -395 789 79 40 -711 671 -592 355 -79 79 -395 -158 0 -197 -592 434 -395 316 79 0 -237 118 -315 316 -198 -276 -592 -553 -395 198 -394 -395 -474 276 -474 237 -79 316 119 316 -1066 394 -474 316 -908 513 -789 40 -158 -119 -158 237 -277 -79 -434 198 -474 631 -1065 237 -632 790 -1461 552 -276 277 118 197 -79 434 -552 40 -158 -355 39 -79 -237 -198 -118 198 -355 -119 -158 237 -119 198 -315 355 -987 39 -435 158 -197 119 -632 315 -197 395 -947 474 -790 -592 -671 0 -316 237 -355 -40 -79 -316 0 -118 -158 118 -316 237 79 158 -118 -79 -316 237 -316 39 -434 474 -158 395 39 -119 -947 395 -474 158 -513 435 -118 355 -237 79 -277 158 -118 276 118 237 395 355 -118 1105 -1619 316 -237 0 -434 987 -1303 237 -592 1382 -2645 473 -434 158 -790 316 -197 316 -355 -39 -434 473 -119 1224 -2250 671 -671 277 -474 236 -1618 119 -277 158 -39 276 -1145 474 -395 789 158 158 -79 237 -592 -237 -829 158 -355 592 -277 158 -236 355 -40 474 -237 987 -1303 592 -276 237 -474 592 -394 513 -829 237 -593 79 -1065 711 -1027 316 -237 1223 -197 395 -276 395 -514 632 -118 631 -513 119 -592 -40 -395 277 -434 552 -1816 474 -829 316 -790 -79 -1263 197 -158 198 -908 394 -2684 671 -2329 119 -316 316 -198 868 -197 434 316 356 118 1223 1105 829 514 2685 2605 3079 3395 40 198 671 868 118 513 553 671 671 1974 0 237 158 197 118 1382 158 711 40 868 -119 513 434 277 -355 5408 -434 1579 -237 1895 276 1303 198 2881 -119 2290 -237 1105 0 1027 316 158 237 1026 0 553 197 434 -39 1500 -316 711 -118 1184 -198 237 -513 118 -553 277 198 237 -79 236 -316 158 0 -355 -276 -276 -79 39 118 237 -473 553 236 355 -197 197 237 237 -119 237 198 276 513 -276 -79 276 -316 198 -158 316 -473 473 -395 119 -671 -158 118 908 -276 474 -316 157 -39 198 -435 -276 -158 236 40 198 -513 316 -671 118 -672 671 356 158 39 237 -671 -237 -158 158 -197 39 0 198 79 118 158 -79 79 237 -513 553 118 276 -711 869 -79 355 -513 276 79 198 276 79 -79 158 277 315 -316 277 -158 0 -79 315 119 356 -316 197 39 158 -316 158 -315 -118 -198 276 395 158 -553 197 40 237 -119 40 -118 236 -1105 395 -79 119 -158 -40 237 671 0 276 -198 237 158 277 -395 79 119 158 -198 197 -39 276 -355 356 -237 394 -40 356 -197 158 -79 552 -237 119 -39 197 -158 -79 -277 316 -118 316 -316 79 -237 394 40 277 -237 118 -316 434 -316 198 -39 355 -316 79 -79 513 -474 671 158 79 158 356 -39 236 -119 40 -39 474 -316 355 -395 39 -118 198 -237 -40 -79 119 -197 355 -79 474 197 39 -158 395 -434 711 -395 473 -197 40 -316 592 -592 276 39 237 -197 197 39 237 -276 435 -355 355 -356 39 -473 -315 -158 39 -158 355 -474 119 -868 -750 -514 39 -39 237 276 158 119 513 -356 237 -118 355 -671 277 -197 -158 -119 -395 -632 39 -315 -394 -79 -277 -237 198 -119 -40 -79 -237 -315 0 -237 -986 -869 -237 -394 315 -237 -473 118 -158 40 118 157 -118 -39 -158 -316 -119 -197 -197 -198 79 -158 79 -789 -118 -197 1184 -277 355 -434 -79 -632 -513 -118 355 -592 -79 -198 237 237 316 -237 40 -158 276 158 671 -158 118 -276 672 -631 355 39 552 -316 158 -513 -158 -276 395 118 395 0 79 -316 -79 -197 632 -316 -198 -316 198 -316 -158 -197 0 -197 473 -395 277 197 513 -158 592 119 237 434 -40 276 356 79 197 -79 40 -473 -237 -237 0 -276 750 -751 355 -513 -39 -395 158 -513 -158 -513 118 -197 79 -237 434 -277 -79 -276 711 -237 39 -710 632 -237 0 -356 237 -118 158 -39 276 157 119 -78 631 197 711 -158 197 -197 -276 -316 79 -395 -316 -592 79 0 197 -237 40 -237 -119 -434 40 -474 -119 -395 435 -355 39 -276 158 -119 237 -355 39 -237 158 -197 -434 -237 197 -276 -79 -593 119 119 316 -158 79 -197 -198 -356 -39 -237 -474 -592 -276 -315 -592 -198 -40 -197 237 -395 -395 -474 119 158 -395 -79 -119 -355 198 -237 -119 -553 119 -434 -316 -947 158 -79 -316 -277 0 -197 158 -395 -118 -355 157 -513 -434 -553 40 -237 158 -79 315 40 79 316 0 -119 277 79 197 -276 513 -237 79 -316 -197 -158 0 -276 513 -711 -237 -473 513 -40 237 -118 0 158 316 -119 237 237 987 -395 237 -79 237 -158 0 -79 197 -236 -276 -593 158 -473 -158 -1106 -40 -118 -118 -316 -750 -592 -119 -513 158 -198 158 -355 829 -276 118 -237 -39 -553 -1026 -631 -158 -119 -158 -79 -711 -552 -395 -198 -1579 119 -829 -119 -315 -908 -316 -355 -316 -474 -158 -355 -276 -632 -119 -829 -473 -750 -632 -316 -513z"/>
      <path microregion="16002" id="1600709" class="municipy" fill="transparent" d="M117989 107315l-40 -711 158 -790 -118 -79 -40 -157 395 -119 39 -197 -197 -277 118 -394 356 -40 158 -158 0 -473 -158 -79 -119 39 79 -395 -237 -395 40 -157 -395 118 -197 -197 0 -237 -237 -198 39 -513 -197 -276 -198 -40 -197 -236 119 -119 -158 -355 -790 -198 40 -315 -119 -119 158 -395 -158 -473 40 -356 -237 -394 -198 -119 790 -671 79 -987 553 -158 1263 -829 1776 -750 395 197 1540 237 710 869 632 158 237 -79 118 395 158 236 237 0 197 -236 553 197 158 158 79 553 355 236 434 -197 198 197 355 79 276 -118 316 158 474 39 434 -316 276 40 435 -276 434 -553 513 -513 276 197 158 316 -158 237 119 197 -119 355 316 0 79 237 277 0 197 -237 276 395 790 -118 750 -513 316 118 118 276 395 632 316 118 316 -39 907 -355 9988 3987 4145 7737 513 435 119 868 -277 276 277 356 -1185 1105 -118 237 -39 474 157 710 -118 553 -671 947 -1263 829 -277 0 -118 -158 -79 -829 -592 -710 -237 79 -276 355 -435 197 -355 -592 -355 -118 -869 237 -355 473 79 474 395 632 -119 355 -316 119 -513 0 -276 -158 -276 -514 -316 -315 -395 -119 -987 592 -789 -118 -1540 355 -316 158 -158 276 -158 474 158 711 -513 473 -1105 237 -356 -79 -315 -316 -158 -671 -316 -236 -1342 158 -435 -119 -592 395 -631 79 -237 237 79 552 -316 277 -118 355 -79 -40 0 -236 -198 -158 0 79 -118 -40 -119 -237 79 -39 40 -158 -237 -40 79 -197 -316 -355 237 -355 -592 -119 79 -474 -514 -158 -236 -276 -356 0 -434 -197 -711 158 -710 315 -158 0 -711 -671 -315 40 -632 -198 -197 40 -40 158 -158 79 -552 1066 -435 276 -394 513 -40 395 -237 197 -79 40 -197 -395 -119 -434 -276 158 -513 -40 -237 -118 -316 118 -592 -316 -789 158 -395 -39 -198 553 -355 157 -158 356 -158 39 -276 -197 -237 -474 -474 -316 -197 -355 -316 -237 -39 -553 394 -1342 -78 -158 -593 -237 -1144 -197 -632 -592 395 -632 355 -197 158 39 197 -513 -118 -158 237 -394 -40 -277 119 -395 0 -789 355 -198 0 -394 -158 -277 -79 -868 -237 -198 395 -157 0 -158 237 -40 118 -276 513 -158 198 40 197 -158 40 -158 -158 -158 237 -395 237 -868z"/>
      <path microregion="16002" id="1600105" class="municipy" fill="transparent" d="M109264 89076l-39 -434 197 -948 -513 -710 -79 -316 474 -553 39 -868 474 -79 632 -553 710 -276 -395 -947 119 -553 473 -474 79 -355 -79 -158 198 -434 237 -198 1460 2448 711 434 316 119 631 -237 277 -316 -79 -237 158 -197 592 -356 434 277 197 39 198 237 355 118 553 750 631 79 711 -355 316 -39 118 -316 711 -474 158 -276 434 -79 395 -355 1342 -711 39 -79 -79 -118 79 -119 237 40 119 -395 237 -237 315 237 514 -40 79 -197 513 -355 316 -40 394 -434 948 39 474 -434 868 -39 79 -316 434 -197 316 236 237 -118 197 197 316 -39 316 316 316 -119 710 356 158 -79 0 276 395 158 118 -158 0 -355 277 -316 118 79 276 -198 79 40 -118 276 513 -237 40 237 315 198 316 -79 40 -198 118 -79 0 237 277 395 552 -158 316 -237 237 40 79 -316 237 118 315 0 -236 237 79 316 513 -276 -277 513 593 79 197 -474 316 -39 -119 -395 553 -158 -118 -158 118 -40 474 40 158 237 237 -40 0 356 276 79 39 315 908 908 158 0 158 -158 119 -710 315 39 395 356 474 -158 1184 -395 2842 -1263 1895 -632 1224 158 948 -39 355 157 79 316 158 -118 513 474 355 671 869 1105 0 197 237 119 197 474 197 0 474 473 79 316 -197 395 197 118 118 277 -39 79 316 513 118 513 553 395 158 987 197 237 198 394 907 2329 1145 2803 2250 -395 2093 751 473 39 1185 553 710 118 3711 2211 198 276 78 237 -118 355 -197 79 473 158 356 1263 276 3001 434 1974 -79 552 40 434 -237 1579 79 395 -474 1935 -474 1144 158 751 -1618 1223 -948 474 -2763 474 -1224 39 -750 -237 -237 -236 -79 -356 277 -2408 -79 -592 -198 -237 -276 -118 -711 197 -1500 -158 -1223 237 -790 395 -474 552 -276 1027 158 513 474 711 79 671 -395 750 -434 434 -948 434 -513 40 -671 -119 -711 -710 -947 158 -277 -356 277 -276 -119 -868 -513 -435 -4145 -7737 79 -316 711 -276 39 -237 -237 -158 0 -118 474 -277 -316 -316 -79 -197 119 -592 -198 -711 119 -710 -316 -514 39 -394 -197 -277 118 -671 -79 -118 -276 39 -237 -118 -395 -829 -39 -277 237 -236 197 -553 -552 -711 -435 0 -39 -276 -355 158 -198 -197 79 -672 -632 -1065 -118 -593 -197 -315 39 -237 -1697 -40 -316 119 -316 355 -355 39 -750 -513 -474 158 -118 -316 -277 -118 -118 316 237 237 -40 157 -316 79 -79 356 79 395 -276 -158 -237 276 -197 0 -198 237 -158 0 40 -237 316 -79 39 -197 -552 -514 -79 119 -514 -277 -157 40 -198 -316 -276 -39 -79 -119 -119 79 -276 -79 -276 237 -198 -158 -908 158 -513 -237 -671 79 -711 -355 -789 0 -395 -395 -276 0 -750 -592 -276 197 -395 -158 -277 356 -276 39 -276 -118 -593 237 -78 158 -277 -79 -197 158 -79 -316 -592 -316 -119 -276 -394 -119 -79 -276 -474 -237 -474 0 -474 316 -473 -237 -829 513 -356 -355 -789 -395 -474 79 -395 395 -197 316 197 236 -671 0 -513 356 -158 -79 -197 39 -553 277 -197 -119 -198 40 -39 158 197 118 40 553 -79 276 -395 355 -39 356 -751 355 -513 592 -276 -79 -237 158 -158 237 -197 39 -40 -631 -631 -553 -513 -671 -790 -632 -474 -237 -355 -434 -1026 -158 -356 -355 -237 -40 -197 -394 -237 -158 -395 79 -671 -40 -671 237z"/>
      <path microregion="16003" id="1600212" class="municipy" fill="transparent" d="M134292 124566l-986 -158 -1145 -869 0 -947 158 -474 394 -552 356 -158 118 39 276 -395 79 -671 -315 -473 197 -593 118 -237 356 -197 434 -710 316 236 158 671 315 316 356 79 1105 -237 513 -473 -158 -711 158 -474 158 -276 316 -158 1540 -355 789 118 987 -592 395 119 316 315 276 514 276 158 513 0 316 -119 119 -355 -395 -632 -79 -474 355 -473 869 -237 355 118 355 592 435 -197 276 -355 237 -79 592 710 79 829 118 158 277 0 1263 -829 671 -947 118 -553 -157 -710 39 -474 118 -237 1185 -1105 947 -158 711 710 671 119 513 -40 948 -434 434 -434 395 -750 -79 -671 -474 -711 -158 -513 276 -1027 474 -552 790 -395 1223 -237 1500 158 711 -197 276 118 198 237 79 592 -277 2408 79 356 237 236 750 237 1224 -39 -118 631 -277 119 -118 158 118 316 -197 394 -316 237 -316 395 -355 0 -474 276 -158 158 -79 592 -197 237 -908 119 -592 1066 118 513 -4066 3513 -434 79 -474 592 -592 -316 -118 -197 -237 118 39 198 -276 197 -355 40 -40 -277 -631 237 -395 -434 39 -276 -316 -237 -236 158 -237 710 -198 -79 -631 395 -435 -276 -631 39 -198 198 158 237 -118 236 -434 356 -40 237 -237 315 -237 79 -78 237 -435 -158 -158 40 -79 158 -118 0 -395 -277 40 -237 -277 -39 40 316 -158 316 -197 157 -158 0 -198 -157 119 -119 -158 -553 -237 -276 -197 40 78 78 -78 80 118 78 -79 632 -118 0 -40 -158 -355 -79 -237 237 -158 0 0 -513 -39 237 -237 -158 -40 118 -276 79 -197 711 0 237 -435 197 -631 474 -474 197 -869 -39 -394 -237 -553 79 -355 -158 -395 -434 -395 -277 -671 514 -513 315 -513 119 -750 513 -514 158z"/>
      <path microregion="16003" id="1600253" class="municipy" fill="transparent" d="M133384 132619l-276 -39 -316 -395 198 -158 -79 -632 -277 -671 0 -474 -79 -197 -157 -39 -119 -356 -276 -118 -237 -474 -237 -158 750 0 316 -473 789 236 1422 -2487 552 79 474 158 316 395 158 355 276 198 158 197 276 79 474 553 118 355 237 79 79 276 -197 40 316 237 -40 79 277 118 79 197 157 40 158 316 198 -40 355 158 158 -158 355 119 474 1184 197 -276 316 39 158 -237 -79 -237 237 -39 158 39 0 395 118 197 237 79 -39 277 158 276 355 -237 0 -158 -158 -79 276 -276 0 -276 356 -119 236 -276 -39 -592 158 -671 -119 -553 119 -118 197 -40 79 -237 0 -158 -237 -39 158 -1421 119 -158 315 -40 356 237 474 119 -40 276 118 39 395 -473 -39 -198 -158 79 -40 -197 198 -276 -119 -40 40 -158 474 158 394 -39 435 197 118 197 39 -79 277 119 39 -198 119 237 197 -79 395 119 0 158 -277 197 632 276 158 0 0 237 790 -79 -40 356 671 789 -39 592 -158 356 1105 1144 -868 750 -553 987 -474 1303 -316 1619 -315 750 -593 789 -631 2053 -513 908 -553 1263 -790 1224 -631 671 -790 592 -710 750 -2132 -2210 0 -198 -237 119 -237 -671 -118 -79 -119 158 0 -277 277 -118 0 -316 158 -158 237 158 197 -158 158 79 237 -513 -198 -119 79 -394 158 -40 -237 -355 -158 39 -197 -197 -395 -40 -79 158 -197 -79 237 -315 355 -198 276 0 277 -474 -277 79 -39 -157 237 -79 -237 -158 -79 158 -474 -119 277 -434 -198 39 277 -197 -198 -79 -79 118 -158 0 40 -473 -356 118 -78 -158 118 -237 -118 40 0 -119 -316 -197 79 -355 -119 -79 -197 -40 -40 158 -197 -39 -237 -474 0 -355 198 -119 -40 -158 -316 0 0 -236 -118 -158 39 -395 -158 -118 -39 -198 -434 0 -277 316 -158 -79 -355 158 -316 0 -39 -316 -355 -395 -790 -39 -40 -198 158 -236 -750 -474 -513 39 -355 158 -198 316z"/>
      <path microregion="16003" id="1600303" class="municipy" fill="transparent" d="M114080 135264l198 -276 434 0 118 -158 316 -79 -39 -316 118 -118 395 0 158 -316 158 -40 592 237 513 671 908 -197 434 79 277 39 197 237 829 434 316 -276 355 0 316 355 434 79 434 356 514 -40 39 197 -118 79 276 158 0 237 237 40 -40 197 158 355 158 40 0 197 632 158 355 474 -39 395 118 236 -237 632 158 276 -79 198 79 434 632 40 79 157 316 119 513 -316 631 197 119 119 276 -237 -39 -395 -158 -276 355 -513 0 -395 316 -434 79 -316 -79 -355 632 -948 513 -434 710 -158 237 316 0 355 237 -158 276 -158 277 40 -79 -908 552 -40 119 -710 355 -513 592 39 513 -79 869 79 355 -276 0 -277 -829 -434 -39 -276 -237 79 -198 -237 40 -119 -158 0 -197 -315 -237 39 -158 -553 -276 -276 0 -355 276 -316 39 -434 -197 -790 -118 -158 197 -868 237 -237 39 -276 158 -237 2250 -948 277 -394 -356 -711 0 -237 356 -513 473 316 0 -987 514 -158 750 -513 513 -119 513 -315 671 -514 395 277 395 434 355 158 553 -79 394 237 869 39 474 -197 631 -474 435 -197 0 -237 197 -711 276 -79 40 -118 237 158 39 -237 0 513 158 0 237 -237 355 79 40 158 118 0 79 -632 -118 -78 78 -80 -78 -78 197 -40 237 276 158 553 -119 119 198 157 158 0 197 -157 158 -316 -40 -316 277 39 -40 237 395 277 118 0 79 -158 158 -40 435 158 78 -237 237 -79 237 -315 40 -237 434 -356 118 -236 -158 -237 198 -198 631 -39 435 276 631 -395 198 79 237 -710 236 -158 316 237 -39 276 395 434 631 -237 40 277 355 -40 276 -197 -39 -198 237 -118 118 197 592 316 474 -592 434 -79 4066 -3513 -118 -513 592 -1066 908 -119 197 -237 79 -592 158 -158 474 -276 355 0 316 -395 316 -237 197 -394 -118 -316 118 -158 277 -119 118 -631 2763 -474 948 -474 1618 -1223 237 1381 198 592 -40 711 -632 1224 -157 631 -593 750 -236 40 -79 158 118 158 -237 2092 198 237 79 750 0 513 -158 355 -829 790 -198 0 -631 1026 -198 632 -750 1303 -592 434 -39 158 -237 0 -119 -119 40 277 -158 237 158 118 -277 316 237 158 40 513 -119 79 -276 -198 -158 316 40 237 -395 79 -158 198 -237 78 -39 2606 -2093 -79 -1342 118 -3829 790 -1066 355 -2053 1421 -1105 -1144 158 -356 39 -592 -671 -789 40 -356 -790 79 0 -237 -158 0 -632 -276 277 -197 0 -158 -395 -119 -197 79 -119 -237 -39 198 -277 -119 -39 79 -118 -197 -435 -197 -394 39 -474 -158 -40 158 119 40 -198 276 40 197 158 -79 39 198 -395 473 -118 -39 40 -276 -474 -119 -356 -237 -315 40 -119 158 -158 1421 237 39 0 158 -79 237 -197 40 -119 118 119 553 -158 671 39 592 -236 276 -356 119 0 276 -276 276 158 79 0 158 -355 237 -158 -276 39 -277 -237 -79 -118 -197 0 -395 -158 -39 -237 39 79 237 -158 237 -316 -39 -197 276 -474 -1184 -355 -119 -158 158 -355 -158 -198 40 -158 -316 -157 -40 -79 -197 -277 -118 40 -79 -316 -237 197 -40 -79 -276 -237 -79 -118 -355 -474 -553 -276 -79 -158 -197 -276 -198 -158 -355 -316 -395 -474 -158 -552 -79 -1422 2487 -789 -236 -316 473 -750 0 237 158 237 474 276 118 119 356 157 39 79 197 0 474 277 671 79 632 -198 158 316 395 276 39 198 -316 355 -158 513 -39 750 474 -158 236 40 198 790 39 355 395 39 316 316 0 355 -158 158 79 277 -316 434 0 39 198 158 118 -39 395 118 158 0 236 316 0 40 158 -198 119 0 355 237 474 197 39 40 -158 197 40 119 79 -79 355 316 197 0 119 118 -40 -118 237 78 158 356 -118 -40 473 158 0 79 -118 198 79 -277 197 198 -39 -277 434 474 119 79 -158 237 158 -237 79 39 157 277 -79 -277 474 -276 0 -355 198 -237 315 197 79 79 -158 395 40 197 197 158 -39 237 355 -158 40 -79 394 198 119 -237 513 -158 -79 -197 158 -237 -158 -158 158 0 316 -277 118 0 277 119 -158 118 79 237 671 237 -119 0 198 2132 2210 -790 790 -2447 1776 -1382 632 -4500 1184 -395 198 -1342 908 -198 237 -552 1026 -119 118 -237 0 -1895 2527 -631 355 -395 40 -553 276 -158 0 -750 -1382 0 -513 -197 -197 118 -198 395 -316 750 -315 -316 -316 -2881 0 39 -237 -158 -118 -395 -158 -355 39 -158 -79 0 -197 198 -355 -632 39 197 -632 395 -316 553 -39 -79 -395 79 -118 197 79 158 -119 -79 -315 237 39 237 -355 -197 -237 0 -79 236 79 79 -395 -39 -1184 -276 -79 -198 -237 -513 -118 -276 -277 -829 40 -316 276 -356 -39 0 -395 -236 -316 -435 -316 79 -237 -631 -276 -277 -237 -79 -237 -513 -434 -118 0 -158 -750 -632 -1066 0 -118 -631 -395 -119 -750 -197 -355 -632 -672 -750 40 -316 -158 -355 -632 -276 -1263 -750 -79 -119 -118 0 -277 158 -158 -118 -513 -356 -355z"/>
      <path microregion="16002" id="1600550" class="municipy" fill="transparent" d="M97974 107275l592 -434 118 -869 -78 -197 118 -355 118 -40 -79 -158 277 -79 158 -394 868 315 474 -315 39 -356 119 79 474 -276 -119 -79 316 -158 0 -197 237 -40 158 -355 197 -40 79 -789 237 -198 237 -631 434 -237 592 -829 671 -395 237 -316 434 -868 316 -79 197 79 80 -237 394 -276 355 -40 237 -197 -39 -119 474 -671 -40 -552 237 -316 79 -829 158 -119 -79 -395 237 -592 -158 -315 39 -553 395 -553 158 -1224 237 -631 631 -790 237 -1066 237 -513 671 -237 671 40 395 -79 237 158 197 394 237 40 356 355 1026 158 355 434 474 237 790 632 513 671 631 553 40 631 197 -39 158 -237 237 -158 276 79 513 -592 751 -355 39 -356 395 -355 79 -276 -40 -553 -197 -118 39 -158 198 -40 197 119 553 -277 197 -39 158 79 513 -356 671 0 -197 -236 197 -316 395 -395 474 -79 789 395 356 355 829 -513 473 237 474 -316 474 0 474 237 79 276 394 119 119 276 592 316 79 316 197 -158 277 79 78 -158 593 -237 276 118 276 -39 277 -356 395 158 276 -197 750 592 276 0 395 395 789 0 711 355 671 -79 513 237 908 -158 198 158 276 -237 276 79 119 -79 79 119 276 39 198 316 157 -40 514 277 79 -119 552 514 -39 197 -316 79 -40 237 158 0 198 -237 197 0 237 -276 276 158 -79 -395 79 -356 316 -79 40 -157 -237 -237 118 -316 277 118 118 316 474 -158 750 513 355 -39 316 -355 316 -119 1697 40 -39 237 197 315 118 593 632 1065 -79 672 198 197 355 -158 39 276 435 0 552 711 -197 553 -237 236 39 277 395 829 237 118 276 -39 79 118 -118 671 197 277 -39 394 316 514 -119 710 198 711 -119 592 79 197 316 316 -474 277 0 118 237 158 -39 237 -711 276 -79 316 -9988 -3987 -907 355 -316 39 -316 -118 -395 -632 -118 -276 -316 -118 -750 513 -790 118 -276 -395 -197 237 -277 0 -79 -237 -316 0 119 -355 -119 -197 158 -237 -158 -316 -276 -197 -513 513 -434 553 -435 276 -276 -40 -434 316 -474 -39 -316 -158 -276 118 -355 -79 -198 -197 -434 197 -355 -236 -79 -553 -158 -158 -553 -197 -197 236 -237 0 -158 -236 -118 -395 -237 79 -632 -158 -710 -869 -1540 -237 -395 -197 -1776 750 -1263 829 -553 158 -79 987 -790 671 198 119 237 394 -40 356 158 473 -158 395 119 119 -40 315 790 198 158 355 -119 119 197 236 198 40 197 276 -39 513 237 198 0 237 197 197 395 -118 -40 157 237 395 -79 395 119 -39 158 79 0 473 -158 158 -356 40 -118 394 197 277 -39 197 -395 119 40 157 118 79 -158 790 40 711 -19897 -40 -118 0z"/>
    </g>
    <g id="microregion">
      <path mesoregion="1602" id="16004" class="microregion" d="M3072 70719l2487 -197 1737 -1066 1974 829 -237 2803 947 1145 2014 -355 5447 4184 8133 1027 6197 -1658 356 -277 513 198 237 -356 473 -79 237 119 119 -40 -40 -316 237 -236 -197 -593 197 -276 -118 -158 118 -197 198 197 473 0 -39 434 316 119 276 -474 197 158 119 -79 -119 -158 158 -276 -39 -237 197 -316 395 0 197 158 198 -276 236 316 316 79 593 -316 315 0 -197 -395 -395 0 -118 -158 39 -197 671 -79 119 -474 197 -40 197 -236 277 0 237 -237 355 -40 0 -118 197 -79 316 158 513 0 79 79 -118 197 -355 79 315 158 198 -118 355 394 118 -118 -157 395 -356 237 79 355 -118 -40 -316 198 39 237 553 118 158 -197 671 197 395 -118 276 592 198 -79 -40 -158 592 -119 79 198 277 -119 -119 593 671 118 316 -118 237 197 158 0 79 -237 474 40 434 513 237 -119 315 40 593 434 592 40 394 -316 316 158 514 39 315 -118 395 237 474 -119 118 -118 -39 -277 -316 -118 -118 -395 276 -79 671 355 237 -276 395 -39 197 -237 355 -40 198 -355 434 0 276 -316 316 -79 237 -434 0 -513 395 -158 355 39 237 316 237 -118 197 237 79 434 276 355 395 237 395 -39 158 355 513 276 0 474 553 118 355 -79 158 435 -790 513 -197 -198 -118 790 -119 158 -434 0 79 79 -79 553 -237 276 79 118 197 198 316 513 750 632 671 394 158 79 632 119 355 276 474 158 355 316 908 316 119 315 -119 829 198 1579 552 395 79 711 119 158 631 158 553 1026 237 39 276 -118 -39 434 236 671 316 198 40 316 473 750 79 829 435 315 552 672 -118 394 -355 237 -119 434 158 593 197 315 435 198 276 789 40 79 39 79 237 474 0 316 -395 434 -316 1145 -79 868 158 632 277 513 197 711 355 395 434 118 514 0 513 -158 789 119 593 276 315 395 198 710 -79 474 0 39 -198 1106 79 789 -276 435 -434 1263 -790 1026 -79 711 -355 631 -118 593 118 473 -39 474 -119 197 -671 -39 -158 158 -474 1816 356 2526 197 158 632 158 750 750 631 276 119 237 -40 987 435 356 236 947 -197 553 355 908 671 513 237 39 277 -276 197 79 0 868 -434 829 79 316 237 119 118 237 40 276 236 79 277 -158 355 -40 276 -197 198 237 355 79 355 513 434 158 -276 790 40 197 276 316 316 39 513 -355 750 39 632 -118 158 79 394 -277 79 158 -158 790 237 592 198 119 237 276 394 39 474 474 118 632 158 79 869 -119 197 119 277 434 750 158 434 750 316 158 158 316 434 157 158 198 79 434 -277 276 0 119 119 158 434 118 276 237 40 513 316 395 118 395 0 316 197 276 751 158 789 671 -118 790 39 473 158 198 553 197 -79 237 118 197 316 40 -79 552 355 553 356 79 552 513 356 -237 0 592 -316 316 0 198 276 158 79 592 237 79 158 -158 197 276 119 0 473 -355 119 -277 553 948 236 -79 987 237 237 -79 40 -553 -119 -276 474 -908 710 -790 79 -513 277 -197 908 -158 355 -237 316 -395 1105 -355 119 -237 276 -158 592 0 592 395 356 474 434 158 276 276 395 -316 711 119 868 394 395 40 39 316 119 79 158 0 79 -198 315 198 514 -79 236 79 119 -119 395 197 236 -276 79 158 356 40 118 197 513 118 40 -158 513 40 158 -119 -40 -157 237 79 592 -198 237 40 119 118 237 -39 79 355 197 158 118 355 158 -39 356 276 -40 118 118 158 553 0 237 237 197 -39 119 -198 316 -39 237 316 434 118 197 276 40 158 -158 79 237 750 355 237 -395 355 -158 0 40 119 158 79 -158 276 158 277 276 118 276 592 869 355 552 632 158 -158 553 671 -79 119 118 197 435 158 79 -40 394 356 119 0 -40 473 158 0 158 514 -158 0 -118 197 118 434 0 592 -237 237 198 553 158 -237 158 237 -119 276 316 474 -158 158 40 79 394 276 277 435 237 236 79 948 276 197 1145 276 -40 237 119 158 750 395 276 40 355 789 198 790 631 513 356 118 237 513 315 119 869 0 592 237 632 79 434 -119 987 277 394 355 751 -395 947 197 197 829 -1066 1659 -552 868 -790 1066 -434 829 -829 513 -197 355 -435 671 -118 316 -118 316 -277 1619 -1342 1539 -553 474 -394 1461 -830 1302 -947 1066 -947 671 -356 474 -1500 1421 -789 908 -2290 3672 -118 236 -356 514 -118 315 -40 119 -118 829 -79 2289 -158 948 0 39 0 79 158 2369 158 513 -40 750 -197 355 -395 711 -2447 2290 0 118 -987 553 -2566 276 -355 -118 -948 -987 -237 158 -434 947 -158 119 -197 0 -119 -79 -158 -237 119 -829 -119 -316 -276 -158 -355 40 -277 236 198 908 0 356 -119 157 -671 -157 -947 79 -474 236 -237 237 -39 158 0 79 118 237 395 513 0 158 -237 513 -513 40 -987 -316 -158 -118 -158 -198 -39 -395 158 -710 -356 -1066 -118 -158 -869 118 -513 -513 -355 -118 -1619 158 -513 -277 -1145 79 -908 -434 -1066 0 -631 -1500 -198 -237 -829 -316 -552 -315 -671 276 -198 -40 -79 -276 395 -553 79 -552 -118 -316 -79 -1105 -514 -593 -118 -434 79 -197 158 -198 197 -118 395 0 316 -197 118 -829 -79 -356 -513 -750 -434 -197 -395 -474 -355 -118 -395 315 -197 79 -790 237 -631 277 -395 39 -356 -158 119 -395 829 -947 -355 -395 -40 -316 119 -552 552 -948 119 -513 39 -158 0 -118 0 -79 0 -277 -158 -631 -276 -434 -79 -474 -118 -40 157 -236 0 -553 -39 -671 -355 -987 -395 -513 -1145 79 -750 157 -671 435 -513 0 -356 -316 -907 -1342 -80 -198 80 -434 -474 -276 -435 -671 119 -632 -355 -592 750 -1145 -40 -316 -592 -908 79 -473 474 -1066 -79 -869 -198 -355 -355 -355 -513 0 -790 -514 -434 -473 -237 -829 -2487 -1698 -158 -552 -118 -316 -197 -316 -869 -237 -671 395 -197 0 -829 -277 -158 -197 -869 -2526 -355 -672 -198 -1144 0 -1066 -276 -395 -592 -237 -395 -553 119 -1144 -593 -316 -236 -513 -79 -514 -237 -236 -198 -474 -592 -395 -434 -632 -355 -236 -395 -1185 237 -592 158 -316 -592 -908 -711 -434 -79 -868 -395 -711 -513 -395 -395 -710 514 -671 0 -198 39 -434 -276 -829 394 -1105 -118 -277 -355 -197 355 -671 -118 -277 355 -315 118 -316 0 -316 -197 -395 39 -434 198 -790 868 -1105 316 -1105 198 -395 -40 -118 -592 -474 -395 158 -237 -119 -237 -750 -236 -316 -869 -592 -197 -710 -395 -237 -158 79 -237 -395 -1342 -790 -671 -513 -395 -671 -474 -474 -1737 -947 -237 -237 -1618 -1105 -79 -592 79 -316 0 -829 -197 -237 -316 -118 -40 -632 -79 -276 277 -277 -40 -158 -158 -315 -237 -158 -39 -395 -553 -395 -79 -197 0 -1066 -158 -592 79 -356 435 -394 315 -79 435 197 315 0 237 -118 158 -237 119 -711 -198 -474 -473 -276 -277 -631 -39 -711 -119 0 -118 276 -158 79 -1145 -237 -1697 908 -356 0 -315 -315 -40 -237 513 -553 237 -513 -237 -395 -710 -237 -158 -158 -198 -710 79 -119 553 -158 355 -236 -158 -632 -355 -237 -513 -40 -40 316 -157 79 -829 -671 -1224 356 -316 394 -276 -39 -395 -435 434 -236 197 -237 -39 -513 158 -395 -158 -434 -197 -119 -237 158 -316 1026 -434 0 -79 -394 -158 -40 -434 277 -356 -198 -39 -434 552 -711 0 -158 -671 -276 -237 119 277 315 0 435 -513 315 -40 316 -750 -276 -237 -474 -197 434 -198 -39 -315 -198 -277 -473 -394 -237 -395 79 -198 276 474 355 79 158 -39 158 -79 40 -474 79 -237 -158 -632 79 -118 -79 79 -158 316 -119 -79 -118 -355 158 -711 -197 -237 237 -158 -237 395 -908 -158 -158 -395 -119 -118 -394 -671 -40 -198 474 -434 197 -158 -39 0 -198 158 -118 198 -119 0 -236 157 -277 -118 -118 -237 79 -237 -119 -355 79 -79 -394 -355 -119 -277 395 -355 -237 -355 118 -198 -434 119 -513 -316 -513 -355 158 -237 -40 197 316 -118 237 -513 -197 -514 394 -197 -39 -237 -198 -355 198 79 316 -276 -119 -79 -118 118 -434 -158 -277 158 -395 -474 -789 -513 -40 -79 -236 237 -553 276 -316 0 -197 -315 79 -237 236 -158 -315 -158 0 -119 -198 277 -158 0 -197 -356 -316 119 -237 -395 -158 -39 -394 -119 -79 -158 118 -158 -79 -394 -39 -237 -158 -79 -316 -119 0 -197 395 0 592 -118 79 -198 -198 -197 -592 -513 -237 -316 -276 -40 -355 -473 0 -158 -277 -474 119 40 -237 -237 -197 118 -79 -118 -277 79 -118 -237 -79 -198 79 -394 0 315 -276 40 -237 -276 118 -119 -197 -237 79 -158 -198 -158 0 -118 -118 276 -119 -118 -118 -276 118 -198 0 -197 -236 -237 118 -276 0 39 -197 -237 -40 -39 -197 -829 -316 -316 592 -553 -474 -473 119 -198 -158 -355 237 -987 -198 -197 119 0 158 -474 -119 0 119 -355 158 -198 -158 -197 118 -158 -197 -355 -79 -158 -277 -277 -197 -1145 -237 40 -237 -355 237 -671 -237 -316 198 -474 -40 -592 395 -276 -118 -632 197 -276 -118 -435 39 -236 -237 -79 119 -553 39 -829 -158 -79 -355 -197 -158 -40 -237 237 -237 -119 -276 553 -592 -237 0 40 -237 -316 -119 -118 -276 0 -829 -198 -474 -158 -78 40 -435 -119 -39 -197 -1106 237 -118 197 -434 -39 -79 118 0 79 -237 -79 -237 -237 -158 -276 40 79 -592 -395 -119 -316 -276 -118 -277 -316 -315 -118 -395 -119 -40 198 -473 -237 -316 0 -277 197 -157 -237 -829 316 -198 -158 -513 197 -316 -118 -197 197 -119 79 -276 277 -197 -40 -158 316 -198 -39 -237 473 -197 -39 -237 237 -158 -40 -316 -237 -197 -158 -395 -197 -118 -592 -711 -395 -710 79 -632 197 -118 -118 -277 158 -315 237 -158 -355 -553 -79 -434 -1935 -2014 -39 -197 -237 -197 -40 -356 119 -237z"/>
      <path mesoregion="1602" id="16003" class="microregion" d="M62800 86747l355 -829 198 -158 513 -158 592 119 316 750 118 118 1106 40 473 158 593 -158 236 276 79 -197 158 0 79 -237 395 -237 -237 -987 119 -237 -158 -316 118 0 40 -237 473 -513 711 237 276 -513 158 0 316 197 237 -79 276 -513 -79 -197 119 -277 -316 0 -40 -79 79 -315 237 -158 553 -40 513 434 355 -157 395 118 197 -158 277 0 79 316 947 -158 434 316 553 -119 237 119 355 -198 79 119 -158 395 474 -119 395 395 197 -237 198 40 315 592 592 276 237 474 356 39 197 198 158 -79 -119 -316 593 -119 276 79 237 -197 197 434 237 -158 355 -39 119 -237 276 -158 355 -39 395 -435 474 119 434 -40 237 119 237 -40 0 -197 592 -79 395 316 316 -79 197 276 158 -197 -197 -711 78 -631 -157 -119 39 -276 118 -158 356 -237 237 0 592 -474 118 -158 237 -39 276 -711 277 79 237 -434 197 -79 513 -118 513 158 395 -158 513 39 751 -355 276 -750 237 0 473 237 79 -40 -79 -197 -276 -356 -434 40 -119 -237 158 -592 -197 -513 395 -277 197 -473 197 0 316 158 316 -198 316 198 197 -632 316 79 0 -79 -118 -395 276 -395 513 158 316 -158 -39 -552 631 -355 276 -672 158 -118 -158 -671 158 -276 237 -40 -237 -316 198 -237 592 79 118 -355 632 513 434 79 277 -355 197 -1184 789 118 158 -79 -79 316 -276 0 -474 197 -118 553 158 237 39 276 -118 119 118 276 40 1145 -198 276 0 316 -315 710 -198 158 -197 435 0 631 631 474 316 592 -118 671 -119 79 119 632 79 1184 118 0 0 237 119 158 39 750 671 987 -118 355 79 434 237 237 -79 356 276 315 -316 632 79 237 -197 197 0 277 -356 434 198 118 -276 474 118 1579 -355 316 -158 710 -316 158 -40 198 -315 158 -316 473 158 -39 158 276 39 908 -79 158 79 276 -197 474 118 79 79 -39 -39 355 158 276 -237 671 118 198 -79 197 198 553 -40 395 -158 355 79 631 237 198 -79 355 40 237 355 158 118 474 237 0 119 355 -79 592 -277 790 -276 197 39 276 -79 198 158 434 -79 276 40 948 276 118 0 237 316 237 -237 434 -355 119 -40 197 316 39 158 198 -39 118 -198 40 0 197 -276 40 39 158 -158 197 119 592 197 237 -276 316 237 118 0 237 158 276 908 632 -158 355 39 592 -158 356 79 158 395 39 316 158 118 0 19897 40 -237 868 -237 395 158 158 -40 158 -197 158 -198 -40 -513 158 -118 276 -237 40 0 158 -395 157 237 198 79 868 158 277 0 394 -355 198 0 789 -119 395 40 277 -237 394 118 158 -197 513 -158 -39 -355 197 -395 632 632 592 1144 197 593 237 78 158 -394 1342 39 553 316 237 197 355 474 316 237 474 276 197 158 -39 158 -356 355 -157 198 -553 395 39 789 -158 592 316 316 -118 237 118 513 40 276 -158 119 434 197 395 79 -40 237 -197 40 -395 394 -513 435 -276 236 -514 316 -552 158 -79 40 -158 197 -40 632 198 315 -40 711 671 158 0 710 -315 711 -158 434 197 356 0 236 276 514 158 -79 474 592 119 -237 355 316 355 -79 197 237 40 -40 158 -79 39 119 237 118 40 0 -79 198 158 0 236 79 40 118 -355 316 -277 -79 -552 237 -237 631 -79 592 -395 435 119 1342 -158 316 236 158 671 315 316 356 79 1105 -237 513 -473 -158 -711 158 -474 158 -276 316 -158 1540 -355 789 118 987 -592 395 119 316 315 276 514 276 158 513 0 316 -119 119 -355 -395 -632 -79 -474 355 -473 869 -237 355 118 355 592 435 -197 276 -355 237 -79 592 710 79 829 118 158 277 0 1263 -829 671 -947 118 -553 -157 -710 39 -474 118 -237 474 -474 711 -631 947 -158 711 710 671 119 513 -40 948 -434 434 -434 395 -750 -79 -671 -474 -711 -158 -513 276 -1027 474 -552 790 -395 1223 -237 1500 158 711 -197 276 118 198 237 79 592 -277 2408 79 356 237 236 750 237 1224 -39 2763 -474 948 -474 1618 -1223 237 1381 198 592 -40 711 -632 1224 -157 631 -593 750 -236 40 -79 158 118 158 -237 2092 198 237 79 750 0 513 -158 355 -829 790 -198 0 -631 1026 -198 632 -750 1303 -592 434 -39 158 -237 0 -119 -119 40 277 -158 237 158 118 -277 316 237 158 40 513 -119 79 -276 -198 -158 316 40 237 -395 79 -158 198 -237 78 -39 2606 -2093 -79 -1342 118 -1105 237 -514 79 -2210 474 -79 0 -987 355 -1658 1106 -197 197 -198 118 -868 750 -553 987 -474 1303 -316 1619 -315 750 -593 789 -631 2053 -513 908 -553 1263 -790 1224 -631 671 -790 592 -710 750 -790 790 -2447 1776 -1382 632 -1066 276 -3000 790 -434 118 -395 198 -1342 908 -198 237 -552 1026 -119 118 -237 0 -710 948 -158 197 -474 632 -553 750 -631 355 -395 40 -553 276 -158 0 -1855 237 -1382 473 -197 -829 -947 -197 -751 395 -394 -355 -987 -277 -434 119 -632 -79 -592 -237 -869 0 -315 -119 -237 -513 -356 -118 -631 -513 -198 -790 -355 -789 -276 -40 -750 -395 -119 -158 40 -237 -1145 -276 -276 -197 -79 -948 -237 -236 -277 -435 -394 -276 -40 -79 158 -158 -316 -474 119 -276 -158 -237 -158 237 -198 -553 237 -237 0 -592 -118 -434 118 -197 158 0 -158 -514 -158 0 40 -473 -119 0 -394 -356 -79 40 -435 -158 -118 -197 79 -119 -553 -671 -158 158 -552 -632 -869 -355 -276 -592 -276 -118 -158 -277 158 -276 -158 -79 -40 -119 158 0 395 -355 -355 -237 -237 -750 158 -79 -40 -158 -197 -276 -434 -118 -237 -316 -316 39 -119 198 -197 39 -237 -237 -553 0 -118 -158 40 -118 -356 -276 -158 39 -118 -355 -197 -158 -79 -355 -237 39 -119 -118 -237 -40 -592 198 -237 -79 40 157 -158 119 -513 -40 -40 158 -513 -118 -118 -197 -356 -40 -79 -158 -236 276 -395 -197 -119 119 -236 -79 -514 79 -315 -198 -79 198 -158 0 -119 -79 -39 -316 -395 -40 -868 -394 -711 -119 -395 316 -276 -276 -434 -158 -356 -474 -592 -395 -592 0 -276 158 -119 237 -1105 355 -316 395 -355 237 -908 158 -277 197 -79 513 -710 790 -474 908 119 276 -40 553 -237 79 -987 -237 -236 79 -553 -948 -119 277 -473 355 -119 0 -197 -276 -158 158 -237 -79 -79 -592 -276 -158 0 -198 316 -316 0 -592 -356 237 -552 -513 -356 -79 -355 -553 79 -552 -316 -40 -118 -197 79 -237 -553 -197 -158 -198 -39 -473 118 -790 -789 -671 -751 -158 -197 -276 0 -316 -118 -395 -316 -395 -40 -513 -276 -237 -434 -118 -119 -158 0 -119 277 -276 -79 -434 -158 -198 -434 -157 -158 -316 -316 -158 -434 -750 -750 -158 -277 -434 -197 -119 -869 119 -158 -79 -118 -632 -474 -474 -394 -39 -237 -276 -198 -119 -237 -592 158 -790 -79 -158 -394 277 -158 -79 -632 118 -750 -39 -513 355 -316 -39 -276 -316 -40 -197 276 -790 -434 -158 -355 -513 -355 -79 -198 -237 -276 197 -355 40 -277 158 -236 -79 -40 -276 -118 -237 -237 -119 -79 -316 434 -829 0 -868 -197 -79 -277 276 -237 -39 -671 -513 -355 -908 197 -553 -236 -947 -435 -356 40 -987 -119 -237 -631 -276 -750 -750 -632 -158 -197 -158 -356 -2526 474 -1816 158 -158 671 39 119 -197 39 -474 -118 -473 118 -593 355 -631 79 -711 790 -1026 434 -1263 276 -435 -79 -789 198 -1106 0 -39 79 -474 -198 -710 -315 -395 -593 -276 -789 -119 -513 158 -514 0 -434 -118 -355 -395 -197 -711 -277 -513 -158 -632 79 -868 316 -1145 395 -434 0 -316 -237 -474 -39 -79 -40 -79 -276 -789 -435 -198 -197 -315 -158 -593 119 -434 355 -237 118 -394 -552 -672 -435 -315 -79 -829 -473 -750 -40 -316 -316 -198 -236 -671 39 -434z"/>
      <path mesoregion="1601" id="16002" class="microregion" d="M97974 107275l592 -434 118 -869 -78 -197 118 -355 118 -40 -79 -158 277 -79 158 -394 868 315 474 -315 39 -356 119 79 474 -276 -119 -79 316 -158 0 -197 237 -40 158 -355 197 -40 79 -789 237 -198 237 -631 434 -237 592 -829 671 -395 237 -316 434 -868 316 -79 197 79 80 -237 394 -276 355 -40 237 -197 -39 -119 474 -671 -40 -552 237 -316 79 -829 158 -119 -79 -395 237 -592 -158 -315 39 -553 395 -553 158 -1224 237 -631 631 -790 237 -1066 237 -513 -39 -434 197 -948 -513 -710 -79 -316 474 -553 79 -473 -40 -395 474 -79 632 -553 710 -276 -395 -947 119 -553 473 -474 79 -355 -79 -158 198 -434 237 -198 1460 2448 711 434 316 119 631 -237 277 -316 -79 -237 158 -197 592 -356 434 277 197 39 198 237 355 118 553 750 631 79 711 -355 316 -39 118 -316 711 -474 158 -276 434 -79 395 -355 1342 -711 39 -79 -79 -118 79 -119 237 40 119 -395 237 -237 315 237 514 -40 79 -197 513 -355 316 -40 394 -434 948 39 474 -434 868 -39 79 -316 434 -197 316 236 237 -118 197 197 316 -39 316 316 316 -119 710 356 158 -79 0 276 395 158 118 -158 0 -355 277 -316 118 79 276 -198 79 40 -118 276 513 -237 40 237 315 198 316 -79 40 -198 118 -79 0 237 277 395 552 -158 316 -237 237 40 79 -316 237 118 315 0 -236 237 79 316 513 -276 -277 513 593 79 197 -474 316 -39 -119 -395 553 -158 -118 -158 118 -40 474 40 158 237 237 -40 0 356 276 79 39 315 908 908 158 0 158 -158 119 -710 315 39 395 356 474 -158 1184 -395 2132 -987 710 -276 1895 -632 1224 158 948 -39 355 157 79 316 158 -118 513 474 355 671 869 1105 0 197 237 119 197 474 197 0 474 473 79 316 -197 395 197 118 118 277 -39 79 316 513 118 513 553 395 158 987 197 237 198 394 907 2329 1145 2803 2250 -395 2093 751 473 39 1185 553 710 118 1027 553 2684 1658 198 276 78 237 -118 355 -197 79 473 158 356 1263 276 3001 434 1974 -79 552 40 434 -237 1579 79 395 -474 1935 -474 1144 158 751 -1618 1223 -948 474 -2763 474 -1224 39 -750 -237 -237 -236 -79 -356 277 -2408 -79 -592 -198 -237 -276 -118 -711 197 -1500 -158 -1223 237 -790 395 -474 552 -276 1027 158 513 474 711 79 671 -395 750 -434 434 -948 434 -513 40 -671 -119 -711 -710 -947 158 -711 631 -474 474 -118 237 -39 474 157 710 -118 553 -671 947 -1263 829 -277 0 -118 -158 -79 -829 -592 -710 -237 79 -276 355 -435 197 -355 -592 -355 -118 -869 237 -355 473 79 474 395 632 -119 355 -316 119 -513 0 -276 -158 -276 -514 -316 -315 -395 -119 -987 592 -789 -118 -1540 355 -316 158 -158 276 -158 474 158 711 -513 473 -1105 237 -356 -79 -315 -316 -158 -671 -316 -236 -1342 158 -435 -119 -592 395 -631 79 -237 237 79 552 -316 277 -118 355 -79 -40 0 -236 -198 -158 0 79 -118 -40 -119 -237 79 -39 40 -158 -237 -40 79 -197 -316 -355 237 -355 -592 -119 79 -474 -514 -158 -236 -276 -356 0 -434 -197 -711 158 -710 315 -158 0 -711 -671 -315 40 -632 -198 -197 40 -40 158 -158 79 -316 552 -236 514 -435 276 -394 513 -40 395 -237 197 -79 40 -197 -395 -119 -434 -276 158 -513 -40 -237 -118 -316 118 -592 -316 -789 158 -395 -39 -198 553 -355 157 -158 356 -158 39 -276 -197 -237 -474 -474 -316 -197 -355 -316 -237 -39 -553 394 -1342 -78 -158 -593 -237 -1144 -197 -632 -592 395 -632 355 -197 158 39 197 -513 -118 -158 237 -394 -40 -277 119 -395 0 -789 355 -198 0 -394 -158 -277 -79 -868 -237 -198 395 -157 0 -158 237 -40 118 -276 513 -158 198 40 197 -158 40 -158 -158 -158 237 -395 237 -868 -19897 -40 -118 0z"/>
      <path mesoregion="1601" id="16001" class="microregion" d="M55536 78852l79 -40 -39 -158 118 0 277 119 276 -119 79 -158 276 -39 119 -316 315 79 158 276 277 119 79 -79 79 79 236 -198 751 0 315 -157 1224 -237 1303 -79 632 118 434 316 197 276 276 356 395 276 1066 118 790 395 1302 -355 237 -513 -79 -198 119 -79 197 119 158 -119 355 79 277 158 79 -237 394 -552 0 -158 237 -158 -118 -513 395 -119 157 -631 553 -79 79 -237 -158 -356 513 0 119 -39 -79 -276 158 39 1184 -395 434 -355 158 40 119 -237 118 118 237 -237 79 79 671 -316 197 -197 158 79 553 -197 0 -277 1816 -1263 -40 -79 158 -355 -79 -316 592 -553 0 -473 277 -277 197 -118 40 79 434 -40 276 -197 -316 -355 119 -395 789 79 40 -711 671 -592 355 -79 79 -395 -158 0 -197 -592 434 -395 316 79 0 -237 118 -315 316 -198 -276 -592 -553 -395 198 -394 -395 -474 276 -474 237 -79 316 119 316 -1066 394 -474 316 -908 513 -789 40 -158 -119 -158 237 -277 -79 -434 198 -474 631 -1065 237 -632 790 -1461 552 -276 277 118 197 -79 434 -552 40 -158 -355 39 -79 -237 -198 -118 198 -355 -119 -158 237 -119 198 -315 355 -987 39 -435 158 -197 119 -632 315 -197 395 -947 474 -790 -592 -671 0 -316 237 -355 -40 -79 -316 0 -118 -158 118 -316 237 79 158 -118 -79 -316 237 -316 39 -434 474 -158 395 39 -119 -947 395 -474 158 -513 435 -118 355 -237 79 -277 158 -118 276 118 237 395 355 -118 119 -158 986 -1461 316 -237 0 -434 987 -1303 237 -592 1382 -2645 473 -434 158 -790 316 -197 316 -355 -39 -434 473 -119 1224 -2250 671 -671 277 -474 236 -1618 119 -277 158 -39 276 -1145 474 -395 789 158 158 -79 237 -592 -237 -829 158 -355 592 -277 158 -236 355 -40 474 -237 355 -553 158 -197 237 -276 237 -277 592 -276 158 -316 79 -158 592 -394 513 -829 237 -593 40 -710 39 -355 237 -316 474 -711 316 -237 1223 -197 395 -276 395 -514 632 -118 631 -513 119 -592 -40 -395 277 -434 552 -1816 474 -829 316 -790 -79 -1263 197 -158 198 -908 394 -2684 671 -2329 119 -316 316 -198 868 -197 434 316 356 118 1223 1105 829 514 2685 2605 3079 3395 40 198 671 868 118 513 553 671 671 1974 0 237 158 197 118 1382 158 711 40 868 -119 513 434 277 1422 868 947 0 395 355 -40 40 79 197 198 40 0 1303 -158 631 0 1579 -158 395 79 355 -119 395 40 553 -158 316 -40 552 0 869 277 1539 355 4659 -237 1065 -158 0 -197 198 -40 197 119 1816 237 750 1895 5329 -119 751 -276 315 79 632 -119 632 237 671 711 750 0 474 -198 434 -79 671 316 434 158 474 395 474 118 947 -79 474 198 789 316 356 315 671 593 710 78 987 -197 592 197 711 0 355 514 -158 592 237 197 237 79 276 -197 395 79 592 395 119 315 355 -39 1816 474 237 513 631 79 514 316 197 0 1224 -158 237 79 0 39 276 237 355 118 1382 -197 829 -513 118 -40 435 79 158 40 -277 197 -118 276 197 751 -553 355 40 395 237 236 434 0 355 514 632 118 316 40 631 -237 553 316 474 157 552 -118 474 355 276 158 435 40 1105 315 355 356 790 -79 632 79 671 158 -40 315 237 474 750 276 632 119 513 -79 632 -158 197 -434 118 0 198 -474 158 -395 -356 -315 -39 -119 710 -158 158 -158 0 -908 -908 -39 -315 -276 -79 0 -356 -237 40 -158 -237 -474 -40 -118 40 118 158 -553 158 119 395 -316 39 -197 474 -593 -79 277 -513 -513 276 -79 -316 236 -237 -315 0 -237 -118 -79 316 -237 -40 -316 237 -552 158 -277 -395 0 -237 -118 79 -40 198 -316 79 -315 -198 -40 -237 -513 237 118 -276 -79 -40 -276 198 -118 -79 -277 316 0 355 -118 158 -395 -158 0 -276 -158 79 -710 -356 -316 119 -316 -316 -316 39 -197 -197 -237 118 -316 -236 -434 197 -79 316 -868 39 -474 434 -948 -39 -394 434 -316 40 -513 355 -79 197 -514 40 -315 -237 -237 237 -119 395 -237 -40 -79 119 79 118 -39 79 -1342 711 -395 355 -434 79 -158 276 -711 474 -118 316 -316 39 -711 355 -631 -79 -553 -750 -355 -118 -198 -237 -197 -39 -434 -277 -592 356 -158 197 79 237 -277 316 -631 237 -316 -119 -711 -434 -1460 -2448 -237 198 -198 434 79 158 -79 355 -473 474 -119 553 395 947 -710 276 -632 553 -474 79 40 395 -79 473 -474 553 79 316 513 710 -197 948 39 434 -237 513 -237 1066 -631 790 -237 631 -158 1224 -395 553 -39 553 158 315 -237 592 79 395 -158 119 -79 829 -237 316 40 552 -474 671 39 119 -237 197 -355 40 -394 276 -80 237 -197 -79 -316 79 -434 868 -237 316 -671 395 -592 829 -434 237 -237 631 -237 198 -79 789 -197 40 -158 355 -237 40 0 197 -316 158 119 79 -474 276 -119 -79 -39 356 -474 315 -868 -315 -158 394 -277 79 79 158 -118 40 -118 355 78 197 -118 869 -592 434 -316 -158 -395 -39 -79 -158 158 -356 -39 -592 158 -355 -908 -632 -158 -276 0 -237 -237 -118 276 -316 -197 -237 -119 -592 158 -197 -39 -158 276 -40 0 -197 198 -40 39 -118 -158 -198 -316 -39 40 -197 355 -119 237 -434 -316 -237 0 -237 -276 -118 -40 -948 79 -276 -158 -434 79 -198 -39 -276 276 -197 277 -790 79 -592 -119 -355 -237 0 -118 -474 -355 -158 -40 -237 79 -355 -237 -198 -79 -631 158 -355 40 -395 -198 -553 79 -197 -118 -198 237 -671 -158 -276 39 -355 -79 39 -118 -79 197 -474 -79 -276 79 -158 -39 -908 -158 -276 -158 39 316 -473 315 -158 40 -198 316 -158 158 -710 355 -316 -118 -1579 276 -474 -198 -118 356 -434 0 -277 197 -197 -79 -237 316 -632 -276 -315 79 -356 -237 -237 -79 -434 118 -355 -671 -987 -39 -750 -119 -158 0 -237 -118 0 -79 -1184 -119 -632 119 -79 118 -671 -316 -592 -631 -474 0 -631 197 -435 198 -158 315 -710 0 -316 198 -276 -40 -1145 -118 -276 118 -119 -39 -276 -158 -237 118 -553 474 -197 276 0 79 -316 -158 79 -789 -118 -197 1184 -277 355 -434 -79 -632 -513 -118 355 -592 -79 -198 237 237 316 -237 40 -158 276 158 671 -158 118 -276 672 -631 355 39 552 -316 158 -513 -158 -276 395 118 395 0 79 -316 -79 -197 632 -316 -198 -316 198 -316 -158 -197 0 -197 473 -395 277 197 513 -158 592 119 237 434 -40 276 356 79 197 -79 40 -473 -237 -237 0 -276 750 -751 355 -513 -39 -395 158 -513 -158 -513 118 -197 79 -237 434 -277 -79 -276 711 -237 39 -118 158 -592 474 -237 0 -356 237 -118 158 -39 276 157 119 -78 631 197 711 -158 197 -197 -276 -316 79 -395 -316 -592 79 0 197 -237 40 -237 -119 -434 40 -474 -119 -395 435 -355 39 -276 158 -119 237 -355 39 -237 158 -197 -434 -237 197 -276 -79 -593 119 119 316 -158 79 -197 -198 -356 -39 -237 -474 -592 -276 -315 -592 -198 -40 -197 237 -395 -395 -474 119 158 -395 -79 -119 -355 198 -237 -119 -553 119 -434 -316 -947 158 -79 -316 -277 0 -197 158 -395 -118 -355 157 -513 -434 -553 40 -237 158 -79 315 40 79 316 0 -119 277 79 197 -276 513 -237 79 -316 -197 -158 0 -276 513 -711 -237 -473 513 -40 237 -118 0 158 316 -119 237 237 987 -395 237 -79 237 -158 0 -79 197 -236 -276 -593 158 -473 -158 -1106 -40 -118 -118 -316 -750 -592 -119 -513 158 -198 158 -355 829 -276 118 -237 -39 -553 -1026 -631 -158 -119 -158 -79 -711 -552 -395 -198 -1579 119 -829 -119 -315 -908 -316 -355 -316 -474 -158 -355 -276 -632 -119 -158 -79 -671 -394 -750 -632 -316 -513z"/>
    </g>
    <g id="mesoregion">
      <path id="1601" class="mesoregion" fill="transparent" d="M55536 78852l79 -40 -39 -158 118 0 277 119 276 -119 79 -158 276 -39 119 -316 315 79 158 276 277 119 79 -79 79 79 236 -198 751 0 315 -157 1224 -237 1303 -79 632 118 434 316 197 276 276 356 395 276 1066 118 790 395 1302 -355 237 -513 -79 -198 119 -79 197 119 158 -119 355 79 277 158 79 -237 394 -552 0 -158 237 -158 -118 -513 395 -119 157 -631 553 -79 79 -237 -158 -356 513 0 119 -39 -79 -276 158 39 1184 -395 434 -355 158 40 119 -237 118 118 237 -237 79 79 671 -316 197 -197 158 79 553 -197 0 -277 1816 -1263 -40 -79 158 -355 -79 -316 592 -553 0 -473 277 -277 197 -118 40 79 434 -40 276 -197 -316 -355 119 -395 789 79 40 -711 671 -592 355 -79 79 -395 -158 0 -197 -592 434 -395 316 79 0 -237 118 -315 316 -198 -276 -592 -553 -395 198 -394 -395 -474 276 -474 237 -79 316 119 316 -1066 394 -474 316 -908 513 -789 40 -158 -119 -158 237 -277 -79 -434 198 -474 631 -1065 237 -632 790 -1461 552 -276 277 118 197 -79 434 -552 40 -158 -355 39 -79 -237 -198 -118 198 -355 -119 -158 237 -119 198 -315 355 -987 39 -435 158 -197 119 -632 315 -197 395 -947 474 -790 -592 -671 0 -316 237 -355 -40 -79 -316 0 -118 -158 118 -316 237 79 158 -118 -79 -316 237 -316 39 -434 474 -158 395 39 -119 -947 395 -474 158 -513 435 -118 355 -237 79 -277 158 -118 276 118 237 395 355 -118 119 -158 986 -1461 316 -237 0 -434 987 -1303 237 -592 1382 -2645 473 -434 158 -790 316 -197 316 -355 -39 -434 473 -119 1224 -2250 671 -671 277 -474 236 -1618 119 -277 158 -39 276 -1145 474 -395 789 158 158 -79 237 -592 -237 -829 158 -355 592 -277 158 -236 355 -40 474 -237 355 -553 158 -197 237 -276 237 -277 592 -276 158 -316 79 -158 592 -394 513 -829 237 -593 40 -710 39 -355 237 -316 474 -711 316 -237 1223 -197 395 -276 395 -514 632 -118 631 -513 119 -592 -40 -395 277 -434 552 -1816 474 -829 316 -790 -79 -1263 197 -158 198 -908 394 -2684 671 -2329 119 -316 316 -198 868 -197 434 316 356 118 1223 1105 829 514 2685 2605 3079 3395 40 198 671 868 118 513 553 671 671 1974 0 237 158 197 118 1382 158 711 40 868 -119 513 434 277 1422 868 947 0 395 355 -40 40 79 197 198 40 0 1303 -158 631 0 1579 -158 395 79 355 -119 395 40 553 -158 316 -40 552 0 869 277 1539 355 4659 -237 1065 -158 0 -197 198 -40 197 119 1816 237 750 1895 5329 -119 751 -276 315 79 632 -119 632 237 671 711 750 0 474 -198 434 -79 671 316 434 158 474 395 474 118 947 -79 474 198 789 316 356 315 671 593 710 78 987 -197 592 197 711 0 355 514 -158 592 237 197 237 79 276 -197 395 79 592 395 119 315 355 -39 1816 474 237 513 631 79 514 316 197 0 1224 -158 237 79 0 39 276 237 355 118 1382 -197 829 -513 118 -40 435 79 158 40 -277 197 -118 276 197 751 -553 355 40 395 237 236 434 0 355 514 632 118 316 40 631 -237 553 316 474 157 552 -118 474 355 276 158 435 40 1105 315 355 356 790 -79 632 79 671 158 -40 315 237 474 750 276 632 119 513 -79 632 -158 197 -434 118 0 198 1184 -395 2132 -987 710 -276 1895 -632 1224 158 948 -39 355 157 79 316 158 -118 513 474 355 671 869 1105 0 197 237 119 197 474 197 0 474 473 79 316 -197 395 197 118 118 277 -39 79 316 513 118 513 553 395 158 987 197 237 198 394 907 2329 1145 2803 2250 -395 2093 751 473 39 1185 553 710 118 1027 553 2684 1658 198 276 78 237 -118 355 -197 79 473 158 356 1263 276 3001 434 1974 -79 552 40 434 -237 1579 79 395 -474 1935 -474 1144 158 751 -1618 1223 -948 474 -2763 474 -1224 39 -750 -237 -237 -236 -79 -356 277 -2408 -79 -592 -198 -237 -276 -118 -711 197 -1500 -158 -1223 237 -790 395 -474 552 -276 1027 158 513 474 711 79 671 -395 750 -434 434 -948 434 -513 40 -671 -119 -711 -710 -947 158 -711 631 -474 474 -118 237 -39 474 157 710 -118 553 -671 947 -1263 829 -277 0 -118 -158 -79 -829 -592 -710 -237 79 -276 355 -435 197 -355 -592 -355 -118 -869 237 -355 473 79 474 395 632 -119 355 -316 119 -513 0 -276 -158 -276 -514 -316 -315 -395 -119 -987 592 -789 -118 -1540 355 -316 158 -158 276 -158 474 158 711 -513 473 -1105 237 -356 -79 -315 -316 -158 -671 -316 -236 -1342 158 -435 -119 -592 395 -631 79 -237 237 79 552 -316 277 -118 355 -79 -40 0 -236 -198 -158 0 79 -118 -40 -119 -237 79 -39 40 -158 -237 -40 79 -197 -316 -355 237 -355 -592 -119 79 -474 -514 -158 -236 -276 -356 0 -434 -197 -711 158 -710 315 -158 0 -711 -671 -315 40 -632 -198 -197 40 -40 158 -158 79 -316 552 -236 514 -435 276 -394 513 -40 395 -237 197 -79 40 -197 -395 -119 -434 -276 158 -513 -40 -237 -118 -316 118 -592 -316 -789 158 -395 -39 -198 553 -355 157 -158 356 -158 39 -276 -197 -237 -474 -474 -316 -197 -355 -316 -237 -39 -553 394 -1342 -78 -158 -593 -237 -1144 -197 -632 -592 395 -632 355 -197 158 39 197 -513 -118 -158 237 -394 -40 -277 119 -395 0 -789 355 -198 0 -394 -158 -277 -79 -868 -237 -198 395 -157 0 -158 237 -40 118 -276 513 -158 198 40 197 -158 40 -158 -158 -158 237 -395 237 -868 -19897 -40 -118 0 -316 -158 -395 -39 -79 -158 158 -356 -39 -592 158 -355 -908 -632 -158 -276 0 -237 -237 -118 276 -316 -197 -237 -119 -592 158 -197 -39 -158 276 -40 0 -197 198 -40 39 -118 -158 -198 -316 -39 40 -197 355 -119 237 -434 -316 -237 0 -237 -276 -118 -40 -948 79 -276 -158 -434 79 -198 -39 -276 276 -197 277 -790 79 -592 -119 -355 -237 0 -118 -474 -355 -158 -40 -237 79 -355 -237 -198 -79 -631 158 -355 40 -395 -198 -553 79 -197 -118 -198 237 -671 -158 -276 39 -355 -79 39 -118 -79 197 -474 -79 -276 79 -158 -39 -908 -158 -276 -158 39 316 -473 315 -158 40 -198 316 -158 158 -710 355 -316 -118 -1579 276 -474 -198 -118 356 -434 0 -277 197 -197 -79 -237 316 -632 -276 -315 79 -356 -237 -237 -79 -434 118 -355 -671 -987 -39 -750 -119 -158 0 -237 -118 0 -79 -1184 -119 -632 119 -79 118 -671 -316 -592 -631 -474 0 -631 197 -435 198 -158 315 -710 0 -316 198 -276 -40 -1145 -118 -276 118 -119 -39 -276 -158 -237 118 -553 474 -197 276 0 79 -316 -158 79 -789 -118 -197 1184 -277 355 -434 -79 -632 -513 -118 355 -592 -79 -198 237 237 316 -237 40 -158 276 158 671 -158 118 -276 672 -631 355 39 552 -316 158 -513 -158 -276 395 118 395 0 79 -316 -79 -197 632 -316 -198 -316 198 -316 -158 -197 0 -197 473 -395 277 197 513 -158 592 119 237 434 -40 276 356 79 197 -79 40 -473 -237 -237 0 -276 750 -751 355 -513 -39 -395 158 -513 -158 -513 118 -197 79 -237 434 -277 -79 -276 711 -237 39 -118 158 -592 474 -237 0 -356 237 -118 158 -39 276 157 119 -78 631 197 711 -158 197 -197 -276 -316 79 -395 -316 -592 79 0 197 -237 40 -237 -119 -434 40 -474 -119 -395 435 -355 39 -276 158 -119 237 -355 39 -237 158 -197 -434 -237 197 -276 -79 -593 119 119 316 -158 79 -197 -198 -356 -39 -237 -474 -592 -276 -315 -592 -198 -40 -197 237 -395 -395 -474 119 158 -395 -79 -119 -355 198 -237 -119 -553 119 -434 -316 -947 158 -79 -316 -277 0 -197 158 -395 -118 -355 157 -513 -434 -553 40 -237 158 -79 315 40 79 316 0 -119 277 79 197 -276 513 -237 79 -316 -197 -158 0 -276 513 -711 -237 -473 513 -40 237 -118 0 158 316 -119 237 237 987 -395 237 -79 237 -158 0 -79 197 -236 -276 -593 158 -473 -158 -1106 -40 -118 -118 -316 -750 -592 -119 -513 158 -198 158 -355 829 -276 118 -237 -39 -553 -1026 -631 -158 -119 -158 -79 -711 -552 -395 -198 -1579 119 -829 -119 -315 -908 -316 -355 -316 -474 -158 -355 -276 -632 -119 -158 -79 -671 -394 -750 -632 -316 -513z"/>
      <path id="1602" class="mesoregion" fill="transparent" d="M3072 70719l2487 -197 1737 -1066 1974 829 -237 2803 947 1145 2014 -355 5447 4184 8133 1027 6197 -1658 356 -277 513 198 237 -356 473 -79 237 119 119 -40 -40 -316 237 -236 -197 -593 197 -276 -118 -158 118 -197 198 197 473 0 -39 434 316 119 276 -474 197 158 119 -79 -119 -158 158 -276 -39 -237 197 -316 395 0 197 158 198 -276 236 316 316 79 593 -316 315 0 -197 -395 -395 0 -118 -158 39 -197 671 -79 119 -474 197 -40 197 -236 277 0 237 -237 355 -40 0 -118 197 -79 316 158 513 0 79 79 -118 197 -355 79 315 158 198 -118 355 394 118 -118 -157 395 -356 237 79 355 -118 -40 -316 198 39 237 553 118 158 -197 671 197 395 -118 276 592 198 -79 -40 -158 592 -119 79 198 277 -119 -119 593 671 118 316 -118 237 197 158 0 79 -237 474 40 434 513 237 -119 315 40 593 434 592 40 394 -316 316 158 514 39 315 -118 395 237 474 -119 118 -118 -39 -277 -316 -118 -118 -395 276 -79 671 355 237 -276 395 -39 197 -237 355 -40 198 -355 434 0 276 -316 316 -79 237 -434 0 -513 395 -158 355 39 237 316 237 -118 197 237 79 434 276 355 395 237 395 -39 158 355 513 276 0 474 553 118 355 -79 158 435 -790 513 -197 -198 -118 790 -119 158 -434 0 79 79 -79 553 -237 276 79 118 197 198 316 513 750 632 671 394 158 79 632 119 355 276 474 158 355 316 908 316 119 315 -119 829 198 1579 552 395 79 711 119 158 631 158 553 1026 237 39 276 -118 355 -829 198 -158 513 -158 592 119 316 750 118 118 1106 40 473 158 593 -158 236 276 79 -197 158 0 79 -237 395 -237 -237 -987 119 -237 -158 -316 118 0 40 -237 473 -513 711 237 276 -513 158 0 316 197 237 -79 276 -513 -79 -197 119 -277 -316 0 -40 -79 79 -315 237 -158 553 -40 513 434 355 -157 395 118 197 -158 277 0 79 316 947 -158 434 316 553 -119 237 119 355 -198 79 119 -158 395 474 -119 395 395 197 -237 198 40 315 592 592 276 237 474 356 39 197 198 158 -79 -119 -316 593 -119 276 79 237 -197 197 434 237 -158 355 -39 119 -237 276 -158 355 -39 395 -435 474 119 434 -40 237 119 237 -40 0 -197 592 -79 395 316 316 -79 197 276 158 -197 -197 -711 78 -631 -157 -119 39 -276 118 -158 356 -237 237 0 592 -474 118 -158 237 -39 276 -711 277 79 237 -434 197 -79 513 -118 513 158 395 -158 513 39 751 -355 276 -750 237 0 473 237 79 -40 -79 -197 -276 -356 -434 40 -119 -237 158 -592 -197 -513 395 -277 197 -473 197 0 316 158 316 -198 316 198 197 -632 316 79 0 -79 -118 -395 276 -395 513 158 316 -158 -39 -552 631 -355 276 -672 158 -118 -158 -671 158 -276 237 -40 -237 -316 198 -237 592 79 118 -355 632 513 434 79 277 -355 197 -1184 789 118 158 -79 -79 316 -276 0 -474 197 -118 553 158 237 39 276 -118 119 118 276 40 1145 -198 276 0 316 -315 710 -198 158 -197 435 0 631 631 474 316 592 -118 671 -119 79 119 632 79 1184 118 0 0 237 119 158 39 750 671 987 -118 355 79 434 237 237 -79 356 276 315 -316 632 79 237 -197 197 0 277 -356 434 198 118 -276 474 118 1579 -355 316 -158 710 -316 158 -40 198 -315 158 -316 473 158 -39 158 276 39 908 -79 158 79 276 -197 474 118 79 79 -39 -39 355 158 276 -237 671 118 198 -79 197 198 553 -40 395 -158 355 79 631 237 198 -79 355 40 237 355 158 118 474 237 0 119 355 -79 592 -277 790 -276 197 39 276 -79 198 158 434 -79 276 40 948 276 118 0 237 316 237 -237 434 -355 119 -40 197 316 39 158 198 -39 118 -198 40 0 197 -276 40 39 158 -158 197 119 592 197 237 -276 316 237 118 0 237 158 276 908 632 -158 355 39 592 -158 356 79 158 395 39 316 158 118 0 19897 40 -237 868 -237 395 158 158 -40 158 -197 158 -198 -40 -513 158 -118 276 -237 40 0 158 -395 157 237 198 79 868 158 277 0 394 -355 198 0 789 -119 395 40 277 -237 394 118 158 -197 513 -158 -39 -355 197 -395 632 632 592 1144 197 593 237 78 158 -394 1342 39 553 316 237 197 355 474 316 237 474 276 197 158 -39 158 -356 355 -157 198 -553 395 39 789 -158 592 316 316 -118 237 118 513 40 276 -158 119 434 197 395 79 -40 237 -197 40 -395 394 -513 435 -276 236 -514 316 -552 158 -79 40 -158 197 -40 632 198 315 -40 711 671 158 0 710 -315 711 -158 434 197 356 0 236 276 514 158 -79 474 592 119 -237 355 316 355 -79 197 237 40 -40 158 -79 39 119 237 118 40 0 -79 198 158 0 236 79 40 118 -355 316 -277 -79 -552 237 -237 631 -79 592 -395 435 119 1342 -158 316 236 158 671 315 316 356 79 1105 -237 513 -473 -158 -711 158 -474 158 -276 316 -158 1540 -355 789 118 987 -592 395 119 316 315 276 514 276 158 513 0 316 -119 119 -355 -395 -632 -79 -474 355 -473 869 -237 355 118 355 592 435 -197 276 -355 237 -79 592 710 79 829 118 158 277 0 1263 -829 671 -947 118 -553 -157 -710 39 -474 118 -237 474 -474 711 -631 947 -158 711 710 671 119 513 -40 948 -434 434 -434 395 -750 -79 -671 -474 -711 -158 -513 276 -1027 474 -552 790 -395 1223 -237 1500 158 711 -197 276 118 198 237 79 592 -277 2408 79 356 237 236 750 237 1224 -39 2763 -474 948 -474 1618 -1223 237 1381 198 592 -40 711 -632 1224 -157 631 -593 750 -236 40 -79 158 118 158 -237 2092 198 237 79 750 0 513 -158 355 -829 790 -198 0 -631 1026 -198 632 -750 1303 -592 434 -39 158 -237 0 -119 -119 40 277 -158 237 158 118 -277 316 237 158 40 513 -119 79 -276 -198 -158 316 40 237 -395 79 -158 198 -237 78 -39 2606 -2093 -79 -1342 118 -1105 237 -514 79 -2210 474 -79 0 -987 355 -1658 1106 -197 197 -198 118 -868 750 -553 987 -474 1303 -316 1619 -315 750 -593 789 -631 2053 -513 908 -553 1263 -790 1224 -631 671 -790 592 -710 750 -790 790 -2447 1776 -1382 632 -1066 276 -3000 790 -434 118 -395 198 -1342 908 -198 237 -552 1026 -119 118 -237 0 -710 948 -158 197 -474 632 -553 750 -631 355 -395 40 -553 276 -158 0 -1855 237 -1382 473 -1066 1659 -552 868 -790 1066 -434 829 -829 513 -197 355 -435 671 -118 316 -118 316 -277 1619 -1342 1539 -553 474 -394 1461 -830 1302 -947 1066 -947 671 -356 474 -1500 1421 -789 908 -2290 3672 -118 236 -356 514 -118 315 -40 119 -118 829 -79 2289 -158 948 0 39 0 79 158 2369 158 513 -40 750 -197 355 -395 711 -2447 2290 0 118 -987 553 -2566 276 -355 -118 -948 -987 -237 158 -434 947 -158 119 -197 0 -119 -79 -158 -237 119 -829 -119 -316 -276 -158 -355 40 -277 236 198 908 0 356 -119 157 -671 -157 -947 79 -474 236 -237 237 -39 158 0 79 118 237 395 513 0 158 -237 513 -513 40 -987 -316 -158 -118 -158 -198 -39 -395 158 -710 -356 -1066 -118 -158 -869 118 -513 -513 -355 -118 -1619 158 -513 -277 -1145 79 -908 -434 -1066 0 -631 -1500 -198 -237 -829 -316 -552 -315 -671 276 -198 -40 -79 -276 395 -553 79 -552 -118 -316 -79 -1105 -514 -593 -118 -434 79 -197 158 -198 197 -118 395 0 316 -197 118 -829 -79 -356 -513 -750 -434 -197 -395 -474 -355 -118 -395 315 -197 79 -790 237 -631 277 -395 39 -356 -158 119 -395 829 -947 -355 -395 -40 -316 119 -552 552 -948 119 -513 39 -158 0 -118 0 -79 0 -277 -158 -631 -276 -434 -79 -474 -118 -40 157 -236 0 -553 -39 -671 -355 -987 -395 -513 -1145 79 -750 157 -671 435 -513 0 -356 -316 -907 -1342 -80 -198 80 -434 -474 -276 -435 -671 119 -632 -355 -592 750 -1145 -40 -316 -592 -908 79 -473 474 -1066 -79 -869 -198 -355 -355 -355 -513 0 -790 -514 -434 -473 -237 -829 -2487 -1698 -158 -552 -118 -316 -197 -316 -869 -237 -671 395 -197 0 -829 -277 -158 -197 -869 -2526 -355 -672 -198 -1144 0 -1066 -276 -395 -592 -237 -395 -553 119 -1144 -593 -316 -236 -513 -79 -514 -237 -236 -198 -474 -592 -395 -434 -632 -355 -236 -395 -1185 237 -592 158 -316 -592 -908 -711 -434 -79 -868 -395 -711 -513 -395 -395 -710 514 -671 0 -198 39 -434 -276 -829 394 -1105 -118 -277 -355 -197 355 -671 -118 -277 355 -315 118 -316 0 -316 -197 -395 39 -434 198 -790 868 -1105 316 -1105 198 -395 -40 -118 -592 -474 -395 158 -237 -119 -237 -750 -236 -316 -869 -592 -197 -710 -395 -237 -158 79 -237 -395 -1342 -790 -671 -513 -395 -671 -474 -474 -1737 -947 -237 -237 -1618 -1105 -79 -592 79 -316 0 -829 -197 -237 -316 -118 -40 -632 -79 -276 277 -277 -40 -158 -158 -315 -237 -158 -39 -395 -553 -395 -79 -197 0 -1066 -158 -592 79 -356 435 -394 315 -79 435 197 315 0 237 -118 158 -237 119 -711 -198 -474 -473 -276 -277 -631 -39 -711 -119 0 -118 276 -158 79 -1145 -237 -1697 908 -356 0 -315 -315 -40 -237 513 -553 237 -513 -237 -395 -710 -237 -158 -158 -198 -710 79 -119 553 -158 355 -236 -158 -632 -355 -237 -513 -40 -40 316 -157 79 -829 -671 -1224 356 -316 394 -276 -39 -395 -435 434 -236 197 -237 -39 -513 158 -395 -158 -434 -197 -119 -237 158 -316 1026 -434 0 -79 -394 -158 -40 -434 277 -356 -198 -39 -434 552 -711 0 -158 -671 -276 -237 119 277 315 0 435 -513 315 -40 316 -750 -276 -237 -474 -197 434 -198 -39 -315 -198 -277 -473 -394 -237 -395 79 -198 276 474 355 79 158 -39 158 -79 40 -474 79 -237 -158 -632 79 -118 -79 79 -158 316 -119 -79 -118 -355 158 -711 -197 -237 237 -158 -237 395 -908 -158 -158 -395 -119 -118 -394 -671 -40 -198 474 -434 197 -158 -39 0 -198 158 -118 198 -119 0 -236 157 -277 -118 -118 -237 79 -237 -119 -355 79 -79 -394 -355 -119 -277 395 -355 -237 -355 118 -198 -434 119 -513 -316 -513 -355 158 -237 -40 197 316 -118 237 -513 -197 -514 394 -197 -39 -237 -198 -355 198 79 316 -276 -119 -79 -118 118 -434 -158 -277 158 -395 -474 -789 -513 -40 -79 -236 237 -553 276 -316 0 -197 -315 79 -237 236 -158 -315 -158 0 -119 -198 277 -158 0 -197 -356 -316 119 -237 -395 -158 -39 -394 -119 -79 -158 118 -158 -79 -394 -39 -237 -158 -79 -316 -119 0 -197 395 0 592 -118 79 -198 -198 -197 -592 -513 -237 -316 -276 -40 -355 -473 0 -158 -277 -474 119 40 -237 -237 -197 118 -79 -118 -277 79 -118 -237 -79 -198 79 -394 0 315 -276 40 -237 -276 118 -119 -197 -237 79 -158 -198 -158 0 -118 -118 276 -119 -118 -118 -276 118 -198 0 -197 -236 -237 118 -276 0 39 -197 -237 -40 -39 -197 -829 -316 -316 592 -553 -474 -473 119 -198 -158 -355 237 -987 -198 -197 119 0 158 -474 -119 0 119 -355 158 -198 -158 -197 118 -158 -197 -355 -79 -158 -277 -277 -197 -1145 -237 40 -237 -355 237 -671 -237 -316 198 -474 -40 -592 395 -276 -118 -632 197 -276 -118 -435 39 -236 -237 -79 119 -553 39 -829 -158 -79 -355 -197 -158 -40 -237 237 -237 -119 -276 553 -592 -237 0 40 -237 -316 -119 -118 -276 0 -829 -198 -474 -158 -78 40 -435 -119 -39 -197 -1106 237 -118 197 -434 -39 -79 118 0 79 -237 -79 -237 -237 -158 -276 40 79 -592 -395 -119 -316 -276 -118 -277 -316 -315 -118 -395 -119 -40 198 -473 -237 -316 0 -277 197 -157 -237 -829 316 -198 -158 -513 197 -316 -118 -197 197 -119 79 -276 277 -197 -40 -158 316 -198 -39 -237 473 -197 -39 -237 237 -158 -40 -316 -237 -197 -158 -395 -197 -118 -592 -711 -395 -710 79 -632 197 -118 -118 -277 158 -315 237 -158 -355 -553 -79 -434 -1935 -2014 -39 -197 -237 -197 -40 -356 119 -237z"/>
    </g>
  </g>
</svg>
