<?xml version="1.0" encoding="iso-8859-1"?>
<!DOCTYPE svg PUBLIC "-//W3C//DTD SVG 1.0//EN" "http://www.w3.org/TR/2001/REC-SVG-20010904/DTD/svg10.dtd">
<!-- Creator: CorelDRAW -->
<svg xmlns="http://www.w3.org/2000/svg"
  xmlns:odm="http://product.corel.com/CGS/11/cddns/"
  xml:space="preserve"
  style="shape-rendering:geometricPrecision; text-rendering:geometricPrecision; image-rendering:optimizeQuality; fill-rule:evenodd"
  viewBox="0 0 320000 224000"
  id="map-wrapper">
  <g id="map-location-wrapper">
    <g id="municipalities">
      <path microregion="12001" id="1200427" class="municipy" fill="transparent" d="M17272 35577l383 -174 104 -417 -104 -938 486 -383 1426 139 2537 -347 1252 69 556 -695 348 0 243 -278 209 69 104 -382 209 -139 764 660 383 105 1217 -313 417 -591 556 -244 243 -382 765 -35 869 -347 557 730 695 521 1078 313 903 0 209 -104 139 -730 452 -418 -70 -764 174 -105 4833 313 -70 -208 278 -487 765 -487 2016 313 765 -104 765 174 209 347 312 139 1078 105 939 347 1564 0 2225 835 1356 -1078 4693 1112 1113 244 2086 1460 3580 -1425 209 -626 313 139 139 869 -278 1495 869 904 -696 730 279 69 799 -104 348 209 -35 312 -487 -104 -1008 278 278 209 278 904 279 -487 382 348 -104 278 -765 35 -1078 764 -660 -243 -487 313 -313 730 -591 -243 -487 34 -34 418 -383 -139 -382 347 347 313 -660 313 0 452 -383 -104 244 -452 -383 -105 -486 487 -105 -139 -452 243 -104 348 -973 556 -244 -174 -1043 452 -417 105 -695 -105 -869 418 -1182 -557 0 -486 -383 -661 -591 -695 -347 -70 -869 -452 -487 244 -834 69 -139 -104 -174 139 -313 -382 -278 -140 -869 591 -696 140 -556 312 -487 -34 -834 521 -487 35 -278 278 -313 -35 -973 522 -1495 0 -174 -209 -660 383 -730 0 -139 278 -522 139 -695 591 -383 695 -312 -278 -557 765 -208 -70 -452 626 -313 69 -591 661 -1321 521 -243 -278 -174 105 -452 -279 -1843 383 -556 1495 -487 35 -625 -418 -661 0 -2920 2851 -626 35 -730 -591 -1043 -1426 -1182 -625 -695 452 -383 591 -1077 556 382 -800 -174 -799 -834 -835 -765 244 -626 -174 -486 -1460 -383 -522 -869 0 -521 417 -105 -69 -278 -452 -347 -139 -35 -869 -209 -522 -938 -973 104 -209 765 -243 -591 -939 208 -591 209 35 626 661 1286 104 417 -104 556 -730 348 -661 -174 -939 243 -1390 -243 -800z"/>
      <path microregion="12001" id="1200203" class="municipy" fill="transparent" d="M19706 48336l1077 -556 383 -591 695 -452 1182 625 1043 1426 730 591 626 -35 2920 -2851 661 0 625 418 487 -35 556 -1495 1843 -383 452 279 174 -105 243 278 1321 -521 591 -661 313 -69 452 -626 208 70 557 -765 312 278 383 -695 695 -591 522 -139 139 -278 730 0 660 -383 174 209 1495 0 973 -522 313 35 278 -278 487 -35 834 -521 487 34 556 -312 696 -140 869 -591 278 140 313 382 174 -139 139 104 834 -69 487 -244 869 452 347 70 591 695 383 661 0 486 1182 557 869 -418 695 105 417 -105 1043 -452 244 174 973 -556 104 -348 452 -243 105 139 486 -487 383 105 -244 452 383 104 0 -452 660 -313 -347 -313 382 -347 383 139 34 -418 487 -34 591 243 313 -730 487 -313 660 243 1078 -764 765 -35 104 -278 -382 -348 -279 487 -278 -904 -278 -209 1008 -278 487 104 35 -312 -348 -209 -799 104 -279 -69 696 -730 -869 -904 278 -1495 -139 -869 -313 -139 -209 626 -3580 1425 -2086 -1460 -1113 -244 522 -452 799 -208 417 139 348 -35 452 -313 521 -2225 -382 105 -174 -244 -208 0 -209 244 -313 0 -208 -174 -279 313 -556 -383 -208 209 -105 -139 -208 139 -174 -417 -174 139 -35 -105 -208 35 69 -417 -486 -243 -765 -1391 -244 -730 -834 -556 0 -313 9317 4311 20720 4276 -70 1217 209 1043 -70 973 -417 765 -35 1043 278 660 0 591 -139 696 -347 243 -174 591 35 521 -800 2017 -487 799 -452 348 -382 1251 -904 1043 35 869 208 452 557 -104 278 1113 313 521 938 626 70 452 -348 2259 313 1078 348 452 208 1182 -1043 -1460 -521 104 -348 313 -626 -104 -1182 1043 -1008 208 -869 522 -521 -313 -835 452 -521 -209 -1147 730 -557 -382 -764 -174 -452 -417 -522 -209 -1390 70 -1113 -313 -1043 -869 -69 243 -626 -1112 -3963 -244 -765 696 -209 521 -486 348 -139 313 -487 -70 -278 -452 -1391 -382 -591 0 -417 313 -278 -556 -487 -70 -1043 104 -278 -417 104 -1251 -486 -139 -70 -1669 -69 -209 -869 556 -313 487 -800 174 -69 521 -418 -104 -208 452 -869 695 -661 174 -938 522 -209 313 -591 -174 -348 973 -243 1599 556 1808 139 1217 348 695 -209 869 139 1947 -104 313 -382 452 -1460 730 -765 1321 -696 452 -173 487 -244 243 -417 209 -556 34 -1669 -278 -347 -973 -1217 -730 -626 0 -417 208 -1286 139 -2191 -173 -3928 730 -1043 243 -278 -417 -522 139 -799 -313 -417 139 -105 -174 -417 313 -695 -1008 -209 -1252 -243 -382 -417 -174 -313 139 -591 -104 -695 -417 -1078 -278 -174 -278 0 -348 -799 35 -522 -418 -904 -1077 313 -1460 -452 -800 139 -1112 -626 -869 -312 -209 -105 -452 -486 -243 -348 -939 -661 -174 348 -834 35 -626 -244 -1356 348 -660 -487 -1321 -556 -487 -417 -800 -661 -347 -34 -174z"/>
      <path microregion="12002" id="1200328" class="municipy" fill="transparent" d="M77206 114284l-278 -591 -313 -104 174 -243 -104 -313 -244 -174 -173 70 -105 -313 2851 -1008 139 -1113 139 -382 417 -522 1634 -695 2747 -765 347 -417 452 -1113 383 -208 417 0 452 -417 626 -1878 799 -1112 522 -1078 417 -1634 0 -1390 660 -2573 417 -660 939 -835 104 -313 -139 -1043 -1008 -1356 -591 -1633 -69 -1461 -244 -834 -486 -695 -591 -244 -1495 105 -1113 -313 313 -348 417 70 348 -244 139 -312 973 -591 174 -661 1043 -1147 487 -209 278 -347 174 34 521 -174 869 -903 105 -348 625 -313 279 35 104 -278 382 34 417 -521 557 -278 556 313 1043 139 313 243 347 -243 174 487 278 0 0 312 487 -104 243 348 209 -139 348 69 278 278 591 209 278 -278 139 69 0 383 382 -139 487 278 104 -209 522 105 208 208 -69 -382 626 -70 173 -174 -69 -486 417 -35 35 382 174 35 730 -626 69 -730 661 -382 -139 -174 104 -348 348 35 69 -382 487 0 104 -278 313 -70 70 -313 243 35 -209 -278 35 -556 209 0 208 347 278 -139 418 70 0 -487 382 -70 278 105 104 -105 -312 -417 0 -313 486 -69 452 348 417 -487 383 104 313 -452 660 104 35 -173 -313 -418 556 -556 244 209 -70 347 104 35 279 -174 -70 -521 869 -382 348 139 382 -418 487 0 -139 730 69 209 35 243 -174 279 244 451 34 591 174 0 209 279 139 1251 -626 209 -452 556 -347 104 -313 661 69 208 -521 522 -209 660 -452 522 -313 139 -243 278 -35 904 174 382 -209 835 174 173 174 418 591 486 35 313 417 105 139 243 313 0 521 313 279 -174 486 174 139 -244 209 -34 278 382 139 -35 -174 696 -278 -244 0 209 -174 -70 -35 417 -312 -34 -70 139 -208 0 -522 660 278 313 -104 174 104 313 -278 -35 -69 209 -383 174 278 417 -243 104 0 556 -452 -35 0 522 -174 35 104 278 -278 556 35 348 348 313 69 312 -243 418 -348 -35 -278 313 243 208 -208 139 313 278 -244 -34 -69 139 208 0 -34 799 -383 105 244 104 -35 139 243 278 -313 -35 -173 383 -105 -70 -417 348 104 417 139 104 174 -104 -104 313 139 243 -278 730 104 209 348 70 -35 139 -174 -70 -104 174 -452 139 139 104 -209 383 -69 -348 -209 -35 -34 348 -209 -70 -104 174 278 139 -244 383 -139 869 -173 35 0 -209 -313 104 69 383 -556 104 -70 348 -278 0 -104 173 -209 -34 -312 347 -244 -104 35 139 -243 104 104 383 174 104 -139 939 -174 -105 -174 139 35 244 -383 104 -173 591 -35 869 -313 313 -243 1182 347 383 70 1773 -244 104 -243 626 -174 -35 -35 347 -417 -69 -452 834 -69 -34 -313 382 -382 139 -174 313 -139 -35 -105 383 -521 278 -70 660 105 522 -626 313 174 382 -209 556 104 417 -660 1078 -70 487 -347 69 -105 557 -208 486 -556 313 -383 904 -869 452 -556 799 -1008 835 -557 834 0 487 -173 139 -730 -452 -1078 521 -834 70 -591 313 -835 1112 -1251 0 -2156 -382 -1321 660 -730 1565 -1217 -765 -1147 -382 -556 0 -556 -522 -452 -35 -278 209 -348 -556 -765 -174 -104 -313 382 -730 -69 -591 556 -1008 -35 -661 313 -834 -626 -730 313 -1182 -278 -174 -521 209 -765 -661 208 -2711 -591 -244 -834 417 -626 -452z"/>
      <path microregion="12001" id="1200336" class="municipy" fill="transparent" d="M12266 6062l2642 1426 38554 17208 0 313 834 556 244 730 765 1391 486 243 -69 417 208 -35 35 105 174 -139 174 417 208 -139 105 139 208 -209 556 383 279 -313 208 174 313 0 209 -244 208 0 174 244 382 -105 -521 2225 -452 313 -348 35 -417 -139 -799 208 -522 452 -4693 -1112 -1356 1078 -2225 -835 -1564 0 -939 -347 -1078 -105 -312 -139 -209 -347 -765 -174 -765 104 -2016 -313 -765 487 -278 487 70 208 -4833 -313 -174 105 70 764 -452 418 -139 730 -209 104 -903 0 -1078 -313 -695 -521 -557 -730 -869 347 -765 35 -243 382 -556 244 -417 591 -1217 313 -383 -105 -764 -660 -209 139 -104 382 -209 -69 -243 278 -348 0 -556 695 -1252 -69 -2537 347 -1426 -139 -486 383 104 938 -104 417 -383 174 -417 -382 -1564 -939 -348 -382 -2051 -487 -1252 -69 -382 -244 -904 -1773 -800 35 -1008 -973 -139 -1078 -904 -278 -1043 -730 -1599 -1843 -660 -35 -313 -1355 104 -209 834 0 939 -243 661 -1426 173 -730 418 -556 -348 -591 -174 -1286 -591 -765 -1008 -2051 174 -591 208 -70 348 70 313 626 348 -383 208 -35 974 1182 1738 35 452 -452 313 -973 1008 -452 556 -70 1078 313 1008 -486 278 34 209 278 -209 418 348 -35 1703 -835 765 -1077 0 -522 -695 -1112 69 -1495 -452 -591 -904 -487 -382 -382 -243 -1356 -731 -660 -104 -487 -660 -556 34 -418 -382 -556z"/>
      <path microregion="12001" id="1200351" class="municipy" fill="transparent" d="M39695 106323l904 -139 383 -695 486 -348 417 -695 1217 -313 0 -278 -452 -591 -34 -313 660 -521 904 -1426 869 -452 487 452 243 35 800 -417 104 -348 591 -208 174 -522 347 -243 35 -174 -904 -452 -104 -313 626 -556 1251 -487 730 -695 661 -1530 -174 -938 278 -765 -139 -626 -104 -939 -417 -660 69 -313 383 -209 208 -799 -1112 -348 -1008 -2607 -904 -348 -487 35 -35 -904 209 -313 486 -69 487 104 904 -1495 661 -452 695 209 521 -278 244 -348 521 -104 35 173 139 -69 1564 35 209 -452 -70 -383 522 -556 -70 -139 313 -104 0 -209 348 -208 104 243 3790 -5493 417 730 626 70 243 208 417 2469 522 243 521 35 313 521 521 278 1078 -34 1669 -348 1321 382 799 -34 383 243 521 -278 174 -244 0 -278 348 -278 1077 278 139 417 1217 -208 1287 382 660 -69 522 208 625 -347 348 -661 834 209 730 35 1009 347 591 -69 1529 278 2086 -1773 0 -2086 904 -591 695 35 904 347 174 661 939 69 521 -173 1182 521 174 487 -417 1182 0 556 347 521 626 348 1321 1391 383 730 -174 625 -730 696 -1043 626 -1739 1738 -382 591 35 243 382 35 1113 313 1495 -105 591 244 486 695 244 834 69 1461 591 1633 1008 1356 139 1043 -104 313 -939 835 -417 660 -660 2573 0 1390 -417 1634 -522 1078 -799 1112 -626 1878 -452 417 -417 0 -383 208 -452 1113 -347 417 -2747 765 -1634 695 -417 522 -139 382 -139 1113 -2851 1008 105 313 173 -70 244 174 104 313 -174 243 313 104 278 591 -104 174 -417 139 -35 174 -278 0 -695 -660 -70 -383 -313 -35 209 -312 -139 34 69 -417 -382 -104 -348 -348 -243 70 -139 -313 -174 -35 -139 243 -278 0 -487 -347 -278 0 -487 -452 -208 243 -244 35 -139 -139 -208 174 -35 -105 -348 -69 0 174 -208 -105 -70 -243 -104 243 -209 -69 -174 69 -69 244 -174 69 -765 -243 -208 139 -278 -243 -70 139 -35 -174 -1147 348 -69 208 -522 -382 70 -174 -105 69 -104 -278 -174 70 -69 -278 -105 139 -173 -313 -140 104 -243 -69 -69 139 -105 -139 -174 313 0 -418 -278 70 0 -243 -417 243 -35 -417 -278 208 -382 -243 -174 104 -626 -174 -34 -173 -418 173 -139 -347 -174 35 -69 -140 -313 105 -348 -139 70 69 -174 139 -313 -69 -69 243 -139 -35 34 -173 -208 69 -348 -278 70 -174 -452 70 -209 -278 -174 34 0 174 -173 -139 -244 209 35 -278 -209 69 70 -243 -243 174 -348 -174 -313 -452 139 -139 -69 -174 -209 -139 -20407 69 0 -173 765 -557 104 -1077 209 -487 382 -209z"/>
      <path microregion="12001" id="1200393" class="municipy" fill="transparent" d="M34133 66831l3928 -730 2191 173 1286 -139 417 -208 626 0 1217 730 347 973 1669 278 556 -34 417 -209 244 -243 173 -487 696 -452 765 -1321 1460 -730 382 -452 104 -313 -139 -1947 209 -869 -348 -695 -139 -1217 -556 -1808 243 -1599 348 -973 591 174 209 -313 938 -522 661 -174 869 -695 208 -452 418 104 69 -521 800 -174 313 -487 869 -556 69 209 70 1669 486 139 -104 1251 278 417 1043 -104 487 70 278 556 417 -313 591 0 1391 382 278 452 487 70 139 -313 486 -348 209 -521 765 -696 3963 244 626 1112 69 -243 1043 869 1113 313 1390 -70 522 209 452 417 764 174 557 382 1147 -730 521 209 835 -452 521 313 869 -522 1008 -208 1182 -1043 626 104 348 -313 521 -104 1043 1460 -556 3616 -1251 3372 -244 2607 904 2886 209 2398 452 974 -244 1634 174 625 452 452 -174 1287 -695 -35 -904 591 0 2086 -2086 1773 -1529 -278 -591 69 -1009 -347 -730 -35 -834 -209 -348 661 -625 347 -522 -208 -660 69 -1287 -382 -1217 208 -139 -417 -1077 -278 -348 278 0 278 -174 244 -521 278 -383 -243 -799 34 -1321 -382 -1669 348 -1078 34 -521 -278 -313 -521 -521 -35 -522 -243 -417 -2469 -243 -208 -626 -70 -417 -730 -3790 5493 -104 -243 -348 208 0 209 -313 104 70 139 -522 556 70 383 -209 452 -1564 -35 -139 69 -35 -173 -521 104 -244 348 -521 278 -695 -209 -661 452 -904 1495 -487 -104 -486 69 -209 313 -208 730 -313 278 -522 -591 -417 -1147 -69 -591 -279 -417 -34 -626 -417 -35 -731 -973 -69 -1286 -695 -835 -348 -1842 -417 -800 -487 -382 -626 -835 -556 209 -834 -417 -765 347 -452 -69 -382 -348 -244 0 -347 -521 -418 0 -486 -556 0 -904 -209 -244 -348 244 35 -626 -382 -209 -695 209 -174 -1043 174 -487 208 -1112 -452 -2295 -556 -1668z"/>
      <path microregion="12002" id="1200302" class="municipy" fill="transparent" d="M85202 126174l730 -1565 1321 -660 2156 382 1251 0 835 -1112 591 -313 834 -70 1078 -521 730 452 173 -139 0 -487 557 -834 1008 -835 556 -799 869 -452 383 -904 556 -313 208 -486 105 -557 347 -69 70 -487 660 -1078 -104 -417 209 -556 -174 -382 626 -313 -105 -522 70 -660 521 -278 105 -383 139 35 174 -313 382 -139 313 -382 69 34 452 -834 417 69 35 -347 174 35 243 -626 244 -104 -70 -1773 -347 -383 243 -1182 313 -313 35 -869 173 -591 383 -104 -35 -244 174 -139 174 105 139 -939 -174 -104 -104 -383 243 -104 -35 -139 244 104 312 -347 209 34 104 -173 278 0 70 -348 556 -104 -69 -383 313 -104 0 209 173 -35 139 -869 244 -383 -278 -139 104 -174 209 70 34 -348 209 35 69 348 209 -383 -139 -104 452 -139 104 -174 174 70 35 -139 -348 -70 -104 -209 278 -730 -139 -243 104 -313 -174 104 -139 -104 -104 -417 417 -348 105 70 173 -383 313 35 -243 -278 35 -139 -244 -104 383 -105 34 -799 -208 0 69 -139 244 34 -313 -278 208 -139 -243 -208 278 -313 348 35 243 -418 -69 -312 -348 -313 -35 -348 278 -556 -104 -278 174 -35 0 -522 452 35 0 -556 243 -104 -278 -417 383 -174 69 -209 278 35 -104 -313 104 -174 -278 -313 522 -660 208 0 70 -139 312 34 35 -417 174 70 0 -209 278 244 174 -696 -139 35 -278 -382 -209 34 -139 244 -486 -174 -279 174 -521 -313 -313 0 -139 -243 -417 -105 -35 -313 -591 -486 -174 -418 -174 -173 209 -835 -174 -382 35 -904 243 -278 313 -139 452 -522 209 -660 521 -522 -69 -208 313 -661 347 -104 452 -556 626 -209 -139 -1251 -209 -279 -174 0 -34 -591 -244 -451 174 -279 -35 -243 348 70 35 173 139 0 69 974 557 313 208 34 313 -243 521 35 313 -243 452 0 313 208 556 1530 -278 695 70 313 -139 382 -244 209 -34 487 208 486 -452 1009 765 139 35 452 765 278 -35 417 348 382 -70 278 417 209 -35 348 348 417 174 -139 243 486 278 -382 279 139 243 -174 452 35 208 487 452 -139 -104 452 348 -174 0 208 521 -417 -69 -278 313 0 69 -243 313 139 209 -487 278 70 0 173 313 0 -140 -347 452 -105 -69 244 348 -139 104 -522 243 452 383 -382 69 -313 209 69 -35 -312 174 -70 69 243 348 -208 278 417 139 -278 348 -278 -244 591 279 -139 208 104 174 -278 521 487 244 -209 -105 -417 174 -313 417 209 70 -765 243 139 174 -417 626 -209 139 -209 174 -34 347 382 70 -591 348 -556 173 0 591 382 244 -243 243 35 35 -383 382 -243 452 208 -139 -243 278 -243 105 -383 173 383 591 -348 139 139 -34 348 382 -591 243 -35 313 209 139 556 0 -348 209 -174 -174 -278 -208 -104 69 -174 174 -69 139 208 417 -208 174 173 209 -34 69 -174 -208 -174 0 -313 417 -243 278 0 174 -348 347 209 209 -661 556 383 -139 -452 452 -70 -174 -626 70 -278 -209 -347 139 -70 244 278 208 -278 209 -35 69 -243 209 -35 0 -278 521 -208 -69 -696 486 -139 0 -208 209 382 139 -348 -35 -417 487 -486 382 104 -139 -174 70 -278 278 -209 139 70 104 -383 452 -278 -104 -278 243 104 0 -312 348 34 -104 -139 -417 -34 139 -279 -139 -243 730 -417 452 208 -383 -625 417 -278 70 -939 348 -104 -35 -209 591 174 313 -104 -174 -313 -104 34 -35 209 -174 0 69 -487 -347 139 -104 -208 730 -522 312 209 105 -70 208 -591 -347 -869 347 -278 348 0 -35 -313 522 -278 -174 -765 730 -208 730 139 -70 -417 244 -557 174 -69 -174 -209 -70 -730 244 0 0 -313 173 -243 557 -174 104 278 8900 -6640 347 -69 278 -313 35 -209 -417 -243 -313 -417 626 -1113 452 -452 -939 -2016 70 -939 9108 2051 26838 14497 9178 5006 -1043 2677 -347 244 -313 34 -209 800 -347 521 -904 591 -139 591 -313 174 -522 0 -556 -208 -591 -939 -174 939 -938 1216 -765 661 -35 452 -313 521 -452 -69 -1251 1112 173 1739 -1564 903 -174 279 139 591 -104 208 -452 0 -313 174 -695 1564 -174 1252 -1773 2572 1043 939 139 487 556 313 -34 417 -661 -139 -104 -174 -7405 -4067 -695 243 -1217 1251 -904 418 -1217 0 -799 -522 -765 243 -800 557 -208 -35 -105 174 35 278 -243 313 -417 35 -348 451 -278 105 -244 -313 -173 69 -105 418 -799 -70 -522 -243 -799 -1321 -591 382 -1217 -382 -452 -557 -661 348 -764 70 -452 -418 -835 209 -278 417 -417 104 -834 1113 417 591 -348 452 -939 487 -625 1460 -383 521 -730 313 -1251 -35 -939 557 -973 2259 -1008 1078 -974 1564 -1182 1321 -834 418 -174 347 104 1252 -313 1668 -208 348 208 591 -104 348 -834 417 -939 -243 -869 34 -382 244 -591 1321 -904 521 -1217 139 -1147 1217 -1321 -69 -765 417 -209 -383 -243 0 -800 626 -556 661 -139 521 313 209 0 243 -556 278 -1287 243 -278 209 -660 1113 -730 312 -70 209 243 556 -347 487 -104 556 -140 174 -625 104 -765 1113 -313 174 -70 347 -243 139 -695 -417 -1147 2468 0 383 -1113 869 383 660 34 383 -139 243 -904 209 -347 347 34 452 487 904 70 1008 -765 800 -35 1495 -1634 452 -799 591 -139 382 -279 174 -417 1321 -347 278 -209 661 -521 382 -209 869 -730 139 -869 -347 -278 69 -244 661 -556 0 -1599 626 -452 -35 -939 -869 -417 34 -208 174 -70 522 -104 34 -313 -173 -487 695 -36329 -35 35 -556 800 -382 417 -522 -244 -660 35 -452 -660 -244 -70 -382 278 -556 591 -418 313 -660 487 -348 -765 -1043 0 -1077 -348 -139 -69 -209 139 -348 695 -695 591 -278z"/>
      <path microregion="12003" id="1200435" class="municipy" fill="transparent" d="M131126 128538l35 -1495 765 -800 -70 -1008 -487 -904 -34 -452 347 -347 904 -209 139 -243 -34 -383 -383 -660 1113 -869 0 -383 1147 -2468 695 417 243 -139 70 -347 313 -174 765 -1113 625 -104 140 -174 104 -556 347 -487 -243 -556 70 -209 730 -312 660 -1113 278 -209 1287 -243 556 -278 0 -243 -313 -209 139 -521 556 -661 800 -626 243 0 209 383 765 -417 1321 69 1147 -1217 1217 -139 904 -521 591 -1321 382 -244 869 -34 939 243 834 -417 104 -348 -208 -591 208 -348 313 -1668 -104 -1252 174 -347 834 -418 1182 -1321 974 -1564 1008 -1078 973 -2259 939 -557 1251 35 730 -313 383 -521 625 -1460 939 -487 348 -452 -417 -591 834 -1113 417 -104 278 -417 835 -209 452 418 764 -70 661 -348 452 557 1217 382 591 -382 799 1321 522 243 799 70 105 -418 173 -69 244 313 278 -105 348 -451 417 -35 243 -313 -35 -278 105 -174 208 35 800 -557 765 -243 799 522 1217 0 904 -418 1217 -1251 695 -243 7405 4067 104 174 661 139 173 1078 591 834 35 695 834 522 -834 1321 -347 208 -383 35 -174 -313 -417 -104 -174 209 139 347 765 105 -139 382 -487 0 70 591 -417 209 69 869 -313 -209 -556 417 -174 -69 -208 139 -70 556 -417 -139 -313 278 -347 -382 -209 313 174 208 486 35 244 208 -209 279 -556 -279 -139 661 -313 104 -521 -278 -313 104 -591 -34 -417 -278 -557 173 -799 835 -1008 -174 -35 209 -209 69 70 243 -209 0 -104 452 -278 278 -35 -139 -70 105 0 -139 -104 34 -35 278 -243 174 -104 -104 -278 139 -696 -35 -417 -208 -348 69 0 -174 -208 0 -104 -139 -105 139 -139 -104 -626 139 -382 383 -69 -209 -418 -139 -695 139 -313 -660 -487 -209 -139 209 -903 0 -313 243 -765 174 -348 556 -730 348 -556 695 -487 -35 -243 104 -348 974 -1043 -139 -174 243 70 1078 -661 452 -278 521 -591 452 -104 487 174 904 243 104 452 -243 209 -278 417 -174 208 104 174 -243 696 417 695 -313 626 35 1147 834 939 139 312 313 557 -70 347 661 800 765 139 452 313 174 626 -35 347 -556 174 208 348 -243 660 208 904 661 70 139 -139 139 208 243 661 105 973 765 -139 312 -139 -208 -139 139 -243 -243 -591 208 -139 -278 -452 313 -70 382 -278 70 -209 -209 -208 35 -348 -209 -104 348 -348 -278 -104 139 104 313 -591 -348 -417 278 -174 209 104 278 -208 104 -104 313 -279 -347 -486 556 35 243 -209 174 0 278 -556 70 -244 625 -347 139 0 244 208 208 -34 174 -313 174 104 348 -382 -70 -279 174 -69 -174 -382 452 -35 348 -244 382 -243 70 104 347 -139 -69 -452 521 -278 -139 70 556 -174 -139 -70 244 -452 34 -347 452 0 174 -383 348 174 208 -208 35 0 244 -348 208 -209 -104 -139 69 174 209 -209 243 -208 0 69 348 -208 382 -209 -104 -834 556 -70 696 -139 104 -174 591 105 695 -1078 765 0 174 -209 139 -69 382 -522 418 -104 382 -278 139 35 139 -417 243 -1043 1217 -904 626 -626 1425 -1112 835 -626 -70 -869 522 -139 417 -1078 1321 -800 660 -695 -139 -417 278 -209 522 -1807 1738 139 -5145 -35 -6258 278 -243 313 -661 452 -104 347 174 244 -869 278 -278 834 452 626 -452 487 -626 -139 -730 243 -104 -35 -557 313 -417 -104 -174 174 -243 -244 -70 -591 -1494 -208 -70 -209 -417 -591 -70 -382 -556 0 -208 -417 -452 -591 -1460 347 -279 209 -486 -35 -174 -243 0 208 -174 35 -452 -660 -348 104 -486 487 -244 139 209 -279 591 279 35 417 -174 591 521 243 -104 70 -174 -139 -417 -452 -139 -70 -243 243 -487 -278 -348 278 -104 279 313 695 35 174 -139 -35 -209 -313 -104 35 -661 591 105 35 -557 452 105 382 -591 313 625 104 -452 -695 -799 -209 -730 278 -209 244 417 347 -139 -313 -660 348 -105 348 -208 69 -591 -313 0 -243 -209 -626 278 35 244 -209 104 -104 -35 70 -382 -557 452 0 -244 -417 -208 -104 313 -348 0 -173 -244 -140 209 -34 -104 -209 69 35 278 -243 -173 -557 521 -34 -174 -279 -35 -69 730 -383 -34 -104 104 -104 -174 -104 70 0 417 -174 104 0 244 -313 -174 -104 347 -279 70 -34 243 -174 105 243 243 -208 35 -35 278 -383 -174 140 174 -487 0 35 556 -105 70 -69 -140 -70 140 139 139 -208 -35 -209 347 -104 -243 -313 383 -313 69 35 209 -383 -70 -625 556 -139 -104 -418 174 -139 348 -382 69 174 139 0 174 -313 278 -383 -452 -173 -35 -139 209 -244 -104 -208 347 243 70 -209 208 35 209 -208 -35 104 174 -174 104 209 313 -70 522 -69 69 -383 -174 -35 244 -869 347 -34 244 208 104 -348 209 -69 486 -174 -34 -69 278 -139 -105 -140 139 -382 -173 -452 243 -208 -104 -70 139 -209 -139 -173 591 -348 104 -243 -139 -765 452 -70 174 139 69 -556 487 -35 313 -313 69 -451 1078 -174 -35 -348 626 -174 0 -486 626 -1078 35 0 139 -104 -139 -383 417 -104 -139 -104 313 -383 139 -487 1390 -243 -35 -104 661 104 278 -209 348 -1042 -70 -70 104 -521 -139 -209 139 -765 0 -243 279 -730 139 -452 521 -939 626z"/>
      <path microregion="12002" id="1200609" class="municipy" fill="transparent" d="M83499 33283l730 139 7405 2294 21693 5006 11993 2816 13420 3060 15922 3441 -70 939 939 2016 -452 452 -626 1113 313 417 417 243 -35 209 -278 313 -347 69 -8900 6640 -104 -278 -557 174 -173 243 0 313 -244 0 70 730 174 209 -174 69 -244 557 70 417 -730 -139 -730 208 174 765 -522 278 35 313 -348 0 -347 278 347 869 -208 591 -105 70 -312 -209 -730 522 104 208 347 -139 -69 487 174 0 35 -209 104 -34 174 313 -313 104 -591 -174 35 209 -348 104 -70 939 -417 278 383 625 -452 -208 -730 417 139 243 -139 279 417 34 104 139 -348 -34 0 312 -243 -104 104 278 -452 278 -104 383 -139 -70 -278 209 -70 278 139 174 -382 -104 -487 486 35 417 -139 348 -209 -382 0 208 -486 139 69 696 -521 208 0 278 -209 35 -69 243 -209 35 -208 278 -244 -278 -139 70 209 347 -70 278 174 626 -452 70 139 452 -556 -383 -209 661 -347 -209 -174 348 -278 0 -417 243 0 313 208 174 -69 174 -209 34 -174 -173 -417 208 -139 -208 -174 69 -69 174 208 104 174 278 -209 174 0 348 -139 -556 -313 -209 -243 35 -382 591 34 -348 -139 -139 -591 348 -173 -383 -105 383 -278 243 139 243 -452 -208 -382 243 -35 383 -243 -35 -244 243 -591 -382 -173 0 -348 556 -70 591 -347 -382 -174 34 -139 209 -626 209 -174 417 -243 -139 -70 765 -417 -209 -174 313 105 417 -244 209 -521 -487 -174 278 -208 -104 -279 139 244 -591 -348 278 -139 278 -278 -417 -348 208 -69 -243 -174 70 35 312 -209 -69 -69 313 -383 382 -243 -452 -104 522 -348 139 69 -244 -452 105 140 347 -313 0 0 -173 -278 -70 -209 487 -313 -139 -69 243 -313 0 69 278 -521 417 0 -208 -348 174 104 -452 -452 139 -208 -487 -452 -35 -243 174 -279 -139 -278 382 -243 -486 -174 139 -348 -417 35 -348 -417 -209 70 -278 -348 -382 35 -417 -765 -278 -35 -452 -765 -139 452 -1009 -208 -486 34 -487 244 -209 139 -382 -70 -313 278 -695 -556 -1530 -313 -208 -452 0 -313 243 -521 -35 -313 243 -208 -34 -557 -313 -69 -974 -139 0 -35 -173 -348 -70 -69 -209 139 -730 -487 0 -382 418 -348 -139 -869 382 70 521 -279 174 -104 -35 70 -347 -244 -209 -556 556 313 418 -35 173 -660 -104 -313 452 -383 -104 -417 487 -452 -348 -486 69 0 313 312 417 -104 105 -278 -105 -382 70 0 487 -418 -70 -278 139 -208 -347 -209 0 -35 556 209 278 -243 -35 -70 313 -313 70 -104 278 -487 0 -69 382 -348 -35 -104 348 139 174 -661 382 -69 730 -730 626 -174 -35 -35 -382 -417 35 69 486 -173 174 -626 70 69 382 -208 -208 -522 -105 -104 209 -487 -278 -382 139 0 -383 -139 -69 -278 278 -591 -209 -278 -278 -348 -69 -209 139 -243 -348 -487 104 0 -312 -278 0 -174 -487 -347 243 -313 -243 -1043 -139 -556 -313 -557 278 -417 521 -382 -34 -104 278 -279 -35 -625 313 -105 348 -869 903 -521 174 -174 -34 -278 347 -487 209 -1043 1147 -174 661 -973 591 -139 312 -348 244 -417 -70 -313 348 -382 -35 -35 -243 382 -591 1739 -1738 1043 -626 730 -696 174 -625 -383 -730 -1321 -1391 -626 -348 -347 -521 0 -556 417 -1182 -174 -487 -1182 -521 -521 173 -939 -69 -174 -661 -904 -347 174 -1287 -452 -452 -174 -625 244 -1634 -452 -974 -209 -2398 -904 -2886 244 -2607 1251 -3372 556 -3616 -208 -1182 -348 -452 -313 -1078 348 -2259 -70 -452 -938 -626 -313 -521 -278 -1113 -557 104 -208 -452 -35 -869 904 -1043 382 -1251 452 -348 487 -799 800 -2017 -35 -521 174 -591 347 -243 139 -696 0 -591 -278 -660 35 -1043 417 -765 70 -973 -209 -1043 70 -1217z"/>
      <path microregion="12005" id="1200054" class="municipy" fill="transparent" d="M152541 166918l209 139 208 -417 348 -70 174 -313 174 140 730 0 139 173 313 -382 -70 -243 209 173 347 -34 139 -244 452 209 348 -35 243 139 0 209 417 35 0 139 -451 34 -35 313 347 348 383 -70 243 174 0 209 174 -139 278 34 35 -417 139 244 556 173 174 -34 -70 -209 279 35 173 -209 348 139 -104 -173 104 -452 243 -70 174 0 -174 452 139 104 487 -139 0 522 348 -139 35 -209 660 417 -139 -278 243 -452 -34 348 625 0 70 313 417 243 452 -382 139 521 556 0 139 -174 35 -556 661 -139 34 243 313 0 -104 -313 70 -208 382 69 139 418 278 -139 383 69 243 -626 278 35 174 -278 417 209 417 -348 104 660 174 35 -34 -521 139 -35 312 800 244 -279 139 313 174 -104 69 -591 1043 -278 35 -104 -313 -105 0 -139 522 70 -139 -348 139 -35 104 209 348 -35 -244 244 174 243 0 208 139 70 139 -139 0 417 278 -660 417 139 383 -139 174 208 -278 70 173 313 -278 208 70 800 243 730 -139 347 -939 1148 209 556 -104 174 -105 1460 -695 1460 22145 -5493 -69 2816 278 382 278 0 556 383 800 939 382 104 35 174 243 173 -104 626 452 105 35 -174 486 -348 -34 -104 278 -105 521 348 765 278 382 -35 313 209 278 -35 174 -208 244 69 417 -139 174 278 312 105 209 382 417 174 209 591 521 139 105 174 730 -278 34 104 696 139 174 209 521 -140 348 174 486 -174 244 313 625 -104 696 522 69 243 -208 313 -209 452 -973 -35 -209 591 -278 -243 0 208 -174 70 -452 -278 -139 173 70 244 -174 35 -139 -140 -556 -69 -174 -556 -348 208 -417 -278 -939 0 -174 104 70 557 -243 69 -209 -35 -139 -243 -1495 -243 174 243 -104 70 -661 -244 -452 209 -35 417 -312 -243 -696 313 -1043 -244 -452 452 -417 -104 -382 208 -174 -34 -278 347 -139 -278 -696 417 -278 -452 -591 452 -208 -104 69 -382 -278 -70 -104 -382 -522 -626 -173 -35 139 278 -557 -278 174 -417 -521 209 -313 -139 -313 69 -243 -278 -417 -35 -140 209 -764 139 -105 -35 35 -208 -313 34 -521 -208 -278 417 -244 -313 -521 139 -174 -243 -939 -174 -625 139 -105 348 -243 69 -139 -382 -383 -105 -869 244 -34 347 -348 0 174 209 -244 0 -417 348 -382 -209 -139 522 -417 -140 -139 522 -244 -139 -139 208 -69 -104 -244 244 -556 173 -70 244 -382 -313 -35 347 -452 35 174 209 -278 -174 -104 278 -591 35 69 208 -278 70 -278 -174 -104 104 -70 -312 -243 243 -243 -139 -279 521 -278 70 0 -174 278 -139 -452 104 70 557 -209 -209 -208 139 104 139 -382 70 -417 486 -313 0 -139 383 -626 174 -104 312 -279 -104 -104 174 -104 -104 -139 69 -174 -104 -139 174 -452 69 35 174 -452 243 -522 -208 -139 139 -625 -174 -70 174 -487 -278 -765 278 -243 -70 -313 383 -382 -139 -278 69 -313 348 -800 208 -660 -208 -765 35 -244 -70 -173 -278 -904 70 -278 -140 0 -208 -244 -243 -591 -105 -313 139 -173 -278 -626 -139 -313 70 -243 -35 -174 -243 139 -279 -522 -1182 -869 -556 -452 -765 -313 -313 -347 -34 -487 -522 -417 -174 -209 -347 -486 -244 -3998 2886 -70 -12863z"/>
      <path microregion="12005" id="1200104" class="municipy" fill="transparent" d="M192416 167926l1008 139 1530 -556 243 -348 105 -591 347 -382 209 -487 626 -452 382 -591 1147 -695 278 -348 835 70 1286 -800 -69 -695 243 -487 -139 -521 69 -765 313 -70 313 -278 522 -104 382 -939 556 -660 0 -417 765 -869 626 -105 278 209 973 35 348 -244 -2573 5528 209 139 487 -243 278 -383 904 -243 799 -869 313 -70 278 -487 348 -173 243 -835 348 70 243 -139 556 382 383 -69 104 139 383 -313 521 521 348 -69 69 -174 487 0 904 626 521 139 1043 -417 383 -452 173 0 279 -418 556 -139 730 765 348 70 139 -244 521 139 70 244 -139 243 382 383 243 -209 313 0 452 417 974 70 69 -174 139 139 104 -174 557 -104 556 452 452 35 452 -209 417 452 521 174 278 -278 800 0 104 208 348 70 139 -244 939 70 278 -348 626 -69 173 -139 313 417 244 -244 313 244 104 -174 452 -35 69 139 35 -208 174 -35 348 139 69 -209 35 174 313 -69 139 139 139 -174 -35 139 382 35 0 139 105 -209 104 70 765 -383 69 -243 626 104 209 244 104 -174 348 -35 556 -487 313 35 208 -208 452 34 0 105 383 -383 139 244 208 -35 -104 174 243 173 209 -139 70 139 556 35 69 174 105 -243 208 0 35 -348 278 278 209 -313 556 209 -35 382 209 -35 208 313 487 -556 626 35 313 -174 0 139 347 139 139 209 383 69 174 278 69 -382 209 0 174 -348 34 452 313 -452 278 487 -174 0 348 278 313 0 139 -208 0 243 243 -35 105 209 243 -209 104 556 139 0 -69 313 174 -69 347 347 -278 452 105 278 -244 70 0 278 -382 35 -174 -139 69 -174 -347 -35 -174 -174 -278 313 -591 -69 -243 139 34 -174 -486 556 -626 0 -556 209 -35 452 -174 -105 -313 244 -347 -70 -70 -139 -313 522 -487 69 -312 661 -174 69 -348 -347 -209 69 -486 -208 -383 278 -625 69 -70 209 278 104 -35 174 -417 209 -35 243 279 591 -70 104 174 35 -70 348 -799 347 -417 696 -279 104 -764 938 173 730 383 418 35 313 -70 243 -278 139 35 278 -348 556 -208 105 -348 1043 7440 34 278 -174 34 -208 313 -70 313 -313 417 -69 835 174 521 -452 348 -730 521 69 1252 -660 347 -383 0 -486 383 -35 243 174 487 -209 487 591 -105 174 -417 104 -69 -139 278 -313 -383 0 -174 417 -451 452 660 696 -243 347 -278 -139 173 244 -104 173 104 383 -243 417 -278 -139 -209 278 209 765 -139 174 -383 -105 -243 765 -278 278 -417 -243 -348 0 70 278 -278 244 -209 0 -174 -244 -208 35 104 348 -556 591 313 208 -313 104 -174 591 -383 -382 -173 35 -209 278 174 209 -104 139 -174 -70 -70 -348 -139 -34 -35 208 -139 -104 -69 278 139 522 -174 625 -1251 417 -418 -208 105 139 -139 278 417 348 -313 139 -104 382 -279 -243 -69 -417 -139 243 -209 -35 139 730 105 174 -591 383 69 -452 -278 69 -348 313 0 -278 244 -139 -35 -383 -556 313 -383 -139 35 -208 -139 -35 -243 313 -35 417 -70 -661 -382 -104 278 -348 -313 35 -139 174 -452 -35 348 313 -348 0 -174 174 -312 -104 -244 208 -104 -278 174 -208 -313 -105 -278 383 -174 -209 139 -69 -35 -139 -243 -35 -522 556 -34 556 -418 -139 -208 -243 -348 0 -139 313 209 34 34 -208 174 348 -243 69 -278 -139 -70 -348 -278 -208 -660 695 -452 -313 -174 139 -417 -556 -557 313 -34 -348 -383 -139 174 -521 -348 139 -451 -209 -487 383 -278 69 174 452 -487 104 0 -313 -244 140 -556 -105 -104 -139 209 -278 -35 -174 -591 0 -35 -382 -348 104 -243 -382 -348 208 -139 -313 -486 452 -487 -834 -243 382 -383 -173 -660 417 -418 -383 -451 383 -70 -591 -626 278 -35 -383 -208 244 -278 69 -70 -104 278 -278 -452 69 70 -417 -487 452 -765 -417 -173 -313 -626 -35 -695 383 -209 -313 -556 -452 -278 487 -209 34 -626 -208 313 -139 -35 -174 -869 104 -139 278 139 209 -139 70 -347 -487 -174 69 -139 244 -383 -174 -313 69 -660 -173 -174 -348 -174 556 -278 -69 -104 -278 -278 486 -174 -208 69 -383 -452 -69 -69 313 -695 -209 -70 626 -139 -70 -70 -486 -278 34 -104 -347 -313 34 104 383 -139 35 -278 -661 -208 0 -313 417 -104 -521 -313 0 208 -313 -69 -243 -696 -522 -625 104 -244 -313 -486 174 -348 -174 -521 140 -174 -209 -696 -139 -34 -104 -730 278 -105 -174 -521 -139 -209 -591 -417 -174 -209 -382 -312 -105 -174 -278 -417 139 -244 -69 -174 208 -278 35 -313 -209 -382 35 -765 -278 -521 -348 -278 105 34 104 -486 348 -35 174 -452 -105 104 -626 -243 -173 -35 -174 -382 -104 -800 -939 -556 -383 -278 0 -278 -382 69 -2816z"/>
      <path microregion="12004" id="1200138" class="municipy" fill="transparent" d="M241295 114458l313 -660 -243 -313 104 -556 487 -383 243 -799 417 -661 452 -313 869 -278 105 -243 -313 -800 1286 -1460 730 -452 1008 -973 1217 -105 1008 -208 1008 208 452 -139 105 -1356 1599 -1216 556 -70 521 -313 1113 139 939 -382 278 35 521 -348 313 -521 765 -35 452 -522 626 -208 556 -452 626 35 556 -278 10951 4658 -139 139 -279 -104 -764 591 -244 -70 -452 313 -208 -69 -70 278 -799 -209 0 -174 -591 209 34 -313 -486 -209 -105 209 -312 -35 -383 244 -69 591 -418 834 -34 973 521 869 1008 904 313 661 0 347 -521 1078 -1843 1252 -347 -174 -313 104 -209 835 -348 591 279 556 34 591 -139 208 -208 70 0 348 69 139 4415 1668 3894 1843 -174 626 348 69 -70 522 278 278 904 347 209 -139 695 1078 174 35 243 -487 174 452 278 -139 139 104 -104 209 660 382 661 -208 104 -348 313 139 -139 417 278 626 -834 278 -452 522 209 660 -487 730 -35 661 382 1008 -208 904 -661 -487 -313 0 -382 -626 -278 -139 -1495 35 -278 174 -556 35 -278 312 -418 -208 -521 174 -834 34 -313 -173 -139 -244 -591 348 -209 591 -1669 591 -521 591 -452 -174 -452 348 -174 -35 -278 382 -452 278 -174 487 -486 383 -800 347 -1877 -35 -4693 -5110 -383 104 -1112 -1390 -1043 -209 -313 -243 -417 -35 -348 139 -452 -139 -1460 382 -104 557 -904 313 -348 312 -174 418 -660 34 -417 661 1251 -6779 -347 -695 -105 -383 -382 -452 69 -730 -452 -417 -139 -348 452 -660 730 -417 -69 -661 278 -695 -104 -383 278 -695 -348 0 -174 -208 -625 -35 -1530 -591 -834 382 -1287 -1112 -973 -348 -209 139 -904 -69 -452 139 -452 799 -695 591z"/>
      <path microregion="12005" id="1200252" class="municipy" fill="transparent" d="M235177 180720l591 -383 -105 -174 -139 -730 209 35 139 -243 69 417 279 243 104 -382 313 -139 -417 -348 139 -278 -105 -139 418 208 1251 -417 174 -625 -139 -522 69 -278 139 104 35 -208 139 34 70 348 174 70 104 -139 -174 -209 209 -278 173 -35 383 382 174 -591 313 -104 0 209 208 35 -69 382 347 243 -69 209 382 69 35 -139 243 174 174 904 70 70 -209 139 243 34 591 -69 -34 208 312 244 -243 765 383 1008 139 139 2885 0 -695 -278 -591 -35 -70 -2225 522 -1251 104 -1322 452 -451 1043 -348 0 -487 278 -382 834 -1634 1009 -974 278 -1425 764 -1251 244 -1426 174 -452 2259 -834 1009 -591 3511 -904 313 35 3372 1703 1599 35 313 -348 1738 1043 35 244 -174 104 209 104 -139 105 104 521 139 -35 208 383 -208 139 -70 382 -173 139 139 522 -105 173 -521 209 -313 556 -695 522 -105 313 -452 243 -625 765 -244 35 -417 799 -626 139 -139 765 -278 104 104 383 -139 660 -764 417 -209 418 70 313 -140 34 0 661 -312 556 -487 278 -383 487 -625 278 -313 452 -278 69 -174 -104 -834 174 -557 313 -243 452 -278 174 -417 -383 -522 -35 -1390 626 -278 487 139 278 -35 313 -313 382 -278 105 -209 -35 -382 -556 -313 69 -382 -452 -591 661 -1878 208 -765 626 -104 348 -521 695 -1009 487 -34 486 -7648 1565 208 -695 -487 -661 70 -487 -626 -452 -278 139 -209 -69 -243 -417 -278 -70 70 -347 -383 -452 243 -452 -312 -313 312 -452 348 -104 70 -730z"/>
      <path microregion="12003" id="1200344" class="municipy" fill="transparent" d="M152472 138550l1807 -1738 209 -522 417 -278 695 139 800 -660 1078 -1321 139 -417 869 -522 626 70 1112 -835 626 -1425 904 -626 1043 -1217 417 -243 -35 -139 278 -139 104 -382 522 -418 69 -382 209 -139 0 -174 1078 -765 -105 -695 174 -591 139 -104 70 -696 834 -556 209 104 208 -382 -69 -348 208 0 209 -243 -174 -209 139 -69 209 104 348 -208 0 -244 208 -35 -174 -208 383 -348 0 -174 347 -452 452 -34 70 -244 174 139 -70 -556 278 139 452 -521 139 69 -104 -347 243 -70 244 -382 35 -348 382 -452 69 174 279 -174 382 70 -104 -348 313 -174 34 -174 -208 -208 0 -244 347 -139 244 -625 556 -70 0 -278 209 -174 -35 -243 486 -556 279 347 104 -313 208 -104 -104 -278 174 -209 417 -278 591 348 -104 -313 104 -139 348 278 104 -348 348 209 208 -35 209 209 278 -70 70 -382 452 -313 139 278 591 -208 243 243 139 -139 139 208 139 -312 -973 -765 -661 -105 -208 -243 139 -139 -70 -139 -904 -661 -660 -208 -348 243 -174 -208 -347 556 -626 35 -313 -174 -139 -452 -800 -765 -347 -661 -557 70 -312 -313 -939 -139 -1147 -834 -626 -35 -695 313 -696 -417 -174 243 -208 -104 -417 174 -209 278 -452 243 -243 -104 -174 -904 104 -487 591 -452 278 -521 661 -452 -70 -1078 174 -243 1043 139 348 -974 243 -104 487 35 556 -695 730 -348 348 -556 765 -174 313 -243 903 0 139 -209 487 209 313 660 695 -139 418 139 69 209 382 -383 626 -139 139 104 105 -139 104 139 208 0 0 174 348 -69 417 208 696 35 278 -139 104 104 243 -174 35 -278 104 -34 0 139 70 -105 35 139 278 -278 104 -452 209 0 -70 -243 209 -69 35 -209 1008 174 799 -835 557 -173 417 278 591 34 313 -104 521 278 313 -104 139 -661 556 279 209 -279 -244 -208 -486 -35 -174 -208 209 -313 347 382 313 -278 417 139 70 -556 208 -139 174 69 556 -417 313 209 -69 -869 417 -209 -70 -591 487 0 139 -382 -765 -105 -139 -347 174 -209 417 104 174 313 383 -35 347 -208 834 -1321 -834 -522 -35 -695 -591 -834 -173 -1078 34 -417 -556 -313 -139 -487 -1043 -939 1773 -2572 174 -1252 695 -1564 313 -174 452 0 104 -208 -139 -591 174 -279 1564 -903 -173 -1739 1251 -1112 452 69 313 -521 35 -452 765 -661 938 -1216 174 -939 591 939 556 208 522 0 313 -174 139 -591 904 -591 347 -521 209 -800 313 -34 347 -244 1043 -2677 5180 2816 11368 5667 8309 4415 -452 348 -1217 1947 -626 521 -1181 626 -70 278 -382 243 -139 -104 -70 -695 -348 -904 -347 -35 -1530 556 -2155 1356 -696 174 -347 313 -730 2016 -105 834 -521 1009 -626 278 -2746 34 -1843 418 -1599 1043 -1217 1182 -869 625 -139 626 -3650 1634 -4763 800 -765 834 -347 939 -1669 452 -487 452 -278 695 -591 278 -626 939 -556 1390 -487 313 -1321 35 -347 348 -661 1182 -35 625 209 800 70 660 -244 418 -278 0 -660 -452 -557 34 -660 835 -174 1251 243 2608 -730 591 -626 173 -69 557 -417 486 -244 139 -452 -173 -417 0 35 486 313 591 -348 661 417 730 -208 834 -522 487 -243 626 -591 591 -174 591 -382 521 -313 -104 -209 243 174 904 -139 1113 313 834 -348 382 105 487 -522 661 -1703 486 104 209 -139 69 35 383 -209 347 104 105 -34 626 -209 417 348 1703 -869 835 486 1460 -104 904 -417 591 521 1112 730 904 -104 1599 -313 521 452 348 -139 1912 -1217 70 -382 243 -626 104 -139 -104 -209 104 -451 -278 -626 105 -209 208 -35 556 -347 487 -383 104 -243 348 35 800 -904 486 -278 626 -383 243 -278 904 -1077 591 -174 487 -939 730 -1321 2155 -104 2643 382 278 -16652 -1739 35 -12793z"/>
      <path microregion="12004" id="1200401" class="municipy" fill="transparent" d="M206670 156871l347 -313 487 35 278 -243 313 173 904 -139 452 -591 -244 -382 209 -417 35 -452 313 -244 0 -591 278 -312 452 208 104 -243 348 69 69 -139 209 -35 313 -730 904 -173 486 -1148 417 -139 174 -313 522 -521 556 0 209 -452 417 -35 208 -521 244 69 208 -243 70 -591 695 0 209 -765 591 -104 243 417 313 35 487 -591 313 -174 382 139 243 -521 904 -279 383 -347 -35 -661 417 -417 591 -208 348 -661 -174 -174 0 -452 104 70 243 -487 244 -139 382 70 556 -731 244 -1042 417 -174 0 -800 209 -521 312 -313 383 0 174 -209 1286 -487 209 35 34 -174 696 -347 869 -1217 139 -973 1564 -1600 626 -104 382 -278 800 174 1842 -730 765 -70 417 -904 557 -625 347 -1113 557 -35 382 174 104 -417 557 -417 660 69 139 174 765 -174 174 -139 208 -695 522 -348 -174 -1355 69 -835 -382 -556 -35 -452 -417 -209 -243 -695 -591 -834 521 -765 -104 -973 -209 -313 -69 -626 69 -1182 278 -487 -208 -313 -104 -695 1321 -2364 417 -313 904 -139 695 70 70 -105 -209 -625 174 -626 -209 -348 695 -591 452 -799 452 -139 904 69 209 -139 973 348 1287 1112 834 -382 1530 591 625 35 174 208 348 0 -278 695 104 383 -278 695 69 661 -730 417 -452 660 139 348 452 417 -69 730 382 452 105 383 347 695 -1251 6779 417 -661 660 -34 174 -418 348 -312 904 -313 104 -557 1460 -382 452 139 348 -139 417 35 313 243 1043 209 1112 1390 383 -104 4693 5110 1877 35 800 -347 486 -383 174 -487 452 -278 278 -382 174 35 452 -348 452 174 521 -591 1669 -591 209 -591 591 -348 139 244 313 173 834 -34 521 -174 418 208 278 -312 556 -35 278 -174 1495 -35 278 139 382 626 313 0 661 487 208 -904 -382 -1008 35 -661 487 -730 -209 -660 452 -522 834 -278 1495 660 1704 939 173 -139 487 -35 -1599 1878 2468 69 348 -139 660 313 279 35 799 660 695 -347 313 69 591 -69 348 34 139 244 730 -244 452 904 209 139 -105 487 278 348 209 0 904 660 69 591 209 104 313 870 799 -244 591 278 696 -1147 174 -104 869 69 173 -104 0 -695 348 -765 -139 -1356 139 -487 904 -764 556 -800 1738 -1112 209 -661 661 -834 556 -1043 -139 -765 139 -1286 243 -522 35 -938 -556 -1078 591 -1217 8587 3685 -661 522 -904 0 -695 312 -417 418 104 208 -313 70 -139 243 -209 869 -869 417 -347 800 -904 626 69 243 -173 35 -279 278 -104 521 -660 557 -383 1077 -799 522 -1078 278 -139 278 -730 313 -417 591 173 660 -591 313 -591 105 -486 -244 -800 348 -382 730 208 348 -243 313 -1182 695 -174 347 209 452 -35 557 -1113 486 -243 730 -417 105 -348 452 -347 208 -174 487 -313 174 -556 765 -661 208 -382 313 -522 -174 -625 104 -2434 -1946 -1251 -730 -5563 -35 -35 347 591 696 174 486 -174 244 557 799 417 1182 -278 626 174 765 347 382 -347 174 173 452 174 139 383 -69 973 1182 487 278 452 1529 695 1287 417 0 522 1356 1008 625 104 -139 939 522 69 452 -104 278 -487 208 105 452 -244 174 35 417 -522 383 35 521 -2051 -313 -208 -139 -279 -556 -34 -730 -904 -1495 -1252 -765 -521 -139 -313 -417 -70 -452 -243 -104 -139 -313 -243 -70 -209 -417 -35 -834 -695 -174 -139 -556 -70 278 -834 209 -70 278 418 173 139 348 -174 0 35 313 -348 521 -348 70 -34 348 243 347 278 0 104 244 -730 347 -486 -139 -418 591 522 -174 -139 313 -4450 313 -243 348 69 208 -174 0 -173 313 -452 -69 -487 208 -765 -34 -348 208 -382 626 -626 243 70 139 -174 35 -313 452 -1008 -417 -243 -487 -696 -417 -452 -591 -417 209 -487 -139 -382 347 -1078 -174 -973 174 -765 313 -1008 -313 -1043 626 35 -174 -105 -35 -973 174 -730 -69 -382 556 -1287 487 -347 625 -2017 974 -208 278 -626 104 -243 209 -279 591 -730 243 -347 -12272 -730 695 -313 0 -209 -278 -382 -69 -487 208 -174 279 105 799 -765 417 -174 730 -209 244 -556 243 -799 -69 -209 173 35 418 -452 139 -522 104 -765 -174 -34 139 -452 278 -70 313 -1217 243 -278 209 -1147 0 -1043 904 -695 0 -209 313 35 695 -174 139 -382 -69 -70 139 -591 243 -69 556 -1182 800 -70 660 -347 452 -974 730 313 765 -904 939 -19677 35 -660 486 -70 730 -173 139 -765 139 -904 522 -1356 69 -939 661 -2398 0z"/>
      <path microregion="12003" id="1200500" class="municipy" fill="transparent" d="M152437 151343l16652 1739 -382 -278 104 -2643 1321 -2155 939 -730 174 -487 1077 -591 278 -904 383 -243 278 -626 904 -486 -35 -800 243 -348 383 -104 347 -487 35 -556 209 -208 626 -105 451 278 209 -104 139 104 626 -104 382 -243 1217 -70 139 -1912 -452 -348 313 -521 104 -1599 -730 -904 -521 -1112 417 -591 104 -904 -486 -1460 869 -835 -348 -1703 209 -417 34 -626 -104 -105 209 -347 -35 -383 139 -69 -104 -209 1703 -486 522 -661 -105 -487 348 -382 -313 -834 139 -1113 -174 -904 209 -243 313 104 382 -521 174 -591 591 -591 243 -626 522 -487 208 -834 -417 -730 348 -661 -313 -591 -35 -486 417 0 452 173 244 -139 417 -486 69 -557 626 -173 730 -591 -243 -2608 174 -1251 660 -835 557 -34 660 452 278 0 244 -418 -70 -660 -209 -800 35 -625 661 -1182 347 -348 1321 -35 487 -313 556 -1390 626 -939 591 -278 278 -695 487 -452 1669 -452 347 -939 765 -834 4763 -800 3650 -1634 139 -626 869 -625 1217 -1182 1599 -1043 1843 -418 2746 -34 626 -278 521 -1009 105 -834 730 -2016 347 -313 696 -174 2155 -1356 1530 -556 347 35 348 904 70 695 139 104 382 -243 70 -278 1181 -626 626 -521 1217 -1947 452 -348 9039 4728 2503 1217 4728 2155 19051 8240 -556 278 -626 -35 -556 452 -626 208 -452 522 -765 35 -313 521 -521 348 -278 -35 -939 382 -1113 -139 -521 313 -556 70 -1599 1216 -105 1356 -452 139 -1008 -208 -1008 208 -1217 105 -1008 973 -730 452 -1286 1460 313 800 -105 243 -869 278 -452 313 -417 661 -243 799 -487 383 -104 556 243 313 -313 660 209 348 -174 626 209 625 -70 105 -695 -70 -904 139 -417 313 -1321 2364 104 695 208 313 -278 487 -69 1182 69 626 209 313 104 973 -521 765 591 834 243 695 417 209 35 452 382 556 -69 835 174 1355 -522 348 -208 695 -174 139 -765 174 -139 -174 -660 -69 -557 417 -104 417 -382 -174 -557 35 -347 1113 -557 625 -417 904 -765 70 -1842 730 -800 -174 -382 278 -626 104 -1564 1600 -139 973 -869 1217 -696 347 -34 174 -209 -35 -1286 487 -174 209 -383 0 -312 313 -209 521 0 800 -417 174 -244 1042 -556 731 -382 -70 -244 139 -243 487 -104 -70 0 452 174 174 -348 661 -591 208 -417 417 35 661 -383 347 -904 279 -243 521 -382 -139 -313 174 -487 591 -313 -35 -243 -417 -591 104 -209 765 -695 0 -70 591 -208 243 -244 -69 -208 521 -417 35 -209 452 -556 0 -522 521 -174 313 -417 139 -486 1148 -904 173 -313 730 -209 35 -69 139 -348 -69 -104 243 -452 -208 -278 312 0 591 -313 244 -35 452 -209 417 244 382 -452 591 -904 139 -313 -173 -278 243 -487 -35 -347 313 -313 139 -765 -35 -348 244 -973 -35 -278 -209 -626 105 -765 869 0 417 -556 660 -382 939 -522 104 -313 278 -313 70 -69 765 139 521 -243 487 69 695 -1286 800 -835 -70 -278 348 -1147 695 -382 591 -626 452 -209 487 -347 382 -105 591 -243 348 -1530 556 -1008 -139 -22145 5493 695 -1460 105 -1460 104 -174 -209 -556 939 -1148 139 -347 -243 -730 -70 -800 278 -208 -173 -313 278 -70 -174 -208 -383 139 -417 -139 -278 660 0 -417 -139 139 -139 -70 0 -208 -174 -243 244 -244 -348 35 -104 -209 -139 35 139 348 -522 -70 0 139 313 105 -35 104 -1043 278 -69 591 -174 104 -139 -313 -244 279 -312 -800 -139 35 34 521 -174 -35 -104 -660 -417 348 -417 -209 -174 278 -278 -35 -243 626 -383 -69 -278 139 -139 -418 -382 -69 -70 208 104 313 -313 0 -34 -243 -661 139 -35 556 -139 174 -556 0 -139 -521 -452 382 -417 -243 -70 -313 -625 0 34 -348 -243 452 139 278 -660 -417 -35 209 -348 139 0 -522 -487 139 -139 -104 174 -452 -174 0 -243 70 -104 452 104 173 -348 -139 -173 209 -279 -35 70 209 -174 34 -556 -173 -139 -244 -35 417 -278 -34 -174 139 0 -209 -243 -174 -383 70 -347 -348 35 -313 451 -34 0 -139 -417 -35 0 -209 -243 -139 -348 35 -452 -209 -139 244 -347 34 -209 -173 70 243 -313 382 -139 -173 -730 0 -174 -140 -174 313 -348 70 -208 417 -209 -139 -104 -15575z"/>
      <path microregion="12005" id="1200708" class="municipy" fill="transparent" d="M205592 156975l765 35 313 -139 2398 0 939 -661 1356 -69 904 -522 765 -139 173 -139 70 -730 660 -486 19677 -35 904 -939 -313 -765 974 -730 347 -452 70 -660 1182 -800 69 -556 591 -243 70 -139 382 69 174 -139 -35 -695 209 -313 695 0 1043 -904 1147 0 278 -209 1217 -243 70 -313 452 -278 34 -139 765 174 522 -104 452 -139 -35 -418 209 -173 799 69 556 -243 209 -244 174 -730 765 -417 -105 -799 174 -279 487 -208 382 69 209 278 313 0 730 -695 347 12272 730 -243 279 -591 243 -209 626 -104 208 -278 2017 -974 347 -625 1287 -487 382 -556 730 69 973 -174 105 35 -35 174 1043 -626 1008 313 765 -313 973 -174 1078 174 382 -347 487 139 417 -209 452 591 696 417 243 487 1008 417 209 487 382 278 -69 313 -174 35 -661 625 -69 452 -452 452 104 348 -382 174 -383 -35 -139 174 139 452 -69 556 1668 1842 278 1078 -173 452 104 521 556 557 104 765 661 451 765 696 -1147 973 0 835 243 243 69 417 -243 139 -174 -174 -104 174 -70 -104 -208 69 -278 278 -244 -104 70 452 -417 209 -626 34 -382 313 -105 313 -417 -35 -174 452 -382 174 -174 313 -209 0 70 209 -209 0 -243 347 -1738 -1043 -313 348 -1599 -35 -3372 -1703 -313 -35 -3511 904 -1009 591 -2259 834 -174 452 -244 1426 -764 1251 -278 1425 -1009 974 -834 1634 -278 382 0 487 -1043 348 -452 451 -104 1322 -522 1251 70 2225 591 35 695 278 -2885 0 -139 -139 -383 -1008 243 -765 -312 -244 34 -208 -591 69 -243 -34 209 -139 -70 -70 -174 -904 -243 -174 -35 139 -382 -69 69 -209 -347 -243 69 -382 -208 -35 0 -209 -313 -208 556 -591 -104 -348 208 -35 174 244 209 0 278 -244 -70 -278 348 0 417 243 278 -278 243 -765 383 105 139 -174 -209 -765 209 -278 278 139 243 -417 -104 -383 104 -173 -173 -244 278 139 243 -347 -660 -696 451 -452 174 -417 383 0 -278 313 69 139 417 -104 105 -174 -487 -591 -487 209 -243 -174 -383 35 0 486 -347 383 -1252 660 -521 -69 -348 730 -521 452 -835 -174 -417 69 -313 313 -313 70 -34 208 -278 174 -7440 -34 348 -1043 208 -105 348 -556 -35 -278 278 -139 70 -243 -35 -313 -383 -418 -173 -730 764 -938 279 -104 417 -696 799 -347 70 -348 -174 -35 70 -104 -279 -591 35 -243 417 -209 35 -174 -278 -104 70 -209 625 -69 383 -278 486 208 209 -69 348 347 174 -69 312 -661 487 -69 313 -522 70 139 347 70 313 -244 174 105 35 -452 556 -209 626 0 486 -556 -34 174 243 -139 591 69 278 -313 174 174 347 35 -69 174 174 139 382 -35 0 -278 244 -70 -105 -278 278 -452 -347 -347 -174 69 69 -313 -139 0 -104 -556 -243 209 -105 -209 -243 35 0 -243 -139 208 -313 0 -348 -278 174 0 -278 -487 -313 452 -34 -452 -174 348 -209 0 -69 382 -174 -278 -383 -69 -139 -209 -347 -139 0 -139 -313 174 -626 -35 -487 556 -208 -313 -209 35 35 -382 -556 -209 -209 313 -278 -278 -35 348 -208 0 -105 243 -69 -174 -556 -35 -70 -139 -209 139 -243 -173 104 -174 -208 35 -139 -244 -383 383 0 -105 -452 -34 -208 208 -313 -35 -556 487 -348 35 -104 174 -209 -244 -626 -104 -69 243 -765 383 -104 -70 -105 209 0 -139 -382 -35 35 -139 -139 174 -139 -139 -313 69 -35 -174 -69 209 -348 -139 -174 35 -35 208 -69 -139 -452 35 -104 174 -313 -244 -244 244 -313 -417 -173 139 -626 69 -278 348 -939 -70 -139 244 -348 -70 -104 -208 -800 0 -278 278 -521 -174 -417 -452 -452 209 -452 -35 -556 -452 -557 104 -104 174 -139 -139 -69 174 -974 -70 -452 -417 -313 0 -243 209 -382 -383 139 -243 -70 -244 -521 -139 -139 244 -348 -70 -730 -765 -556 139 -279 418 -173 0 -383 452 -1043 417 -521 -139 -904 -626 -487 0 -69 174 -348 69 -521 -521 -383 313 -104 -139 -383 69 -556 -382 -243 139 -348 -70 -243 835 -348 173 -278 487 -313 70 -799 869 -904 243 -278 383 -487 243 -209 -139 2573 -5528z"/>
      <path microregion="12004" id="1200807" class="municipy" fill="transparent" d="M270915 105489l27012 11507 -591 1217 556 1078 -35 938 -243 522 -139 1286 139 765 -556 1043 -661 834 -209 661 -1738 1112 -556 800 -904 764 -139 487 139 1356 -348 765 0 695 -173 104 -869 -69 -174 104 -696 1147 -591 -278 -799 244 -313 -870 -209 -104 -69 -591 -904 -660 -209 0 -278 -348 105 -487 -209 -139 -452 -904 -730 244 -139 -244 -348 -34 -591 69 -313 -69 -695 347 -799 -660 -279 -35 -660 -313 -348 139 -2468 -69 1599 -1878 -487 35 -173 139 -1704 -939 -1495 -660 -278 -626 139 -417 -313 -139 -104 348 -661 208 -660 -382 104 -209 -139 -104 -278 139 -174 -452 -243 487 -174 -35 -695 -1078 -209 139 -904 -347 -278 -278 70 -522 -348 -69 174 -626 -3894 -1843 -4415 -1668 -69 -139 0 -348 208 -70 139 -208 -34 -591 -279 -556 348 -591 209 -835 313 -104 347 174 1843 -1252 521 -1078 0 -347 -313 -661 -1008 -904 -521 -869 34 -973 418 -834 69 -591 383 -244 312 35 105 -209 486 209 -34 313 591 -209 0 174 799 209 70 -278 208 69 452 -313 244 70 764 -591 279 104 139 -139z"/>
      <path microregion="12004" id="1200013" class="municipy" fill="transparent" d="M305297 134344l2572 -939 869 -4207 209 -417 626 -799 -244 -1669 -556 -243 -869 -1843 -973 -730 -105 -626 139 -313 487 -208 70 -835 208 -347 13211 5666 8239 3546 -313 244 104 347 -521 279 417 347 -278 70 -139 278 174 -70 -70 105 278 34 0 244 -278 69 -208 661 -522 -313 -69 -383 -174 244 -70 -278 -347 243 -70 209 104 139 -243 486 -278 -139 0 487 -869 0 69 139 -938 348 -105 -174 -208 209 104 173 -487 -104 -104 70 -35 278 -312 347 -418 -69 -208 243 -383 -35 0 313 -382 209 35 417 -313 -139 -487 209 -104 208 -626 487 209 243 -244 244 -417 104 -278 347 -556 174 35 209 -209 174 69 521 -590 174 0 -243 -661 139 -278 -174 -104 104 208 556 -104 244 -313 -174 -139 487 -174 -383 -69 696 -313 -209 -105 69 70 279 -174 69 -834 -417 -417 69 -661 -451 -660 -209 -835 69 -382 -417 -591 -69 -835 208 -1112 35 -556 591 -4554 -35 -35 -5492z"/>
      <path microregion="12004" id="1200179" class="municipy" fill="transparent" d="M266569 150961l313 -452 174 -35 -70 -139 626 -243 382 -626 348 -208 765 34 487 -208 452 69 173 -313 174 0 -69 -208 243 -348 4450 -313 139 -313 -522 174 418 -591 486 139 730 -347 -104 -244 -278 0 -243 -347 34 -348 348 -70 348 -521 -35 -313 174 0 -139 -348 -418 -173 70 -278 834 -209 70 -278 139 556 695 174 35 834 209 417 243 70 139 313 243 104 70 452 313 417 521 139 1252 765 904 1495 34 730 279 556 208 139 2051 313 -382 1147 -522 383 -417 -313 -556 0 -348 939 -347 208 -452 765 417 278 0 591 382 0 313 417 765 452 209 348 1494 -35 522 487 313 591 382 278 417 0 -869 1564 -208 835 -939 695 -174 626 -1008 1043 -730 -522 -1356 4728 -278 -139 -313 174 -208 -209 -139 279 -313 0 -35 -140 -70 70 -243 -174 -35 -487 -486 -69 -140 -417 -451 104 -313 -174 0 -174 -487 -104 -35 -139 -174 139 -278 -348 -417 -104 -139 -313 -209 209 -104 -70 -243 -521 -105 69 -486 -208 -244 139 -347 -209 -209 105 -417 -418 -556 174 35 -208 -696 34 70 139 -209 174 -174 -208 -417 -70 -382 487 -278 -70 -244 244 -556 0 -243 -244 0 70 -626 -104 -661 556 -730 -417 35 -70 -487 -139 -69 -417 -243 -243 0 -835 1147 -973 -765 -696 -661 -451 -104 -765 -556 -557 -104 -521 173 -452 -278 -1078 -1668 -1842 69 -556 -139 -452 139 -174 383 35 382 -174 -104 -348 452 -452 69 -452 661 -625 174 -35 69 -313 -382 -278 -209 -487z"/>
      <path microregion="12004" id="1200385" class="municipy" fill="transparent" d="M284264 151378l-35 -521 522 -383 -35 -417 244 -174 -105 -452 487 -208 104 -278 -69 -452 625 313 2608 -1182 243 -209 1043 -313 348 -347 -35 -800 209 -382 278 -313 347 -174 835 -1286 243 -696 800 -869 521 -1425 174 -1391 3337 -1460 2364 -104 2017 -1460 3963 -2051 35 5492 4554 35 556 -591 1112 -35 835 -208 591 69 382 417 835 -69 660 209 661 451 417 -69 834 417 174 -69 -243 382 -348 -35 0 278 -209 -104 -139 70 0 173 313 174 -35 383 -556 -174 -417 174 0 382 -243 -69 -244 139 -278 1251 -243 243 -174 -347 -348 382 -313 -69 140 -139 -70 -70 -313 209 278 278 -278 -35 -487 348 0 -174 -173 0 104 487 -278 312 452 0 69 174 -278 105 -174 382 -69 -139 -244 104 35 522 -278 486 -209 174 -312 -104 -70 104 -278 -35 -243 313 -174 -69 -174 174 -243 -35 -139 243 208 209 -1217 417 -173 209 -383 34 0 -208 -452 -139 -69 174 -209 -35 -417 313 -730 0 -244 208 -139 487 487 348 -348 139 -139 -139 -173 452 -174 -105 -174 139 -556 105 -244 347 -799 139 -348 -695 -243 -70 -800 35 -174 -347 -556 34 -556 418 -800 312 -139 -347 -730 -244 -382 209 -70 -139 -278 104 -556 -208 -278 139 -244 556 487 556 -104 556 313 557 -35 208 -209 0 -521 278 -452 -313 -521 140 -140 382 140 174 -244 69 -487 -730 -486 278 -696 -347 -69 104 -104 -243 -418 69 -695 904 417 348 0 1147 -278 139 -452 -35 -278 417 70 348 -383 348 -1112 278 -278 278 -696 278 -521 -104 -522 313 -173 591 -835 -139 -417 69 -452 313 -1008 278 -348 313 -417 0 -382 -278 -313 -591 -522 -487 -1494 35 -209 -348 -765 -452 -313 -417 -382 0 0 -591 -417 -278 452 -765 347 -208 348 -939 556 0 417 313 522 -383 382 -1147z"/>
      <path microregion="12004" id="1200450" class="municipy" fill="transparent" d="M285377 148493l-939 -522 -104 139 -1008 -625 -522 -1356 -417 0 -695 -1287 -452 -1529 -487 -278 -973 -1182 -383 69 -174 -139 -173 -452 347 -174 -347 -382 -174 -765 278 -626 -417 -1182 -557 -799 174 -244 -174 -486 -591 -696 35 -347 5563 35 1251 730 2434 1946 625 -104 522 174 382 -313 661 -208 556 -765 313 -174 174 -487 347 -208 348 -452 417 -105 243 -730 1113 -486 35 -557 -209 -452 174 -347 1182 -695 243 -313 -208 -348 382 -730 800 -348 486 244 591 -105 591 -313 -173 -660 417 -591 730 -313 139 -278 1078 -278 799 -522 383 -1077 660 -557 104 -521 279 -278 173 -35 -69 -243 904 -626 347 -800 869 -417 209 -869 139 -243 313 -70 -104 -208 417 -418 695 -312 904 0 661 -522 1216 487 -208 347 -70 835 -487 208 -139 313 105 626 973 730 869 1843 556 243 244 1669 -626 799 -209 417 -869 4207 -2572 939 -3963 2051 -2017 1460 -2364 104 -3337 1460 -174 1391 -521 1425 -800 869 -243 696 -835 1286 -347 174 -278 313 -209 382 35 800 -348 347 -1043 313 -243 209 -2608 1182 -625 -313z"/>
    </g>
    <g id="microregion">
      <path mesoregion="1202" id="12004" class="microregion" fill="transparent" d="M206704 156871l313 -313 487 35 278 -243 348 173 869 -139 487 -591 -279 -382 244 -417 35 -452 278 -244 0 -591 278 -312 487 208 69 -243 382 69 35 -139 244 -35 278 -730 904 -173 486 -1148 452 -139 139 -313 522 -521 556 0 243 -452 383 0 208 -556 278 69 174 -243 70 -591 695 0 209 -765 591 -104 243 417 348 35 452 -591 347 -174 348 139 243 -521 904 -279 383 -347 -35 -661 452 -417 556 -208 382 -661 -208 -174 0 -452 139 70 243 -487 209 -139 417 70 556 -731 209 -1042 417 -174 0 -800 243 -521 313 -313 348 0 208 -209 1287 -487 174 35 69 -174 661 -347 903 -1217 140 -973 1529 -1600 626 -104 382 -278 835 174 1807 -730 800 -70 382 -869 557 -660 382 -1113 522 -35 382 174 139 -417 522 -382 660 34 139 174 765 -174 174 -139 208 -695 522 -348 -174 -1355 104 -835 -417 -556 -35 -452 -417 -209 -243 -695 -591 -834 521 -765 -69 -973 -209 -313 -104 -626 104 -1182 174 -243 104 -244 -243 -313 -104 -695 1321 -2364 452 -313 903 -139 661 70 70 -105 -209 -625 209 -591 -244 -383 313 -660 -209 -313 70 -556 521 -383 209 -799 417 -661 452 -313 904 -278 70 -243 -279 -800 731 -834 556 -626 695 -452 1008 -973 1217 -105 1043 -208 1008 208 417 -139 139 -1356 1565 -1216 556 -70 521 -313 1113 139 939 -382 278 35 556 -348 278 -521 800 -35 417 -522 660 -208 522 -452 626 35 556 -244 208 70 10777 4554 26978 11507 7126 3094 1461 591 1216 487 2051 834 11160 4832 8239 3546 -313 244 104 347 -486 279 382 347 -278 70 -139 278 174 -70 -35 105 243 34 0 244 -243 69 -209 661 -556 -313 -69 -383 -174 244 -70 -278 -347 243 -70 209 104 139 -243 486 -278 -139 0 487 -869 0 69 139 -938 348 -105 -174 -208 209 104 173 -487 -104 -104 70 -35 278 -312 347 -418 -69 -208 243 -383 -35 0 313 -347 209 34 417 -347 -139 -487 209 -69 208 -626 487 174 243 -244 244 -417 104 -243 347 -591 174 69 209 -243 174 69 556 -590 139 0 -243 -626 139 -313 -174 -104 104 208 556 -104 244 -313 -174 -139 487 -174 -383 -69 696 -313 -209 -105 69 70 279 -243 382 -348 -35 0 278 -209 -104 -139 70 0 173 313 174 0 383 -556 -174 -452 174 35 382 -278 -69 -244 139 -278 1251 -243 243 -174 -347 -348 382 -313 -69 174 -139 -104 -70 -313 209 278 278 -278 -35 -487 348 0 -174 -173 0 104 487 -243 312 417 0 69 174 -278 105 -139 382 -69 -139 -279 104 35 522 -278 486 -209 174 -278 -104 -104 104 -278 -35 -209 313 -208 -69 -139 174 -244 -35 -139 243 174 209 -1217 417 -173 209 -383 34 0 -208 -452 -139 -69 174 -209 -35 -417 313 -730 0 -244 208 -139 487 487 348 -313 139 -139 -139 -208 452 -174 -105 -174 139 -522 105 -278 347 -799 139 -348 -695 -243 -70 -800 35 -174 -347 -556 34 -556 418 -765 312 -174 -347 -730 -244 -382 209 -70 -139 -278 104 -521 -208 -313 139 -244 556 487 556 -104 556 313 557 -35 208 -209 0 -521 278 -417 -313 -556 140 -140 382 140 174 -244 69 -487 -730 -451 278 -696 -347 -104 104 -104 -243 -418 69 -695 904 417 348 0 1147 -243 139 -487 -35 -278 417 70 348 -383 348 -1077 278 -313 278 -696 278 -521 -104 -487 313 -208 591 -835 -139 -417 69 -452 313 -973 278 -383 313 -834 1564 -243 835 -939 695 -174 626 -1008 1043 -695 -522 -1391 4728 -278 -139 -313 174 -208 -209 -139 279 -313 0 0 -140 -105 70 -243 -174 -35 -487 -486 -34 -140 -417 -417 69 -313 -174 -34 -174 -487 -104 0 -139 -209 139 -278 -348 -417 -104 -104 -313 -209 209 -139 -70 -243 -521 -70 69 -521 -208 -244 139 -347 -209 -209 105 -139 -174 -243 -244 -591 174 35 -208 -105 -35 -591 69 105 139 -244 174 -174 -208 -382 -70 -417 487 -244 -70 -278 244 -556 0 -209 -244 0 70 -660 -104 -661 556 -730 -417 35 -70 -487 -139 -69 -417 -209 -243 -34 -835 1043 -834 104 -139 -765 -696 -661 -451 -104 -765 -521 -557 -105 -521 139 -452 -278 -1078 -417 -486 -660 -730 -591 -626 69 -556 -139 -452 139 -174 383 35 417 -174 -105 -313 418 -487 69 -452 661 -625 208 -35 35 -313 -348 -278 -243 -487 -1008 -417 -243 -487 -696 -417 -452 -591 -417 209 -487 -139 -382 347 -1078 -174 -973 174 -765 313 -973 -278 -1078 591 35 -174 -105 -35 -938 174 -765 -69 -348 556 -1321 487 -347 625 -2017 974 -208 278 -591 104 -278 209 -244 591 -765 243 -347 -12272 -696 695 -347 0 -209 -278 -382 -69 -487 208 -174 279 105 799 -765 417 -174 730 -209 244 -556 243 -799 -69 -209 208 35 383 -452 139 -522 104 -765 -174 0 139 -486 278 -70 313 -1182 243 -313 209 -764 0 -383 0 -1043 904 -695 0 -174 313 0 695 -174 139 -382 -69 -70 139 -556 243 -69 556 -1182 800 -105 660 -313 452 -1008 730 313 765 -904 939 -12897 35 -6780 0 -625 486 -105 730 -139 139 -764 139 -939 522 -1321 69 -939 661 -2399 0z"/>
      <path mesoregion="1202" id="12005" class="microregion" fill="transparent" d="M152541 166953l209 104 243 -417 348 -35 139 -348 208 140 730 0 105 173 347 -382 -69 -243 174 173 347 -34 174 -244 452 209 348 -35 208 174 35 209 382 0 35 139 -452 69 -69 278 382 348 383 -70 243 174 -35 209 209 -139 278 34 35 -417 139 244 556 173 174 -34 -70 -209 244 35 208 -209 348 174 -104 -174 69 -452 278 -104 139 0 -139 452 139 104 452 -139 35 522 313 -139 69 -209 626 452 -139 -313 243 -452 0 348 278 35 348 -35 70 313 417 243 452 -382 139 521 556 0 139 -139 0 -591 695 -139 0 243 348 0 -139 -313 104 -208 348 69 174 418 243 -139 417 69 244 -626 278 35 174 -278 417 209 382 -348 139 660 174 35 -35 -487 105 -34 347 765 244 -279 139 313 174 -104 69 -591 1008 -278 70 -104 -313 -105 0 -139 521 70 -139 -348 105 -35 139 209 313 0 -209 209 174 243 -35 208 139 70 139 -139 35 417 278 -660 417 139 383 -139 104 104 69 104 -278 70 139 313 -243 208 35 800 243 730 -104 347 -939 1148 209 556 -139 174 -105 1460 -139 243 -556 1217 22180 -5493 1008 139 1495 -556 243 -348 105 -591 382 -382 209 -487 591 -452 417 -591 1147 -660 278 -383 800 70 1286 -800 -69 -695 278 -487 -174 -521 69 -765 313 -70 348 -278 521 -104 348 -939 556 -660 35 -417 730 -869 626 -105 278 209 973 35 348 -244 800 35 312 -139 2399 0 939 -661 1321 -69 939 -522 764 -139 139 -139 105 -730 625 -486 6780 0 12897 -35 904 -939 -313 -765 1008 -730 313 -452 105 -660 1182 -800 69 -556 556 -243 70 -139 382 69 174 -139 0 -695 174 -313 695 0 1043 -904 383 0 764 0 313 -209 1182 -243 70 -313 486 -278 0 -139 765 174 522 -104 452 -139 -35 -383 209 -208 799 69 556 -243 209 -244 174 -730 765 -417 -105 -799 174 -279 487 -208 382 69 209 278 347 0 696 -695 347 12272 765 -243 244 -591 278 -209 591 -104 208 -278 2017 -974 347 -625 1321 -487 348 -556 765 69 938 -174 105 35 -35 174 1078 -591 973 278 765 -313 973 -174 1078 174 382 -347 487 139 417 -209 452 591 696 417 243 487 1008 417 243 487 348 278 -35 313 -208 35 -661 625 -69 452 -418 487 105 313 -417 174 -383 -35 -139 174 139 452 -69 556 591 626 660 730 417 486 278 1078 -139 452 105 521 521 557 104 765 661 451 765 696 -104 139 -1043 834 34 835 209 243 69 417 -208 139 -174 -174 -139 209 -70 -139 -208 69 -278 278 -244 -104 105 452 -452 209 -626 34 -348 313 -104 313 -452 -35 -139 452 -417 174 -139 313 -209 0 35 209 -209 0 -243 347 35 244 -174 104 209 104 -139 105 104 521 139 0 208 348 -208 139 -35 417 -208 104 173 522 -139 173 -521 209 -313 556 -661 522 -139 313 -452 243 -625 765 -209 35 -417 799 -626 139 -174 765 -243 104 104 383 -174 660 -764 417 -209 418 70 313 -140 34 0 661 -278 556 -521 278 -383 487 -591 278 -312 452 -279 69 -208 -104 -834 174 -522 313 -243 452 -313 174 -417 -383 -522 -35 -1390 626 -244 487 139 278 -69 313 -278 382 -313 105 -209 -35 -382 -556 -313 69 -382 -452 -591 661 -1878 208 -765 626 -69 348 -556 695 -1009 487 -34 486 -3025 626 -4589 939 209 -695 -522 -661 70 -487 -591 -452 -313 139 -174 -69 -243 -417 -278 -70 69 -347 -417 -452 243 -452 -278 -313 278 -452 383 -104 0 -452 69 -278 70 -452 -313 69 -313 348 -35 -313 244 -139 -35 -383 -521 313 -418 -139 35 -208 -104 -35 -278 313 -35 417 -70 -661 -382 -104 278 -348 -313 35 -139 174 -417 0 348 278 -383 0 -174 174 -312 -70 -209 174 -139 -278 208 -208 -347 -105 -278 383 -174 -209 174 -69 -70 -139 -243 -35 -522 556 -34 556 -418 -139 -173 -208 -348 -35 -139 313 208 34 0 -208 174 348 -208 69 -278 -139 -105 -313 -243 -243 -661 695 -486 -313 -174 139 -417 -556 -557 313 0 -348 -417 -139 209 -521 -383 139 -451 -209 -452 383 -279 69 140 452 -452 104 0 -313 -244 140 -591 -105 -104 -139 209 -278 -35 -174 -556 0 -70 -382 -313 104 -243 -382 -348 208 -174 -313 -486 452 -487 -834 -243 382 -348 -173 -695 417 -418 -383 -417 418 -69 -626 -626 313 -70 -418 -208 244 -278 69 -35 -104 243 -243 -452 34 70 -417 -487 452 -765 -417 -173 -313 -591 -35 -730 383 -174 -313 -557 -417 -312 452 -174 34 -626 -208 278 -139 0 -174 -869 104 -174 278 139 209 -139 70 -347 -452 -174 34 -105 244 -417 -174 -278 69 -660 -173 -209 -348 -139 556 -278 -35 -139 -312 -278 486 -174 -208 69 -383 -452 -69 -69 313 -695 -209 -70 626 -104 -70 -70 -486 -313 34 -104 -347 -313 34 139 383 -139 35 -313 -661 -174 0 -312 417 -139 -521 -279 0 -243 452 -973 -35 -174 591 -278 -243 0 208 -174 70 -452 -244 -174 139 70 244 -139 35 -174 -140 -522 -69 -208 -556 -313 208 -417 -278 -974 0 -174 104 70 557 -209 69 -208 -35 -139 -243 -1530 -243 209 243 -105 70 -695 -244 -417 209 -35 417 -347 -243 -661 313 -1043 -244 -452 452 -417 -104 -417 208 -139 -34 -313 347 -139 -278 -661 417 -278 -417 -626 417 -208 -104 69 -382 -278 -70 -69 -382 -522 -626 -208 0 173 243 -556 -278 174 -417 -521 209 -348 -139 -313 69 -209 -278 -451 -35 -140 209 -764 139 -105 -35 70 -208 -313 34 -556 -174 -278 383 -209 -313 -521 139 -209 -243 -904 -174 -626 139 -104 348 -243 69 -174 -382 -383 -105 -834 244 -35 347 -347 0 139 244 -209 -35 -417 382 -417 -243 -104 522 -418 -140 -173 522 -244 -139 -104 208 -104 -104 -209 244 -556 173 -70 278 -382 -312 -35 312 -452 35 139 209 -243 -139 -104 243 -591 70 69 173 -313 70 -278 -174 -104 104 -35 -312 -278 243 -243 -139 -244 521 -278 70 -35 -174 278 -139 -452 104 70 557 -174 -209 -243 139 104 139 -382 70 -417 486 -279 0 -139 383 -625 174 -139 312 -244 -104 -104 174 -104 -104 -139 69 -174 -104 -139 174 -452 69 0 174 -452 243 -522 -208 -139 139 -591 -174 -104 174 -452 -278 -800 278 -208 -70 -348 418 -382 -174 -244 69 -347 348 -765 208 -695 -208 -730 35 -279 -70 -173 -278 -904 70 -244 -140 0 -208 -243 -209 -591 -139 -348 139 -173 -243 -591 -174 -348 70 -209 -35 -173 -243 139 -279 -557 -1182 -869 -556 -452 -765 -278 -313 -382 -34 -452 -522 -417 -174 -209 -312 -487 -279 -3998 2921 -104 -12863z"/>
      <path mesoregion="1201" id="12001" class="microregion" fill="transparent" d="M12336 6062l2642 1426 18147 8134 20407 9109 7856 3650 1426 626 20719 4276 -69 1217 174 869 34 174 -69 973 -417 800 -35 1008 278 660 35 591 -174 730 -348 244 -173 556 34 521 -799 2051 -487 765 -452 348 -382 1251 -904 1043 35 869 208 452 556 -104 279 1147 312 487 279 174 660 452 70 452 -313 2259 278 1078 347 452 209 1182 -556 3616 -1217 3372 -209 1738 -69 869 904 2920 208 2364 452 974 -208 1634 139 660 452 417 -70 591 -104 696 904 347 174 661 938 69 557 -173 1147 521 174 487 -418 1182 0 591 348 486 626 348 1321 1391 382 730 -174 625 -730 696 -1043 626 -1738 1738 -382 591 35 278 382 0 1112 313 1495 -105 591 244 487 695 278 834 35 1461 209 417 382 1216 1008 1391 139 1008 -104 313 -939 835 -417 660 -660 2573 0 1425 -418 1599 -521 1078 -800 1112 -625 1912 -452 383 -418 0 -382 208 -452 1113 -348 417 -2746 765 -1599 695 -452 522 -139 382 -139 1147 -2851 974 104 313 209 -70 209 209 104 278 -174 278 313 69 278 591 -104 174 -417 139 -35 209 -278 -35 -696 -660 -34 -383 -348 -35 209 -278 -105 35 35 -452 -382 -69 -348 -383 -70 0 -173 104 -70 -104 -69 -243 -174 0 -139 208 -244 0 -521 -347 -278 35 -487 -487 -209 243 -243 35 -104 -139 -244 174 0 -105 -347 -69 -35 174 -209 -105 -34 -243 -139 278 -209 -104 -174 69 -69 279 -139 34 -765 -243 -244 139 -278 -209 -69 105 -35 -139 -1147 313 -70 208 -243 -208 -278 -174 69 -174 -104 69 -104 -278 -174 70 -70 -244 -104 140 -174 -313 -139 104 -243 -104 -35 173 -139 -173 -174 313 0 -383 -278 35 0 -243 -382 243 -35 -417 -278 208 -417 -243 -174 104 -591 -174 -70 -173 -417 173 -104 -347 -209 35 -69 -140 -278 105 -383 -139 70 104 -174 139 -278 -69 -104 243 -105 -35 0 -208 -208 69 -313 -243 35 -209 -452 70 -209 -278 -174 34 35 174 -174 -139 -278 209 70 -278 -244 104 70 -278 -244 208 -347 -174 -278 -451 139 -174 -70 -174 -243 -104 -2990 0 -17382 34 0 -173 765 -557 69 -1077 243 -452 383 -209 904 -174 347 -695 487 -313 452 -730 1217 -313 0 -243 -487 -591 -35 -348 696 -521 869 -1391 869 -487 487 487 243 0 834 -417 70 -313 625 -243 140 -522 347 -243 70 -174 -939 -452 -69 -313 591 -521 1251 -522 765 -695 626 -1530 -174 -938 313 -730 -174 -661 -70 -939 -417 -660 35 -313 417 -209 174 -764 -1113 -383 -1008 -2607 -904 -313 -486 0 -35 -904 -209 730 -278 278 -521 -591 -417 -1147 -70 -591 -313 -417 0 -626 -417 -35 -730 -973 -104 -1286 -696 -835 -347 -1842 -417 -800 -487 -382 -626 -835 -521 209 -869 -417 -731 347 -486 -69 -348 -313 -243 0 -383 -556 -417 0 -487 -556 0 -904 -208 -244 -348 244 70 -626 -417 -209 -661 209 -209 -1043 209 -487 209 -1077 -487 -2330 -522 -1634 -1042 209 -313 -417 -522 139 -799 -313 -418 174 -69 -209 -452 313 -661 -973 -208 -1287 -278 -382 -383 -139 -313 104 -625 -104 -696 -417 -1043 -278 -173 -278 0 -313 -800 0 -521 -383 -939 -1077 348 -1495 -487 -765 174 -1147 -626 -869 -348 -209 -69 -452 -522 -243 -347 -939 -626 -139 313 -869 69 -591 -278 -1356 383 -695 -487 -1321 -591 -487 -383 -765 -660 -382 -35 -139 383 -835 -174 -799 -835 -800 -764 209 -661 -174 -452 -1460 -417 -522 -869 0 -487 417 -104 -34 -313 -452 -313 -139 -69 -904 -174 -522 -939 -938 70 -244 799 -208 -626 -974 244 -556 208 0 626 661 1286 139 383 -139 591 -730 347 -661 -173 -939 208 -1390 -208 -765 -418 -417 -1564 -939 -348 -382 -2051 -487 -1251 -69 -383 -244 -382 -799 -556 -974 -765 35 -1043 -939 -139 -1077 -869 -313 -1043 -730 -1599 -1808 -661 -70 -313 -1355 105 -209 834 35 939 -244 660 -1425 139 -765 452 -556 -348 -591 -173 -1286 -591 -765 -1009 -2051 174 -556 209 -105 348 105 312 591 313 -383 244 0 938 1147 1773 35 417 -452 348 -973 1008 -452 557 -70 1042 313 1043 -452 278 0 174 278 -208 418 382 -35 1669 -835 799 -1077 0 -487 -730 -1147 105 -1495 -452 -591 -904 -487 -383 -382 -243 -1356 -730 -660 -104 -487 -696 -556 70 -383 -382 -591z"/>
      <path mesoregion="1201" id="12002" class="microregion" fill="transparent" d="M77241 114284l-278 -591 -313 -69 174 -278 -104 -278 -209 -209 -209 70 -104 -313 2851 -974 139 -1147 139 -382 452 -522 1599 -695 2746 -765 348 -417 452 -1113 382 -208 418 0 452 -383 625 -1912 800 -1112 521 -1078 418 -1599 0 -1425 660 -2573 417 -660 939 -835 104 -313 -139 -1008 -1008 -1391 -382 -1216 -209 -417 -35 -1461 -278 -834 -487 -695 -591 -244 -1495 105 -1112 -313 -382 0 -35 -278 382 -591 1738 -1738 1043 -626 730 -696 174 -625 -382 -730 -1321 -1391 -626 -348 -348 -486 0 -591 418 -1182 -174 -487 -1147 -521 -557 173 -938 -69 -174 -661 -904 -347 104 -696 70 -591 -452 -417 -139 -660 208 -1634 -452 -974 -208 -2364 -904 -2920 69 -869 209 -1738 1217 -3372 556 -3616 -209 -1182 -347 -452 -278 -1078 313 -2259 -70 -452 -660 -452 -279 -174 -312 -487 -279 -1147 -556 104 -208 -452 -35 -869 904 -1043 382 -1251 452 -348 487 -765 799 -2051 -34 -521 173 -556 348 -244 174 -730 -35 -591 -278 -660 35 -1008 417 -800 69 -973 -34 -174 -174 -869 69 -1217 730 139 6606 2051 799 243 869 209 18356 4206 2468 591 11959 2816 13420 3094 15957 3407 5006 1078 4102 973 3407 1843 7161 3859 16235 8795 9178 5006 -1043 2677 -313 244 -312 34 -209 800 -348 521 -382 209 -522 382 -139 591 -347 174 -522 0 -521 -208 -591 -939 -209 939 -904 1216 -764 661 -70 452 -313 521 -452 -69 -1251 1112 173 1739 -1564 938 -174 278 139 557 -69 208 -487 0 -278 174 -695 1564 -174 1252 -1808 2572 1043 939 139 487 556 313 0 417 -660 -139 -104 -174 -7440 -4067 -661 243 -1216 1251 -904 418 -1217 0 -800 -487 -764 208 -835 591 -174 -69 -139 174 70 278 -278 313 -417 35 -348 451 -243 105 -279 -313 -173 69 -70 418 -799 -70 -522 -243 -800 -1321 -625 382 -1182 -382 -452 -557 -661 348 -765 70 -486 -418 -418 70 -382 139 -313 417 -382 104 -174 279 -556 660 -105 174 418 591 -348 452 -939 487 -625 1460 -418 521 -695 313 -1251 -35 -974 557 -973 2259 -974 1113 -973 1529 -1182 1321 -834 418 -174 382 104 1217 -313 1668 -208 348 208 591 -139 348 -800 417 -938 -243 -869 34 -383 244 -625 1321 -870 521 -1216 139 -1182 1217 -1287 -69 -764 417 -209 -383 -278 0 -800 626 -521 695 -139 487 278 209 0 243 -522 278 -1286 243 -278 209 -695 1113 -696 312 -69 209 243 591 -347 452 -105 591 -139 139 -626 104 -764 1113 -313 174 -70 382 -243 104 -695 -417 -1148 2503 0 348 -556 417 -556 452 382 660 35 383 -139 243 -904 209 -348 347 35 452 487 904 69 1008 -764 800 -35 1495 -1634 452 -834 591 -139 382 -244 174 -417 1321 -348 278 -208 661 -522 382 -208 869 -730 139 -869 -347 -279 69 -278 661 -521 0 -1634 626 -417 -35 -939 -869 -417 69 -209 139 -69 522 -104 69 -313 -208 -487 695 -12411 -35 -23918 0 35 -556 799 -382 417 -522 -243 -660 35 -418 -626 -278 -104 -382 278 -556 591 -383 313 -695 487 -348 -279 -452 -486 -556 0 -1112 -348 -139 -69 -209 139 -313 695 -695 591 -313 -1182 -765 -1182 -348 -556 0 -557 -556 -417 0 -313 174 -347 -521 -765 -209 -104 -313 417 -730 -105 -591 591 -1008 -34 -661 278 -834 -591 -730 278 -1182 -243 -139 -557 174 -764 -626 208 -2746 -556 -244 -869 417 -626 -452z"/>
      <path mesoregion="1202" id="12003" class="microregion" fill="transparent" d="M131161 128538l35 -1495 764 -800 -69 -1008 -487 -904 -35 -452 348 -347 904 -209 139 -243 -35 -383 -382 -660 556 -452 556 -417 0 -348 1148 -2503 695 417 243 -104 70 -382 313 -174 764 -1113 626 -104 139 -139 105 -591 347 -452 -243 -591 69 -209 696 -312 695 -1113 278 -209 1286 -243 522 -278 0 -243 -278 -209 139 -487 521 -695 800 -626 278 0 209 383 764 -417 1287 69 1182 -1217 1216 -139 870 -521 625 -1321 383 -244 869 -34 938 243 800 -417 139 -348 -208 -591 208 -348 313 -1668 -104 -1217 174 -382 834 -418 1182 -1321 973 -1529 974 -1113 973 -2259 974 -557 1251 35 695 -313 418 -521 625 -1460 939 -487 348 -452 -418 -591 105 -174 556 -660 174 -279 382 -104 313 -417 382 -139 418 -70 486 418 765 -70 661 -348 452 557 1182 382 625 -382 800 1321 522 243 799 70 70 -418 173 -69 279 313 243 -105 348 -451 417 -35 278 -313 -70 -278 139 -174 174 69 835 -591 764 -208 800 487 1217 0 904 -418 1216 -1251 661 -243 7440 4067 104 174 660 139 0 -417 -556 -313 -139 -487 -1043 -939 1808 -2572 174 -1252 695 -1564 278 -174 487 0 69 -208 -139 -557 174 -278 1564 -938 -173 -1739 1251 -1112 452 69 313 -521 70 -452 764 -661 904 -1216 209 -939 591 939 521 208 522 0 347 -174 139 -591 522 -382 382 -209 348 -521 209 -800 312 -34 313 -244 1043 -2677 5180 2851 11368 5632 8309 4415 9039 4728 1529 730 974 487 4763 2155 19224 8344 -208 -70 -556 244 -626 -35 -522 452 -660 208 -417 522 -800 35 -278 521 -556 348 -278 -35 -939 382 -1113 -139 -521 313 -556 70 -1565 1216 -139 1356 -417 139 -1008 -208 -1043 208 -1217 105 -1008 973 -695 452 -556 626 -731 834 279 800 -70 243 -904 278 -452 313 -417 661 -209 799 -521 383 -70 556 209 313 -313 660 244 383 -209 591 209 625 -70 105 -661 -70 -903 139 -452 313 -1321 2364 104 695 243 313 -104 244 -174 243 -104 1182 104 626 209 313 69 973 -521 765 591 834 243 695 417 209 35 452 417 556 -104 835 174 1355 -522 348 -208 695 -174 139 -765 174 -139 -174 -660 -34 -522 382 -139 417 -382 -174 -522 35 -382 1113 -557 660 -382 869 -800 70 -1807 730 -835 -174 -382 278 -626 104 -1529 1600 -140 973 -903 1217 -661 347 -69 174 -174 -35 -1287 487 -208 209 -348 0 -313 313 -243 521 0 800 -417 174 -209 1042 -556 731 -417 -70 -209 139 -243 487 -139 -70 0 452 208 174 -382 661 -556 208 -452 417 35 661 -383 347 -904 279 -243 521 -348 -139 -347 174 -452 591 -348 -35 -243 -417 -591 104 -209 765 -695 0 -70 591 -174 243 -278 -69 -208 556 -383 0 -243 452 -556 0 -522 521 -139 313 -452 139 -486 1148 -904 173 -278 730 -244 35 -35 139 -382 -69 -69 243 -487 -208 -278 312 0 591 -278 244 -35 452 -244 417 279 382 -487 591 -869 139 -348 -173 -278 243 -487 -35 -313 313 -312 139 -800 -35 -348 244 -973 -35 -278 -209 -626 105 -730 869 -35 417 -556 660 -348 939 -521 104 -348 278 -313 70 -69 765 174 521 -278 487 69 695 -1286 800 -800 -70 -278 383 -1147 660 -417 591 -591 452 -209 487 -382 382 -105 591 -243 348 -1495 556 -1008 -139 -22180 5493 556 -1217 139 -243 105 -1460 139 -174 -209 -556 939 -1148 104 -347 -243 -730 -35 -800 243 -208 -139 -313 278 -70 -69 -104 -104 -104 -383 139 -417 -139 -278 660 -35 -417 -139 139 -139 -70 35 -208 -174 -243 209 -209 -313 0 -139 -209 -105 35 139 348 -521 -70 0 139 313 105 -70 104 -1008 278 -69 591 -174 104 -139 -313 -244 279 -347 -765 -105 34 35 487 -174 -35 -139 -660 -382 348 -417 -209 -174 278 -278 -35 -244 626 -417 -69 -243 139 -174 -418 -348 -69 -104 208 139 313 -348 0 0 -243 -695 139 0 591 -139 139 -556 0 -139 -521 -452 382 -417 -243 -70 -313 -348 35 -278 -35 0 -348 -243 452 139 313 -626 -452 -69 209 -313 139 -35 -522 -452 139 -139 -104 139 -452 -139 0 -278 104 -69 452 104 174 -348 -174 -208 209 -244 -35 70 209 -174 34 -556 -173 -139 -244 -35 417 -278 -34 -209 139 35 -209 -243 -174 -383 70 -382 -348 69 -278 452 -69 -35 -139 -382 0 -35 -209 -208 -174 -348 35 -452 -209 -174 244 -347 34 -174 -173 69 243 -347 382 -105 -173 -730 0 -208 -140 -139 348 -348 35 -243 417 -209 -104 -104 -11229 35 -4381 34 -12793 139 -5145 -34 -6258 278 -243 278 -661 452 -104 347 174 279 -869 278 -278 834 486 626 -452 452 -660 -139 -730 278 -104 -35 -522 313 -452 -104 -174 139 -243 -244 -70 -556 -1494 -243 -70 -209 -417 -556 -70 -382 -556 0 -208 -452 -452 -557 -1426 313 -313 209 -452 0 -173 -278 0 208 -174 70 -487 -661 -348 70 -486 487 -244 173 209 -278 591 278 35 383 -174 591 556 243 -104 104 -209 -139 -417 -486 -139 -35 -243 208 -487 -278 -348 278 -104 313 313 661 35 174 -139 0 -209 -348 -104 70 -661 591 139 0 -556 452 70 417 -591 278 625 104 -452 -695 -799 -174 -730 278 -209 243 417 348 -104 -348 -695 383 -105 313 -208 104 -591 -313 0 -243 -209 -626 278 35 244 -209 104 -104 -35 35 -382 -522 452 0 -244 -417 -208 -104 313 -383 0 -139 -244 -139 209 -35 -104 -243 69 35 313 -209 -208 -591 521 -34 -174 -279 -35 -69 730 -348 -34 -139 104 -69 -139 -139 35 34 452 -173 69 0 278 -313 -208 -105 347 -278 70 -69 243 -174 105 278 243 -209 69 -34 244 -418 -174 174 174 -521 0 69 556 -104 70 -69 -140 -105 140 139 139 -208 0 -174 347 -104 -278 -313 417 -313 35 0 209 -348 -70 -626 556 -139 -104 -417 174 -139 348 -382 69 174 139 -35 174 -278 278 -383 -452 -208 -35 -139 209 -209 -104 -243 347 278 70 -209 243 35 174 -209 -35 105 174 -174 104 174 313 -35 522 -70 104 -417 -209 0 244 -869 347 -35 244 174 104 -348 209 -34 486 -174 0 -104 244 -105 -105 -139 139 -382 -173 -487 243 -174 -104 -104 139 -209 -139 -173 591 -313 104 -244 -139 -764 452 -70 174 139 69 -556 487 -35 313 -348 69 -417 1078 -174 -35 -382 626 -139 0 -487 626 -1077 35 0 139 -105 -139 -382 417 -104 -139 -105 313 -382 139 -487 1390 -243 -35 -104 661 104 278 -209 348 -1043 -70 -104 104 -487 -139 -243 174 -730 0 -243 244 -731 139 -451 556 -939 591z"/>
    </g>
    <g id="mesoregion">
      <path id="1202" class="mesoregion" fill="transparent" d="M131161 128538l35 -1495 764 -800 -69 -1008 -487 -904 -35 -452 348 -347 904 -209 139 -243 -35 -383 -382 -660 556 -452 556 -417 0 -348 1148 -2503 695 417 243 -104 70 -382 313 -174 764 -1113 626 -104 139 -139 105 -591 347 -452 -243 -591 69 -209 696 -312 695 -1113 278 -209 1286 -243 522 -278 0 -243 -278 -209 139 -487 521 -695 800 -626 278 0 209 383 764 -417 1287 69 1182 -1217 1216 -139 870 -521 625 -1321 383 -244 869 -34 938 243 800 -417 139 -348 -208 -591 208 -348 313 -1668 -104 -1217 174 -382 834 -418 1182 -1321 973 -1529 974 -1113 973 -2259 974 -557 1251 35 695 -313 418 -521 625 -1460 939 -487 348 -452 -418 -591 105 -174 556 -660 174 -279 382 -104 313 -417 382 -139 418 -70 486 418 765 -70 661 -348 452 557 1182 382 625 -382 800 1321 522 243 799 70 70 -418 173 -69 279 313 243 -105 348 -451 417 -35 278 -313 -70 -278 139 -174 174 69 835 -591 764 -208 800 487 1217 0 904 -418 1216 -1251 661 -243 7440 4067 104 174 660 139 0 -417 -556 -313 -139 -487 -1043 -939 1808 -2572 174 -1252 695 -1564 278 -174 487 0 69 -208 -139 -557 174 -278 1564 -938 -173 -1739 1251 -1112 452 69 313 -521 70 -452 764 -661 904 -1216 209 -939 591 939 521 208 522 0 347 -174 139 -591 522 -382 382 -209 348 -521 209 -800 312 -34 313 -244 1043 -2677 5180 2851 11368 5632 8309 4415 9039 4728 1529 730 974 487 4763 2155 19224 8344 10777 4554 26978 11507 7126 3094 1461 591 1216 487 2051 834 11160 4832 8239 3546 -313 244 104 347 -486 279 382 347 -278 70 -139 278 174 -70 -35 105 243 34 0 244 -243 69 -209 661 -556 -313 -69 -383 -174 244 -70 -278 -347 243 -70 209 104 139 -243 486 -278 -139 0 487 -869 0 69 139 -938 348 -105 -174 -208 209 104 173 -487 -104 -104 70 -35 278 -312 347 -418 -69 -208 243 -383 -35 0 313 -347 209 34 417 -347 -139 -487 209 -69 208 -626 487 174 243 -244 244 -417 104 -243 347 -591 174 69 209 -243 174 69 556 -590 139 0 -243 -626 139 -313 -174 -104 104 208 556 -104 244 -313 -174 -139 487 -174 -383 -69 696 -313 -209 -105 69 70 279 -243 382 -348 -35 0 278 -209 -104 -139 70 0 173 313 174 0 383 -556 -174 -452 174 35 382 -278 -69 -244 139 -278 1251 -243 243 -174 -347 -348 382 -313 -69 174 -139 -104 -70 -313 209 278 278 -278 -35 -487 348 0 -174 -173 0 104 487 -243 312 417 0 69 174 -278 105 -139 382 -69 -139 -279 104 35 522 -278 486 -209 174 -278 -104 -104 104 -278 -35 -209 313 -208 -69 -139 174 -244 -35 -139 243 174 209 -1217 417 -173 209 -383 34 0 -208 -452 -139 -69 174 -209 -35 -417 313 -730 0 -244 208 -139 487 487 348 -313 139 -139 -139 -208 452 -174 -105 -174 139 -522 105 -278 347 -799 139 -348 -695 -243 -70 -800 35 -174 -347 -556 34 -556 418 -765 312 -174 -347 -730 -244 -382 209 -70 -139 -278 104 -521 -208 -313 139 -244 556 487 556 -104 556 313 557 -35 208 -209 0 -521 278 -417 -313 -556 140 -140 382 140 174 -244 69 -487 -730 -451 278 -696 -347 -104 104 -104 -243 -418 69 -695 904 417 348 0 1147 -243 139 -487 -35 -278 417 70 348 -383 348 -1077 278 -313 278 -696 278 -521 -104 -487 313 -208 591 -835 -139 -417 69 -452 313 -973 278 -383 313 -834 1564 -243 835 -939 695 -174 626 -1008 1043 -695 -522 -1391 4728 -278 -139 -313 174 -208 -209 -139 279 -313 0 0 -140 -105 70 -243 -174 -35 -487 -486 -34 -140 -417 -417 69 -313 -174 -34 -174 -487 -104 0 -139 -209 139 -278 -348 -417 -104 -104 -313 -209 209 -139 -70 -243 -521 -70 69 -521 -208 -244 139 -347 -209 -209 105 -139 -174 -243 -244 -591 174 35 -208 -105 -35 -591 69 105 139 -244 174 -174 -208 -382 -70 -417 487 -244 -70 -278 244 -556 0 -209 -244 0 70 -660 -104 -661 556 -730 -417 35 -70 -487 -139 -208 139 -174 -174 -139 209 -70 -139 -208 69 -278 278 -244 -104 105 452 -452 209 -626 34 -348 313 -104 313 -452 -35 -139 452 -417 174 -139 313 -209 0 35 209 -209 0 -243 347 35 244 -174 104 209 104 -139 105 104 521 139 0 208 348 -208 139 -35 417 -208 104 173 522 -139 173 -521 209 -313 556 -661 522 -139 313 -452 243 -625 765 -209 35 -417 799 -626 139 -174 765 -243 104 104 383 -174 660 -764 417 -209 418 70 313 -140 34 0 661 -278 556 -521 278 -383 487 -591 278 -312 452 -279 69 -208 -104 -834 174 -522 313 -243 452 -313 174 -417 -383 -522 -35 -1390 626 -244 487 139 278 -69 313 -278 382 -313 105 -209 -35 -382 -556 -313 69 -382 -452 -591 661 -1878 208 -765 626 -69 348 -556 695 -1009 487 -34 486 -3025 626 -4589 939 209 -695 -522 -661 70 -487 -591 -452 -313 139 -174 -69 -243 -417 -278 -70 69 -347 -417 -452 243 -452 -278 -313 278 -452 383 -104 0 -452 69 -278 70 -452 -313 69 -313 348 -35 -313 244 -139 -35 -383 -521 313 -418 -139 35 -208 -104 -35 -278 313 -35 417 -70 -661 -382 -104 278 -348 -313 35 -139 174 -417 0 348 278 -383 0 -174 174 -312 -70 -209 174 -139 -278 208 -208 -347 -105 -278 383 -174 -209 174 -69 -70 -139 -243 -35 -522 556 -34 556 -418 -139 -173 -208 -348 -35 -139 313 208 34 0 -208 174 348 -208 69 -278 -139 -105 -313 -243 -243 -661 695 -486 -313 -174 139 -417 -556 -557 313 0 -348 -417 -139 209 -521 -383 139 -451 -209 -452 383 -279 69 140 452 -452 104 0 -313 -244 140 -591 -105 -104 -139 209 -278 -35 -174 -556 0 -70 -382 -313 104 -243 -382 -348 208 -174 -313 -486 452 -487 -834 -243 382 -348 -173 -695 417 -418 -383 -417 418 -69 -626 -626 313 -70 -418 -208 244 -278 69 -35 -104 243 -243 -452 34 70 -417 -487 452 -765 -417 -173 -313 -591 -35 -730 383 -174 -313 -557 -417 -312 452 -174 34 -626 -208 278 -139 0 -174 -869 104 -174 278 139 209 -139 70 -347 -452 -174 34 -105 244 -417 -174 -278 69 -660 -173 -209 -348 -139 556 -278 -35 -139 -312 -278 486 -174 -208 69 -383 -452 -69 -69 313 -695 -209 -70 626 -104 -70 -70 -486 -313 34 -104 -347 -313 34 139 383 -139 35 -313 -661 -174 0 -312 417 -139 -521 -279 0 -243 452 -973 -35 -174 591 -278 -243 0 208 -174 70 -452 -244 -174 139 70 244 -139 35 -174 -140 -522 -69 -208 -556 -313 208 -417 -278 -974 0 -174 104 70 557 -209 69 -208 -35 -139 -243 -1530 -243 209 243 -105 70 -695 -244 -417 209 -35 417 -347 -243 -661 313 -1043 -244 -452 452 -417 -104 -417 208 -139 -34 -313 347 -139 -278 -661 417 -278 -417 -626 417 -208 -104 69 -382 -278 -70 -69 -382 -522 -626 -208 0 173 243 -556 -278 174 -417 -521 209 -348 -139 -313 69 -209 -278 -451 -35 -140 209 -764 139 -105 -35 70 -208 -313 34 -556 -174 -278 383 -209 -313 -521 139 -209 -243 -904 -174 -626 139 -104 348 -243 69 -174 -382 -383 -105 -834 244 -35 347 -347 0 139 244 -209 -35 -417 382 -417 -243 -104 522 -418 -140 -173 522 -244 -139 -104 208 -104 -104 -209 244 -556 173 -70 278 -382 -312 -35 312 -452 35 139 209 -243 -139 -104 243 -591 70 69 173 -313 70 -278 -174 -104 104 -35 -312 -278 243 -243 -139 -244 521 -278 70 -35 -174 278 -139 -452 104 70 557 -174 -209 -243 139 104 139 -382 70 -417 486 -279 0 -139 383 -625 174 -139 312 -244 -104 -104 174 -104 -104 -139 69 -174 -104 -139 174 -452 69 0 174 -452 243 -522 -208 -139 139 -591 -174 -104 174 -452 -278 -800 278 -208 -70 -348 418 -382 -174 -244 69 -347 348 -765 208 -695 -208 -730 35 -279 -70 -173 -278 -904 70 -244 -140 0 -208 -243 -209 -591 -139 -348 139 -173 -243 -591 -174 -348 70 -209 -35 -173 -243 139 -279 -557 -1182 -869 -556 -452 -765 -278 -313 -382 -34 -452 -522 -417 -174 -209 -312 -487 -279 -3998 2921 -104 -12863 -104 -11229 35 -4381 34 -12793 139 -5145 -34 -6258 278 -243 278 -661 452 -104 347 174 279 -869 278 -278 834 486 626 -452 452 -660 -139 -730 278 -104 -35 -522 313 -452 -104 -174 139 -243 -244 -70 -556 -1494 -243 -70 -209 -417 -556 -70 -382 -556 0 -208 -452 -452 -557 -1426 313 -313 209 -452 0 -173 -278 0 208 -174 70 -487 -661 -348 70 -486 487 -244 173 209 -278 591 278 35 383 -174 591 556 243 -104 104 -209 -139 -417 -486 -139 -35 -243 208 -487 -278 -348 278 -104 313 313 661 35 174 -139 0 -209 -348 -104 70 -661 591 139 0 -556 452 70 417 -591 278 625 104 -452 -695 -799 -174 -730 278 -209 243 417 348 -104 -348 -695 383 -105 313 -208 104 -591 -313 0 -243 -209 -626 278 35 244 -209 104 -104 -35 35 -382 -522 452 0 -244 -417 -208 -104 313 -383 0 -139 -244 -139 209 -35 -104 -243 69 35 313 -209 -208 -591 521 -34 -174 -279 -35 -69 730 -348 -34 -139 104 -69 -139 -139 35 34 452 -173 69 0 278 -313 -208 -105 347 -278 70 -69 243 -174 105 278 243 -209 69 -34 244 -418 -174 174 174 -521 0 69 556 -104 70 -69 -140 -105 140 139 139 -208 0 -174 347 -104 -278 -313 417 -313 35 0 209 -348 -70 -626 556 -139 -104 -417 174 -139 348 -382 69 174 139 -35 174 -278 278 -383 -452 -208 -35 -139 209 -209 -104 -243 347 278 70 -209 243 35 174 -209 -35 105 174 -174 104 174 313 -35 522 -70 104 -417 -209 0 244 -869 347 -35 244 174 104 -348 209 -34 486 -174 0 -104 244 -105 -105 -139 139 -382 -173 -487 243 -174 -104 -104 139 -209 -139 -173 591 -313 104 -244 -139 -764 452 -70 174 139 69 -556 487 -35 313 -348 69 -417 1078 -174 -35 -382 626 -139 0 -487 626 -1077 35 0 139 -105 -139 -382 417 -104 -139 -105 313 -382 139 -487 1390 -243 -35 -104 661 104 278 -209 348 -1043 -70 -104 104 -487 -139 -243 174 -730 0 -243 244 -731 139 -451 556 -939 591z"/>
      <path id="1201" class="mesoregion" fill="transparent" d="M12336 6062l2642 1426 18147 8134 20407 9109 7856 3650 1426 626 20719 4276 730 139 6606 2051 799 243 869 209 18356 4206 2468 591 11959 2816 13420 3094 15957 3407 5006 1078 4102 973 3407 1843 7161 3859 16235 8795 9178 5006 -1043 2677 -313 244 -312 34 -209 800 -348 521 -382 209 -522 382 -139 591 -347 174 -522 0 -521 -208 -591 -939 -209 939 -904 1216 -764 661 -70 452 -313 521 -452 -69 -1251 1112 173 1739 -1564 938 -174 278 139 557 -69 208 -487 0 -278 174 -695 1564 -174 1252 -1808 2572 1043 939 139 487 556 313 0 417 -660 -139 -104 -174 -7440 -4067 -661 243 -1216 1251 -904 418 -1217 0 -800 -487 -764 208 -835 591 -174 -69 -139 174 70 278 -278 313 -417 35 -348 451 -243 105 -279 -313 -173 69 -70 418 -799 -70 -522 -243 -800 -1321 -625 382 -1182 -382 -452 -557 -661 348 -765 70 -486 -418 -418 70 -382 139 -313 417 -382 104 -174 279 -556 660 -105 174 418 591 -348 452 -939 487 -625 1460 -418 521 -695 313 -1251 -35 -974 557 -973 2259 -974 1113 -973 1529 -1182 1321 -834 418 -174 382 104 1217 -313 1668 -208 348 208 591 -139 348 -800 417 -938 -243 -869 34 -383 244 -625 1321 -870 521 -1216 139 -1182 1217 -1287 -69 -764 417 -209 -383 -278 0 -800 626 -521 695 -139 487 278 209 0 243 -522 278 -1286 243 -278 209 -695 1113 -696 312 -69 209 243 591 -347 452 -105 591 -139 139 -626 104 -764 1113 -313 174 -70 382 -243 104 -695 -417 -1148 2503 0 348 -556 417 -556 452 382 660 35 383 -139 243 -904 209 -348 347 35 452 487 904 69 1008 -764 800 -35 1495 -1634 452 -834 591 -139 382 -244 174 -417 1321 -348 278 -208 661 -522 382 -208 869 -730 139 -869 -347 -279 69 -278 661 -521 0 -1634 626 -417 -35 -939 -869 -417 69 -209 139 -69 522 -104 69 -313 -208 -487 695 -12411 -35 -23918 0 35 -556 799 -382 417 -522 -243 -660 35 -418 -626 -278 -104 -382 278 -556 591 -383 313 -695 487 -348 -279 -452 -486 -556 0 -1112 -348 -139 -69 -209 139 -313 695 -695 591 -313 -1182 -765 -1182 -348 -556 0 -557 -556 -417 0 -313 174 -347 -521 -765 -209 -104 -313 417 -730 -105 -591 591 -1008 -34 -661 278 -834 -591 -730 278 -1182 -243 -139 -557 174 -764 -626 208 -2746 -556 -244 -869 417 -626 -452 -104 174 -417 139 -35 209 -278 -35 -696 -660 -34 -383 -348 -35 209 -278 -105 35 35 -452 -382 -69 -348 -383 -70 0 -173 104 -70 -104 -69 -243 -174 0 -139 208 -244 0 -521 -347 -278 35 -487 -487 -209 243 -243 35 -104 -139 -244 174 0 -105 -347 -69 -35 174 -209 -105 -34 -243 -139 278 -209 -104 -174 69 -69 279 -139 34 -765 -243 -244 139 -278 -209 -69 105 -35 -139 -1147 313 -70 208 -243 -208 -278 -174 69 -174 -104 69 -104 -278 -174 70 -70 -244 -104 140 -174 -313 -139 104 -243 -104 -35 173 -139 -173 -174 313 0 -383 -278 35 0 -243 -382 243 -35 -417 -278 208 -417 -243 -174 104 -591 -174 -70 -173 -417 173 -104 -347 -209 35 -69 -140 -278 105 -383 -139 70 104 -174 139 -278 -69 -104 243 -105 -35 0 -208 -208 69 -313 -243 35 -209 -452 70 -209 -278 -174 34 35 174 -174 -139 -278 209 70 -278 -244 104 70 -278 -244 208 -347 -174 -278 -451 139 -174 -70 -174 -243 -104 -2990 0 -17382 34 0 -173 765 -557 69 -1077 243 -452 383 -209 904 -174 347 -695 487 -313 452 -730 1217 -313 0 -243 -487 -591 -35 -348 696 -521 869 -1391 869 -487 487 487 243 0 834 -417 70 -313 625 -243 140 -522 347 -243 70 -174 -939 -452 -69 -313 591 -521 1251 -522 765 -695 626 -1530 -174 -938 313 -730 -174 -661 -70 -939 -417 -660 35 -313 417 -209 174 -764 -1113 -383 -1008 -2607 -904 -313 -486 0 -35 -904 -209 730 -278 278 -521 -591 -417 -1147 -70 -591 -313 -417 0 -626 -417 -35 -730 -973 -104 -1286 -696 -835 -347 -1842 -417 -800 -487 -382 -626 -835 -521 209 -869 -417 -731 347 -486 -69 -348 -313 -243 0 -383 -556 -417 0 -487 -556 0 -904 -208 -244 -348 244 70 -626 -417 -209 -661 209 -209 -1043 209 -487 209 -1077 -487 -2330 -522 -1634 -1042 209 -313 -417 -522 139 -799 -313 -418 174 -69 -209 -452 313 -661 -973 -208 -1287 -278 -382 -383 -139 -313 104 -625 -104 -696 -417 -1043 -278 -173 -278 0 -313 -800 0 -521 -383 -939 -1077 348 -1495 -487 -765 174 -1147 -626 -869 -348 -209 -69 -452 -522 -243 -347 -939 -626 -139 313 -869 69 -591 -278 -1356 383 -695 -487 -1321 -591 -487 -383 -765 -660 -382 -35 -139 383 -835 -174 -799 -835 -800 -764 209 -661 -174 -452 -1460 -417 -522 -869 0 -487 417 -104 -34 -313 -452 -313 -139 -69 -904 -174 -522 -939 -938 70 -244 799 -208 -626 -974 244 -556 208 0 626 661 1286 139 383 -139 591 -730 347 -661 -173 -939 208 -1390 -208 -765 -418 -417 -1564 -939 -348 -382 -2051 -487 -1251 -69 -383 -244 -382 -799 -556 -974 -765 35 -1043 -939 -139 -1077 -869 -313 -1043 -730 -1599 -1808 -661 -70 -313 -1355 105 -209 834 35 939 -244 660 -1425 139 -765 452 -556 -348 -591 -173 -1286 -591 -765 -1009 -2051 174 -556 209 -105 348 105 312 591 313 -383 244 0 938 1147 1773 35 417 -452 348 -973 1008 -452 557 -70 1042 313 1043 -452 278 0 174 278 -208 418 382 -35 1669 -835 799 -1077 0 -487 -730 -1147 105 -1495 -452 -591 -904 -487 -383 -382 -243 -1356 -730 -660 -104 -487 -696 -556 70 -383 -382 -591z"/>
    </g>
  </g>
</svg>
