<?xml version="1.0" encoding="iso-8859-1"?>
<!DOCTYPE svg PUBLIC "-//W3C//DTD SVG 1.0//EN" "http://www.w3.org/TR/2001/REC-SVG-20010904/DTD/svg10.dtd">
<!-- Creator: CorelDRAW -->
<svg xmlns="http://www.w3.org/2000/svg"
  xmlns:odm="http://product.corel.com/CGS/11/cddns/"
  xml:space="preserve"
  style="shape-rendering:geometricPrecision; text-rendering:geometricPrecision; image-rendering:optimizeQuality; fill-rule:evenodd"
  viewBox="-48.2857 15.3 0.8772999999999996 0.9482000000000014"
  id="map-wrapper">
  <defs>
		<style type="text/css">
			<![CDATA[
				.municipy {
					fill: transparent;
					stroke: black;
					stroke-width: 76;
				}

				.microregion {
					fill: transparent;
					stroke: red;
					stroke-width: 76;
				}

				.mesoregion {
					fill: transparent;
					stroke: blue;
					stroke-width: 128;
				}

				.featured {
					stroke: orange;
					stroke-width: 2000;
				}
			]]>
		</style>
  </defs>
  <g id="map-location-wrapper" transform="scale(0.0001,-0.0001)">
    <g id="municipalities">
      <path microregion="53001" id="5300108" class="municipy" fill="transparent" d="M-473100,-160363l-19,8l-24,-6l-26,-1l-35,51l-21,46l-11,2l-18,-8l-3,-25l-57,73l-18,2l-21,16l-21,31l-8,-13l-16,-9l-13,15l13,8l-13,11l1,10l23,2l3,16l-7,10l-26,-1l-14,7h-19l-13,9l-4,22l-12,13l-34,8l-27,-5l-17,-14l-14,4l-13,-5l-20,8l-49,34l4,15l-5,18l-15,-1l-18,-20l-15,20l-3,27l4,30l-5,10l-16,-4l-10,17l-24,61l-16,5l16,22l-9,23l28,11l-20,9l-7,17h-20l-6,10l11,13l-1,20l12,28l-20,13l3,18l16,-7l15,25l-12,10l-5,17l2,18l38,31l-17,10l-1,15l29,3l-4,25l18,23l-7,21l10,18l17,6l-12,12l-9,26l15,19l-34,8l6,15h11l9,23l-10,4l-17,-24l-9,13l16,18l31,2l5,17l34,3l-11,17l38,20l-4,12l0,24l7,40l-27,24l-15,-17l-28,21l12,43l14,16l-9,15l18,19l-17,16l-9,-3l-27,5l-14,14l-26,-2l24,64l-3,7l-22,3l-16,25l8,18l-8,10l-2,27l-5,16l2,16l-19,8l7,23l-5,8l17,10l-12,12l16,7l16,19l2,17l26,32l6,37l-12,3l-3,14l18,8l-4,29l-21,1l-6,11l23,18l20,7l-1,19l8,23l-2,20l10,16l6,20l-13,19l2,12h-20l27,57l-5,16l11,23l-2,37h8l12,-20l6,23l-7,32l0,19l-13,14l10,13l16,-5l20,3l6,9l-8,19l25,10l-4,15l10,7l27,-24l18,6l8,14l-15,31l9,17l18,-12l4,14l-14,4l2,25l14,11l9,16l17,9l0,27h18l1,16l-13,10l-1,12l15,1l27,12l-4,17l12,10l-13,14l16,15l10,2l16,19h14l11,18l4,18l-1,31l14,13l-1,19l17,9l-7,17l7,11h31l13,20l7,27l-4,22l19,4l10,19l-12,28l2,23l8,12l14,3l10,31l15,6l7,12l3,26l18,1l6,23l19,10l-5,17l18,27l-3,9l35,30l7,20l0,48l6,14l-20,19l-12,3l-7,17l-17,6l18,40l-13,34l6,13l-7,12l-19,8l-3,17l8,9l-5,18l21,14l24,8l10,12l2,34l11,7l3,31l-3,26l2,20l-7,10l19,52l-50,39l-10,31l-25,26l-6,-15l-38,6l-6,-5l-18,15l-6,21l5,9l-36,10l-5,25l11,13l20,-1l-2,26l19,19l-5,44l15,13l-4,14l-14,10l12,58l-17,1l7,23l-13,18l5,24l14,3l6,17l-26,21l20,32l-34,25l12,6l-1,46l-12,10l0,29l-25,30l-7,34l19,10l-2,17l21,37l-10,7l6,15l21,17l-6,23l11,22l-3,12l17,24l12,9l1,22l17,29l6,34l-3,11l10,21l19,3l17,8l26,3l-7,29l-3,35l-10,16l-37,26l-14,-3l-42,-29l-29,34l-22,-14l-24,1l-15,18l-16,4l-23,15l-17,5l-18,17l-39,24l-18,-5l-3,-9l-28,6l-9,7l-36,-3l-8,-8l-19,9l-11,-5l-10,21h-39l-19,-13l-48,19l-26,1l-29,13l-14,26l-4,32l3,9l-12,11l-1,13l-41,-6l-15,6l-26,-6l-9,3l-15,30l-1,15l-18,5l-7,38l-56,12l9,39l-8,27l-11,-10l-17,13l-2,25l-22,8l-17,1l-20,-13h-15l-11,8l-16,-1l-15,-10l-19,20h-16l-9,8l0,439l-776,-1l-365,-1l-466,-1h-378h-715h-821l-835,-1h-1222h-781l-873,-1h-584l0,-153l2,-872l1,-181l-13,1l-23,-15l-36,11h-26l-18,7l-29,-5l-22,2l-18,-5l-12,-16l-11,-24l-17,-12l-22,-7l-15,-12l-11,-28l-12,-4l-11,-18l-2,-21l-20,-16l-27,-28l-7,-22l-7,-49l-9,-16l5,-26l18,-46l-4,-12l-6,-27l8,-24l-2,-28l-8,-13l-14,-42l-5,-6l-16,-62l-7,-4l1,-25l-18,-46l0,-41l6,-15l-7,-18l17,-15l5,-13l-11,-61l-9,-8l0,-18l23,-22l25,-9l27,2l22,-12l29,4l11,6l29,-10l19,16l40,-9l8,-10l19,-3l49,-26l22,-25l9,-25l1,-49l-2,-64l2,-93l-3,-50l-6,-62l-9,-43l-18,-49l-35,-61l-23,-26l-78,-61l-68,-47l-11,-29l7,-27l-19,-8h-24l-13,-21l10,-25l-16,-32l-11,-12l-16,3l8,-48l-6,-10h-14l-6,20l-17,4l-6,-8l-37,-21l-14,-23h-40l-23,3l-9,-13l-49,-30l-16,-6l-4,-21l-16,13l-17,-9l-4,-15l5,-19l-35,-24l-5,-13l-33,-14l-14,-14l0,-10l-21,-30l-22,-16l0,-19l-8,-41l-12,-38l-11,-8l-13,-21l5,-14l-6,-21l18,-21l-20,-8l-3,-17l4,-16l9,-7l3,-29l9,-7l8,-24l-1,-18l7,-10l3,-41l20,-1l5,-19l-2,-27l-12,-14l1,-28l20,3l20,-10l4,-10l-21,-10l9,-44l21,-9l-8,-15l19,-10l6,-30l13,-5l3,-13l-16,-22l-8,-31l-23,-30l8,-13l21,-6l-1,-11l-18,-2l-6,-17l17,-3l6,-11l-12,-12h-17l8,-19l-5,-12l21,-5l-4,-18l-23,-15l17,-7l5,-18l25,-15l15,1l11,-8l1,-13l-13,-31l0,-28l8,-7l-17,-16l-3,-11h-34l1,-13l-16,-33l23,-11l-9,-26l9,-7l32,-9l16,3l13,-14l37,18l7,29l18,-1l16,-8h12l7,-21l11,-9l18,2l12,-46l22,9l12,-19l-13,-23l3,-15l-5,-30l20,5l6,-37l-22,-7l10,-73h-17l-15,-16l2,-16l-9,-7l1,-26l-9,-11l-14,-4l-2,-12l-26,-20l-3,-19l25,-38l-16,-18l6,-20l8,-6l-23,-22l18,-11l6,-27l-11,-15l-23,-7l-12,-36l12,-9l-13,-21l-10,-7l13,-24l-10,-12l-18,-5l-8,-22l0,-22l-16,-2l-22,-28l2,-10l-13,-30l-10,-30l-3,-25l8,-19l14,-11l2,-19l-7,-14l8,-24l-12,-14l-13,-3l9,-34l-6,-2l-9,-33l10,-7l-22,-32l6,-12l-18,-5l-18,-31l3,-15l-17,-10l11,-19l-11,-11l9,-21l-1,-25h848h459l68,-1h555h462h205l24,-3l176,1l5,1l123,-1l24,1l443,-1h506l566,-1l866,1l612,1h653l201,-1h423h449l587,-1l368,1l976,-1h94l-13,10l13,33l-13,4l-3,14l17,15l-16,4l-22,-8l-4,11l10,11l16,43Z" />
    </g>
    <g id="microregion">
      <path mesoregion="5301" id="53001" class="microregion" fill="transparent" d="M-473100,-160363l-19,8l-24,-6l-26,-1l-35,51l-21,46l-11,2l-18,-8l-3,-25l-57,73l-18,2l-21,16l-21,31l-8,-13l-16,-9l-13,15l13,8l-13,11l1,10l23,2l3,16l-7,10l-26,-1l-14,7h-19l-13,9l-4,22l-12,13l-34,8l-27,-5l-17,-14l-14,4l-13,-5l-20,8l-49,34l4,15l-5,18l-15,-1l-18,-20l-15,20l-3,27l4,30l-5,10l-16,-4l-10,17l-24,61l-16,5l16,22l-9,23l28,11l-20,9l-7,17h-20l-6,10l11,13l-1,20l12,28l-20,13l3,18l16,-7l15,25l-12,10l-5,17l2,18l38,31l-17,10l-1,15l29,3l-4,25l18,23l-7,21l10,18l17,6l-12,12l-9,26l15,19l-34,8l6,15h11l9,23l-10,4l-17,-24l-9,13l16,18l31,2l5,17l34,3l-11,17l38,20l-4,12l0,24l7,40l-27,24l-15,-17l-28,21l12,43l14,16l-9,15l18,19l-17,16l-9,-3l-27,5l-14,14l-26,-2l24,64l-3,7l-22,3l-16,25l8,18l-8,10l-2,27l-5,16l2,16l-19,8l7,23l-5,8l17,10l-12,12l16,7l16,19l2,17l26,32l6,37l-12,3l-3,14l18,8l-4,29l-21,1l-6,11l23,18l20,7l-1,19l8,23l-2,20l10,16l6,20l-13,19l2,12h-20l27,57l-5,16l11,23l-2,37h8l12,-20l6,23l-7,32l0,19l-13,14l10,13l16,-5l20,3l6,9l-8,19l25,10l-4,15l10,7l27,-24l18,6l8,14l-15,31l9,17l18,-12l4,14l-14,4l2,25l14,11l9,16l17,9l0,27h18l1,16l-13,10l-1,12l15,1l27,12l-4,17l12,10l-13,14l16,15l10,2l16,19h14l11,18l4,18l-1,31l14,13l-1,19l17,9l-7,17l7,11h31l13,20l7,27l-4,22l19,4l10,19l-12,28l2,23l8,12l14,3l10,31l15,6l7,12l3,26l18,1l6,23l19,10l-5,17l18,27l-3,9l35,30l7,20l0,48l6,14l-20,19l-12,3l-7,17l-17,6l18,40l-13,34l6,13l-7,12l-19,8l-3,17l8,9l-5,18l21,14l24,8l10,12l2,34l11,7l3,31l-3,26l2,20l-7,10l19,52l-50,39l-10,31l-25,26l-6,-15l-38,6l-6,-5l-18,15l-6,21l5,9l-36,10l-5,25l11,13l20,-1l-2,26l19,19l-5,44l15,13l-4,14l-14,10l12,58l-17,1l7,23l-13,18l5,24l14,3l6,17l-26,21l20,32l-34,25l12,6l-1,46l-12,10l0,29l-25,30l-7,34l19,10l-2,17l21,37l-10,7l6,15l21,17l-6,23l11,22l-3,12l17,24l12,9l1,22l17,29l6,34l-3,11l10,21l19,3l17,8l26,3l-7,29l-3,35l-10,16l-37,26l-14,-3l-42,-29l-29,34l-22,-14l-24,1l-15,18l-16,4l-23,15l-17,5l-18,17l-39,24l-18,-5l-3,-9l-28,6l-9,7l-36,-3l-8,-8l-19,9l-11,-5l-10,21h-39l-19,-13l-48,19l-26,1l-29,13l-14,26l-4,32l3,9l-12,11l-1,13l-41,-6l-15,6l-26,-6l-9,3l-15,30l-1,15l-18,5l-7,38l-56,12l9,39l-8,27l-11,-10l-17,13l-2,25l-22,8l-17,1l-20,-13h-15l-11,8l-16,-1l-15,-10l-19,20h-16l-9,8l0,439l-776,-1l-365,-1l-466,-1h-378h-715h-821l-835,-1h-1222h-781l-873,-1h-584l0,-153l2,-872l1,-181l-13,1l-23,-15l-36,11h-26l-18,7l-29,-5l-22,2l-18,-5l-12,-16l-11,-24l-17,-12l-22,-7l-15,-12l-11,-28l-12,-4l-11,-18l-2,-21l-20,-16l-27,-28l-7,-22l-7,-49l-9,-16l5,-26l18,-46l-4,-12l-6,-27l8,-24l-2,-28l-8,-13l-14,-42l-5,-6l-16,-62l-7,-4l1,-25l-18,-46l0,-41l6,-15l-7,-18l17,-15l5,-13l-11,-61l-9,-8l0,-18l23,-22l25,-9l27,2l22,-12l29,4l11,6l29,-10l19,16l40,-9l8,-10l19,-3l49,-26l22,-25l9,-25l1,-49l-2,-64l2,-93l-3,-50l-6,-62l-9,-43l-18,-49l-35,-61l-23,-26l-78,-61l-68,-47l-11,-29l7,-27l-19,-8h-24l-13,-21l10,-25l-16,-32l-11,-12l-16,3l8,-48l-6,-10h-14l-6,20l-17,4l-6,-8l-37,-21l-14,-23h-40l-23,3l-9,-13l-49,-30l-16,-6l-4,-21l-16,13l-17,-9l-4,-15l5,-19l-35,-24l-5,-13l-33,-14l-14,-14l0,-10l-21,-30l-22,-16l0,-19l-8,-41l-12,-38l-11,-8l-13,-21l5,-14l-6,-21l18,-21l-20,-8l-3,-17l4,-16l9,-7l3,-29l9,-7l8,-24l-1,-18l7,-10l3,-41l20,-1l5,-19l-2,-27l-12,-14l1,-28l20,3l20,-10l4,-10l-21,-10l9,-44l21,-9l-8,-15l19,-10l6,-30l13,-5l3,-13l-16,-22l-8,-31l-23,-30l8,-13l21,-6l-1,-11l-18,-2l-6,-17l17,-3l6,-11l-12,-12h-17l8,-19l-5,-12l21,-5l-4,-18l-23,-15l17,-7l5,-18l25,-15l15,1l11,-8l1,-13l-13,-31l0,-28l8,-7l-17,-16l-3,-11h-34l1,-13l-16,-33l23,-11l-9,-26l9,-7l32,-9l16,3l13,-14l37,18l7,29l18,-1l16,-8h12l7,-21l11,-9l18,2l12,-46l22,9l12,-19l-13,-23l3,-15l-5,-30l20,5l6,-37l-22,-7l10,-73h-17l-15,-16l2,-16l-9,-7l1,-26l-9,-11l-14,-4l-2,-12l-26,-20l-3,-19l25,-38l-16,-18l6,-20l8,-6l-23,-22l18,-11l6,-27l-11,-15l-23,-7l-12,-36l12,-9l-13,-21l-10,-7l13,-24l-10,-12l-18,-5l-8,-22l0,-22l-16,-2l-22,-28l2,-10l-13,-30l-10,-30l-3,-25l8,-19l14,-11l2,-19l-7,-14l8,-24l-12,-14l-13,-3l9,-34l-6,-2l-9,-33l10,-7l-22,-32l6,-12l-18,-5l-18,-31l3,-15l-17,-10l11,-19l-11,-11l9,-21l-1,-25h848h459l68,-1h555h462h205l24,-3l176,1l5,1l123,-1l24,1l443,-1h506l566,-1l866,1l612,1h653l201,-1h423h449l587,-1l368,1l976,-1h94l-13,10l13,33l-13,4l-3,14l17,15l-16,4l-22,-8l-4,11l10,11l16,43Z"/>
    </g>
    <g id="mesoregion">
      <path id="5301" class="mesoregion" fill="transparent" d="M-473100,-160363l-19,8l-24,-6l-26,-1l-35,51l-21,46l-11,2l-18,-8l-3,-25l-57,73l-18,2l-21,16l-21,31l-8,-13l-16,-9l-13,15l13,8l-13,11l1,10l23,2l3,16l-7,10l-26,-1l-14,7h-19l-13,9l-4,22l-12,13l-34,8l-27,-5l-17,-14l-14,4l-13,-5l-20,8l-49,34l4,15l-5,18l-15,-1l-18,-20l-15,20l-3,27l4,30l-5,10l-16,-4l-10,17l-24,61l-16,5l16,22l-9,23l28,11l-20,9l-7,17h-20l-6,10l11,13l-1,20l12,28l-20,13l3,18l16,-7l15,25l-12,10l-5,17l2,18l38,31l-17,10l-1,15l29,3l-4,25l18,23l-7,21l10,18l17,6l-12,12l-9,26l15,19l-34,8l6,15h11l9,23l-10,4l-17,-24l-9,13l16,18l31,2l5,17l34,3l-11,17l38,20l-4,12l0,24l7,40l-27,24l-15,-17l-28,21l12,43l14,16l-9,15l18,19l-17,16l-9,-3l-27,5l-14,14l-26,-2l24,64l-3,7l-22,3l-16,25l8,18l-8,10l-2,27l-5,16l2,16l-19,8l7,23l-5,8l17,10l-12,12l16,7l16,19l2,17l26,32l6,37l-12,3l-3,14l18,8l-4,29l-21,1l-6,11l23,18l20,7l-1,19l8,23l-2,20l10,16l6,20l-13,19l2,12h-20l27,57l-5,16l11,23l-2,37h8l12,-20l6,23l-7,32l0,19l-13,14l10,13l16,-5l20,3l6,9l-8,19l25,10l-4,15l10,7l27,-24l18,6l8,14l-15,31l9,17l18,-12l4,14l-14,4l2,25l14,11l9,16l17,9l0,27h18l1,16l-13,10l-1,12l15,1l27,12l-4,17l12,10l-13,14l16,15l10,2l16,19h14l11,18l4,18l-1,31l14,13l-1,19l17,9l-7,17l7,11h31l13,20l7,27l-4,22l19,4l10,19l-12,28l2,23l8,12l14,3l10,31l15,6l7,12l3,26l18,1l6,23l19,10l-5,17l18,27l-3,9l35,30l7,20l0,48l6,14l-20,19l-12,3l-7,17l-17,6l18,40l-13,34l6,13l-7,12l-19,8l-3,17l8,9l-5,18l21,14l24,8l10,12l2,34l11,7l3,31l-3,26l2,20l-7,10l19,52l-50,39l-10,31l-25,26l-6,-15l-38,6l-6,-5l-18,15l-6,21l5,9l-36,10l-5,25l11,13l20,-1l-2,26l19,19l-5,44l15,13l-4,14l-14,10l12,58l-17,1l7,23l-13,18l5,24l14,3l6,17l-26,21l20,32l-34,25l12,6l-1,46l-12,10l0,29l-25,30l-7,34l19,10l-2,17l21,37l-10,7l6,15l21,17l-6,23l11,22l-3,12l17,24l12,9l1,22l17,29l6,34l-3,11l10,21l19,3l17,8l26,3l-7,29l-3,35l-10,16l-37,26l-14,-3l-42,-29l-29,34l-22,-14l-24,1l-15,18l-16,4l-23,15l-17,5l-18,17l-39,24l-18,-5l-3,-9l-28,6l-9,7l-36,-3l-8,-8l-19,9l-11,-5l-10,21h-39l-19,-13l-48,19l-26,1l-29,13l-14,26l-4,32l3,9l-12,11l-1,13l-41,-6l-15,6l-26,-6l-9,3l-15,30l-1,15l-18,5l-7,38l-56,12l9,39l-8,27l-11,-10l-17,13l-2,25l-22,8l-17,1l-20,-13h-15l-11,8l-16,-1l-15,-10l-19,20h-16l-9,8l0,439l-776,-1l-365,-1l-466,-1h-378h-715h-821l-835,-1h-1222h-781l-873,-1h-584l0,-153l2,-872l1,-181l-13,1l-23,-15l-36,11h-26l-18,7l-29,-5l-22,2l-18,-5l-12,-16l-11,-24l-17,-12l-22,-7l-15,-12l-11,-28l-12,-4l-11,-18l-2,-21l-20,-16l-27,-28l-7,-22l-7,-49l-9,-16l5,-26l18,-46l-4,-12l-6,-27l8,-24l-2,-28l-8,-13l-14,-42l-5,-6l-16,-62l-7,-4l1,-25l-18,-46l0,-41l6,-15l-7,-18l17,-15l5,-13l-11,-61l-9,-8l0,-18l23,-22l25,-9l27,2l22,-12l29,4l11,6l29,-10l19,16l40,-9l8,-10l19,-3l49,-26l22,-25l9,-25l1,-49l-2,-64l2,-93l-3,-50l-6,-62l-9,-43l-18,-49l-35,-61l-23,-26l-78,-61l-68,-47l-11,-29l7,-27l-19,-8h-24l-13,-21l10,-25l-16,-32l-11,-12l-16,3l8,-48l-6,-10h-14l-6,20l-17,4l-6,-8l-37,-21l-14,-23h-40l-23,3l-9,-13l-49,-30l-16,-6l-4,-21l-16,13l-17,-9l-4,-15l5,-19l-35,-24l-5,-13l-33,-14l-14,-14l0,-10l-21,-30l-22,-16l0,-19l-8,-41l-12,-38l-11,-8l-13,-21l5,-14l-6,-21l18,-21l-20,-8l-3,-17l4,-16l9,-7l3,-29l9,-7l8,-24l-1,-18l7,-10l3,-41l20,-1l5,-19l-2,-27l-12,-14l1,-28l20,3l20,-10l4,-10l-21,-10l9,-44l21,-9l-8,-15l19,-10l6,-30l13,-5l3,-13l-16,-22l-8,-31l-23,-30l8,-13l21,-6l-1,-11l-18,-2l-6,-17l17,-3l6,-11l-12,-12h-17l8,-19l-5,-12l21,-5l-4,-18l-23,-15l17,-7l5,-18l25,-15l15,1l11,-8l1,-13l-13,-31l0,-28l8,-7l-17,-16l-3,-11h-34l1,-13l-16,-33l23,-11l-9,-26l9,-7l32,-9l16,3l13,-14l37,18l7,29l18,-1l16,-8h12l7,-21l11,-9l18,2l12,-46l22,9l12,-19l-13,-23l3,-15l-5,-30l20,5l6,-37l-22,-7l10,-73h-17l-15,-16l2,-16l-9,-7l1,-26l-9,-11l-14,-4l-2,-12l-26,-20l-3,-19l25,-38l-16,-18l6,-20l8,-6l-23,-22l18,-11l6,-27l-11,-15l-23,-7l-12,-36l12,-9l-13,-21l-10,-7l13,-24l-10,-12l-18,-5l-8,-22l0,-22l-16,-2l-22,-28l2,-10l-13,-30l-10,-30l-3,-25l8,-19l14,-11l2,-19l-7,-14l8,-24l-12,-14l-13,-3l9,-34l-6,-2l-9,-33l10,-7l-22,-32l6,-12l-18,-5l-18,-31l3,-15l-17,-10l11,-19l-11,-11l9,-21l-1,-25h848h459l68,-1h555h462h205l24,-3l176,1l5,1l123,-1l24,1l443,-1h506l566,-1l866,1l612,1h653l201,-1h423h449l587,-1l368,1l976,-1h94l-13,10l13,33l-13,4l-3,14l17,15l-16,4l-22,-8l-4,11l10,11l16,43Z"/>
    </g>
  </g>
</svg>
